NotoSerifTamil-Bold.ufo
<glyph name="exclam" format="2">
  <advance width="418"/>
  <unicode hex="0021"/>
  <outline>
    <contour>
      <point x="178" y="248" type="line"/>
      <point x="241" y="248" type="line"/>
      <point x="318" y="714" type="line"/>
      <point x="101" y="714" type="line"/>
    </contour>
    <contour>
      <point x="211" y="-9" type="curve" smooth="yes"/>
      <point x="262" y="-9"/>
      <point x="307" y="13"/>
      <point x="307" y="80" type="curve" smooth="yes"/>
      <point x="307" y="148"/>
      <point x="262" y="169"/>
      <point x="211" y="169" type="curve" smooth="yes"/>
      <point x="157" y="169"/>
      <point x="115" y="148"/>
      <point x="115" y="80" type="curve" smooth="yes"/>
      <point x="115" y="13"/>
      <point x="157" y="-9"/>
    </contour>
  </outline>
</glyph>
<glyph name="numbersign" format="2">
  <advance width="559"/>
  <unicode hex="0023"/>
  <outline>
    <contour>
      <point x="88" y="0" type="line"/>
      <point x="167" y="0" type="line"/>
      <point x="205" y="198" type="line"/>
      <point x="293" y="198" type="line"/>
      <point x="257" y="0" type="line"/>
      <point x="336" y="0" type="line"/>
      <point x="372" y="198" type="line"/>
      <point x="497" y="198" type="line"/>
      <point x="497" y="274" type="line"/>
      <point x="388" y="274" type="line"/>
      <point x="420" y="444" type="line"/>
      <point x="529" y="444" type="line"/>
      <point x="529" y="522" type="line"/>
      <point x="434" y="522" type="line"/>
      <point x="471" y="714" type="line"/>
      <point x="392" y="714" type="line"/>
      <point x="355" y="522" type="line"/>
      <point x="267" y="522" type="line"/>
      <point x="302" y="714" type="line"/>
      <point x="222" y="714" type="line"/>
      <point x="188" y="522" type="line"/>
      <point x="62" y="522" type="line"/>
      <point x="62" y="444" type="line"/>
      <point x="173" y="444" type="line"/>
      <point x="140" y="274" type="line"/>
      <point x="30" y="274" type="line"/>
      <point x="30" y="198" type="line"/>
      <point x="126" y="198" type="line"/>
    </contour>
    <contour>
      <point x="219" y="274" type="line"/>
      <point x="253" y="444" type="line"/>
      <point x="342" y="444" type="line"/>
      <point x="309" y="274" type="line"/>
    </contour>
  </outline>
</glyph>
<glyph name="percent" format="2">
  <advance width="913"/>
  <unicode hex="0025"/>
  <outline>
    <contour>
      <point x="244" y="0" type="line"/>
      <point x="331" y="0" type="line"/>
      <point x="666" y="714" type="line"/>
      <point x="580" y="714" type="line"/>
    </contour>
    <contour>
      <point x="218" y="280" type="curve" smooth="yes"/>
      <point x="347" y="280"/>
      <point x="410" y="369"/>
      <point x="410" y="503" type="curve"/>
      <point x="410" y="637"/>
      <point x="347" y="724"/>
      <point x="219" y="724" type="curve" smooth="yes"/>
      <point x="82" y="724"/>
      <point x="26" y="637"/>
      <point x="26" y="503" type="curve" smooth="yes"/>
      <point x="26" y="369"/>
      <point x="82" y="280"/>
    </contour>
    <contour>
      <point x="218" y="337" type="curve" smooth="yes"/>
      <point x="173" y="337"/>
      <point x="156" y="398"/>
      <point x="156" y="503" type="curve"/>
      <point x="156" y="606"/>
      <point x="173" y="666"/>
      <point x="219" y="666" type="curve" smooth="yes"/>
      <point x="264" y="666"/>
      <point x="279" y="606"/>
      <point x="279" y="503" type="curve" smooth="yes"/>
      <point x="279" y="398"/>
      <point x="264" y="337"/>
    </contour>
    <contour>
      <point x="696" y="-10" type="curve" smooth="yes"/>
      <point x="825" y="-10"/>
      <point x="888" y="79"/>
      <point x="888" y="213" type="curve" smooth="yes"/>
      <point x="888" y="347"/>
      <point x="825" y="434"/>
      <point x="697" y="434" type="curve" smooth="yes"/>
      <point x="560" y="434"/>
      <point x="504" y="347"/>
      <point x="504" y="213" type="curve" smooth="yes"/>
      <point x="504" y="79"/>
      <point x="560" y="-10"/>
    </contour>
    <contour>
      <point x="696" y="47" type="curve" smooth="yes"/>
      <point x="651" y="47"/>
      <point x="634" y="108"/>
      <point x="634" y="213" type="curve" smooth="yes"/>
      <point x="634" y="316"/>
      <point x="651" y="376"/>
      <point x="697" y="376" type="curve" smooth="yes"/>
      <point x="742" y="376"/>
      <point x="757" y="316"/>
      <point x="757" y="213" type="curve" smooth="yes"/>
      <point x="757" y="108"/>
      <point x="742" y="47"/>
    </contour>
  </outline>
</glyph>
<glyph name="quotesingle" format="2">
  <advance width="342"/>
  <unicode hex="0027"/>
  <outline>
    <contour>
      <point x="130" y="410" type="line"/>
      <point x="211" y="410" type="line"/>
      <point x="267" y="714" type="line"/>
      <point x="74" y="714" type="line"/>
    </contour>
  </outline>
</glyph>
<glyph name="parenleft" format="2">
  <advance width="440"/>
  <unicode hex="0028"/>
  <outline>
    <contour>
      <point x="408" y="-147" type="curve"/>
      <point x="408" y="-70" type="line"/>
      <point x="293" y="11"/>
      <point x="260" y="160"/>
      <point x="260" y="319" type="curve" smooth="yes"/>
      <point x="260" y="476"/>
      <point x="293" y="623"/>
      <point x="408" y="705" type="curve"/>
      <point x="408" y="781" type="line"/>
      <point x="156" y="680"/>
      <point x="57" y="515"/>
      <point x="57" y="319" type="curve" smooth="yes"/>
      <point x="57" y="121"/>
      <point x="156" y="-46"/>
    </contour>
  </outline>
</glyph>
<glyph name="parenright" format="2">
  <advance width="440"/>
  <unicode hex="0029"/>
  <outline>
    <contour>
      <point x="32" y="-147" type="line"/>
      <point x="284" y="-46"/>
      <point x="383" y="121"/>
      <point x="383" y="319" type="curve" smooth="yes"/>
      <point x="383" y="515"/>
      <point x="284" y="680"/>
      <point x="32" y="781" type="curve"/>
      <point x="32" y="705" type="line"/>
      <point x="146" y="623"/>
      <point x="180" y="476"/>
      <point x="180" y="319" type="curve" smooth="yes"/>
      <point x="180" y="160"/>
      <point x="146" y="11"/>
      <point x="32" y="-70" type="curve"/>
    </contour>
  </outline>
</glyph>
<glyph name="asterisk" format="2">
  <advance width="503"/>
  <unicode hex="002A"/>
  <outline>
    <contour>
      <point x="191" y="359" type="line"/>
      <point x="319" y="359" type="line"/>
      <point x="279" y="524" type="line"/>
      <point x="425" y="412" type="line"/>
      <point x="478" y="527" type="line"/>
      <point x="331" y="560" type="line"/>
      <point x="478" y="592" type="line"/>
      <point x="425" y="708" type="line"/>
      <point x="279" y="597" type="line"/>
      <point x="321" y="760" type="line"/>
      <point x="191" y="760" type="line"/>
      <point x="229" y="594" type="line"/>
      <point x="83" y="710" type="line"/>
      <point x="31" y="593" type="line"/>
      <point x="178" y="560" type="line"/>
      <point x="31" y="526" type="line"/>
      <point x="83" y="411" type="line"/>
      <point x="228" y="526" type="line"/>
    </contour>
  </outline>
</glyph>
<glyph name="plus" format="2">
  <advance width="559"/>
  <unicode hex="002B"/>
  <outline>
    <contour>
      <point x="239" y="143" type="line"/>
      <point x="319" y="143" type="line"/>
      <point x="319" y="318" type="line"/>
      <point x="494" y="318" type="line"/>
      <point x="494" y="397" type="line"/>
      <point x="319" y="397" type="line"/>
      <point x="319" y="572" type="line"/>
      <point x="239" y="572" type="line"/>
      <point x="239" y="397" type="line"/>
      <point x="65" y="397" type="line"/>
      <point x="65" y="318" type="line"/>
      <point x="239" y="318" type="line"/>
    </contour>
  </outline>
</glyph>
<glyph name="three" format="2">
  <advance width="559"/>
  <unicode hex="0033"/>
  <outline>
    <contour>
      <point x="243" y="-10" type="curve" smooth="yes"/>
      <point x="398" y="-10"/>
      <point x="532" y="43"/>
      <point x="532" y="207" type="curve" smooth="yes"/>
      <point x="532" y="310"/>
      <point x="444" y="361"/>
      <point x="359" y="381" type="curve"/>
      <point x="442" y="415"/>
      <point x="507" y="468"/>
      <point x="507" y="558" type="curve" smooth="yes"/>
      <point x="507" y="664"/>
      <point x="414" y="724"/>
      <point x="260" y="724" type="curve" smooth="yes"/>
      <point x="102" y="724"/>
      <point x="29" y="655"/>
      <point x="29" y="588" type="curve" smooth="yes"/>
      <point x="29" y="520"/>
      <point x="86" y="495"/>
      <point x="172" y="495" type="curve"/>
      <point x="172" y="573"/>
      <point x="194" y="655"/>
      <point x="252" y="655" type="curve" smooth="yes"/>
      <point x="289" y="655"/>
      <point x="317" y="612"/>
      <point x="317" y="545" type="curve" smooth="yes"/>
      <point x="317" y="462"/>
      <point x="297" y="404"/>
      <point x="212" y="404" type="curve"/>
      <point x="131" y="404" type="line"/>
      <point x="131" y="334" type="line"/>
      <point x="205" y="334" type="line" smooth="yes"/>
      <point x="296" y="334"/>
      <point x="341" y="279"/>
      <point x="341" y="208" type="curve" smooth="yes"/>
      <point x="341" y="97"/>
      <point x="292" y="72"/>
      <point x="237" y="72" type="curve" smooth="yes"/>
      <point x="170" y="72"/>
      <point x="117" y="119"/>
      <point x="117" y="215" type="curve"/>
      <point x="65" y="215"/>
      <point x="16" y="186"/>
      <point x="16" y="127" type="curve" smooth="yes"/>
      <point x="16" y="48"/>
      <point x="78" y="-10"/>
    </contour>
  </outline>
</glyph>
<glyph name="four" format="2">
  <advance width="559"/>
  <unicode hex="0034"/>
  <outline>
    <contour>
      <point x="154" y="0" type="line"/>
      <point x="542" y="0" type="line"/>
      <point x="542" y="61" type="line"/>
      <point x="529" y="61" type="line" smooth="yes"/>
      <point x="484" y="61"/>
      <point x="447" y="70"/>
      <point x="447" y="133" type="curve" smooth="yes"/>
      <point x="447" y="179" type="line"/>
      <point x="536" y="179" type="line"/>
      <point x="536" y="252" type="line"/>
      <point x="447" y="252" type="line"/>
      <point x="447" y="714" type="line"/>
      <point x="276" y="714" type="line"/>
      <point x="10" y="254" type="line"/>
      <point x="10" y="179" type="line"/>
      <point x="264" y="179" type="line"/>
      <point x="264" y="133" type="line" smooth="yes"/>
      <point x="264" y="70"/>
      <point x="227" y="61"/>
      <point x="182" y="61" type="curve" smooth="yes"/>
      <point x="154" y="61" type="line"/>
    </contour>
    <contour>
      <point x="93" y="252" type="line"/>
      <point x="205" y="460" type="line" smooth="yes"/>
      <point x="214" y="477"/>
      <point x="259" y="567"/>
      <point x="272" y="601" type="curve"/>
      <point x="267" y="539"/>
      <point x="265" y="478"/>
      <point x="265" y="420" type="curve" smooth="yes"/>
      <point x="265" y="252" type="line"/>
    </contour>
  </outline>
</glyph>
<glyph name="five" format="2">
  <advance width="559"/>
  <unicode hex="0035"/>
  <outline>
    <contour>
      <point x="246" y="-10" type="curve" smooth="yes"/>
      <point x="343" y="-10"/>
      <point x="521" y="21"/>
      <point x="521" y="221" type="curve" smooth="yes"/>
      <point x="521" y="366"/>
      <point x="418" y="438"/>
      <point x="244" y="438" type="curve" smooth="yes"/>
      <point x="216" y="438"/>
      <point x="161" y="432"/>
      <point x="139" y="423" type="curve"/>
      <point x="153" y="583" type="line"/>
      <point x="371" y="583" type="line" smooth="yes"/>
      <point x="396" y="583"/>
      <point x="406" y="569"/>
      <point x="412" y="547" type="curve" smooth="yes"/>
      <point x="422" y="510" type="line"/>
      <point x="491" y="510" type="line"/>
      <point x="486" y="715" type="line"/>
      <point x="91" y="715" type="line"/>
      <point x="59" y="375" type="line"/>
      <point x="105" y="349" type="line"/>
      <point x="139" y="356"/>
      <point x="170" y="364"/>
      <point x="207" y="364" type="curve" smooth="yes"/>
      <point x="289" y="364"/>
      <point x="332" y="318"/>
      <point x="332" y="221" type="curve" smooth="yes"/>
      <point x="332" y="101"/>
      <point x="278" y="68"/>
      <point x="223" y="68" type="curve" smooth="yes"/>
      <point x="141" y="68"/>
      <point x="122" y="145"/>
      <point x="122" y="202" type="curve"/>
      <point x="70" y="202"/>
      <point x="29" y="178"/>
      <point x="29" y="126" type="curve" smooth="yes"/>
      <point x="29" y="51"/>
      <point x="94" y="-10"/>
    </contour>
  </outline>
</glyph>
<glyph name="eight" format="2">
  <advance width="559"/>
  <unicode hex="0038"/>
  <outline>
    <contour>
      <point x="273" y="-10" type="curve" smooth="yes"/>
      <point x="445" y="-10"/>
      <point x="541" y="72"/>
      <point x="541" y="188" type="curve" smooth="yes"/>
      <point x="541" y="284"/>
      <point x="499" y="335"/>
      <point x="383" y="394" type="curve"/>
      <point x="467" y="430"/>
      <point x="516" y="474"/>
      <point x="516" y="561" type="curve" smooth="yes"/>
      <point x="516" y="649"/>
      <point x="440" y="724"/>
      <point x="287" y="724" type="curve" smooth="yes"/>
      <point x="110" y="724"/>
      <point x="41" y="641"/>
      <point x="41" y="540" type="curve" smooth="yes"/>
      <point x="41" y="450"/>
      <point x="92" y="401"/>
      <point x="171" y="359" type="curve"/>
      <point x="84" y="329"/>
      <point x="18" y="279"/>
      <point x="18" y="174" type="curve" smooth="yes"/>
      <point x="18" y="77"/>
      <point x="93" y="-10"/>
    </contour>
    <contour>
      <point x="278" y="57" type="curve" smooth="yes"/>
      <point x="225" y="57"/>
      <point x="181" y="96"/>
      <point x="181" y="185" type="curve" smooth="yes"/>
      <point x="181" y="247"/>
      <point x="201" y="288"/>
      <point x="235" y="318" type="curve"/>
      <point x="313" y="278"/>
      <point x="360" y="229"/>
      <point x="360" y="166" type="curve" smooth="yes"/>
      <point x="360" y="96"/>
      <point x="326" y="57"/>
    </contour>
    <contour>
      <point x="310" y="430" type="curve"/>
      <point x="254" y="455"/>
      <point x="217" y="495"/>
      <point x="217" y="562" type="curve" smooth="yes"/>
      <point x="217" y="622"/>
      <point x="239" y="658"/>
      <point x="284" y="658" type="curve" smooth="yes"/>
      <point x="329" y="658"/>
      <point x="357" y="615"/>
      <point x="357" y="556" type="curve" smooth="yes"/>
      <point x="357" y="486"/>
      <point x="335" y="450"/>
    </contour>
  </outline>
</glyph>
<glyph name="colon" format="2">
  <advance width="317"/>
  <unicode hex="003A"/>
  <outline>
    <contour>
      <point x="158" y="370" type="curve" smooth="yes"/>
      <point x="209" y="370"/>
      <point x="254" y="392"/>
      <point x="254" y="459" type="curve" smooth="yes"/>
      <point x="254" y="527"/>
      <point x="209" y="548"/>
      <point x="158" y="548" type="curve" smooth="yes"/>
      <point x="104" y="548"/>
      <point x="62" y="527"/>
      <point x="62" y="459" type="curve" smooth="yes"/>
      <point x="62" y="392"/>
      <point x="104" y="370"/>
    </contour>
    <contour>
      <point x="158" y="-9" type="curve" smooth="yes"/>
      <point x="209" y="-9"/>
      <point x="254" y="13"/>
      <point x="254" y="80" type="curve" smooth="yes"/>
      <point x="254" y="148"/>
      <point x="209" y="169"/>
      <point x="158" y="169" type="curve" smooth="yes"/>
      <point x="104" y="169"/>
      <point x="62" y="148"/>
      <point x="62" y="80" type="curve" smooth="yes"/>
      <point x="62" y="13"/>
      <point x="104" y="-9"/>
    </contour>
  </outline>
</glyph>
<glyph name="semicolon" format="2">
  <advance width="317"/>
  <unicode hex="003B"/>
  <outline>
    <contour>
      <point x="58" y="-154" type="line"/>
      <point x="196" y="-119"/>
      <point x="248" y="-43"/>
      <point x="248" y="42" type="curve" smooth="yes"/>
      <point x="248" y="119"/>
      <point x="218" y="169"/>
      <point x="151" y="169" type="curve" smooth="yes"/>
      <point x="107" y="169"/>
      <point x="68" y="143"/>
      <point x="68" y="93" type="curve" smooth="yes"/>
      <point x="68" y="-1"/>
      <point x="141" y="11"/>
      <point x="141" y="-25" type="curve" smooth="yes"/>
      <point x="141" y="-63"/>
      <point x="111" y="-74"/>
      <point x="58" y="-95" type="curve"/>
    </contour>
    <contour>
      <point x="158" y="370" type="curve" smooth="yes"/>
      <point x="209" y="370"/>
      <point x="254" y="392"/>
      <point x="254" y="459" type="curve" smooth="yes"/>
      <point x="254" y="527"/>
      <point x="209" y="548"/>
      <point x="158" y="548" type="curve" smooth="yes"/>
      <point x="104" y="548"/>
      <point x="62" y="527"/>
      <point x="62" y="459" type="curve" smooth="yes"/>
      <point x="62" y="392"/>
      <point x="104" y="370"/>
    </contour>
  </outline>
</glyph>
<glyph name="less" format="2">
  <advance width="559"/>
  <unicode hex="003C"/>
  <outline>
    <contour>
      <point x="494" y="100" type="line"/>
      <point x="494" y="187" type="line"/>
      <point x="182" y="357" type="line"/>
      <point x="494" y="529" type="line"/>
      <point x="494" y="616" type="line"/>
      <point x="65" y="380" type="line"/>
      <point x="65" y="335" type="line"/>
    </contour>
  </outline>
</glyph>
<glyph name="equal" format="2">
  <advance width="559"/>
  <unicode hex="003D"/>
  <outline>
    <contour>
      <point x="62" y="414" type="line"/>
      <point x="498" y="414" type="line"/>
      <point x="498" y="492" type="line"/>
      <point x="62" y="492" type="line"/>
    </contour>
    <contour>
      <point x="62" y="222" type="line"/>
      <point x="498" y="222" type="line"/>
      <point x="498" y="300" type="line"/>
      <point x="62" y="300" type="line"/>
    </contour>
  </outline>
</glyph>
<glyph name="greater" format="2">
  <advance width="559"/>
  <unicode hex="003E"/>
  <outline>
    <contour>
      <point x="65" y="100" type="line"/>
      <point x="494" y="335" type="line"/>
      <point x="494" y="380" type="line"/>
      <point x="65" y="616" type="line"/>
      <point x="65" y="529" type="line"/>
      <point x="377" y="357" type="line"/>
      <point x="65" y="187" type="line"/>
    </contour>
  </outline>
</glyph>
<glyph name="question" format="2">
  <advance width="587"/>
  <unicode hex="003F"/>
  <outline>
    <contour>
      <point x="231" y="238" type="line"/>
      <point x="292" y="238" type="line"/>
      <point x="327" y="323" type="line"/>
      <point x="466" y="381"/>
      <point x="529" y="433"/>
      <point x="529" y="538" type="curve" smooth="yes"/>
      <point x="529" y="655"/>
      <point x="427" y="724"/>
      <point x="265" y="724" type="curve" smooth="yes"/>
      <point x="105" y="724"/>
      <point x="33" y="660"/>
      <point x="33" y="600" type="curve" smooth="yes"/>
      <point x="33" y="534"/>
      <point x="93" y="516"/>
      <point x="200" y="516" type="curve"/>
      <point x="200" y="607"/>
      <point x="223" y="656"/>
      <point x="266" y="656" type="curve" smooth="yes"/>
      <point x="305" y="656"/>
      <point x="328" y="613"/>
      <point x="328" y="553" type="curve" smooth="yes"/>
      <point x="328" y="475"/>
      <point x="309" y="395"/>
      <point x="196" y="350" type="curve"/>
    </contour>
    <contour>
      <point x="259" y="-9" type="curve" smooth="yes"/>
      <point x="310" y="-9"/>
      <point x="355" y="13"/>
      <point x="355" y="80" type="curve" smooth="yes"/>
      <point x="355" y="148"/>
      <point x="310" y="169"/>
      <point x="259" y="169" type="curve" smooth="yes"/>
      <point x="205" y="169"/>
      <point x="163" y="148"/>
      <point x="163" y="80" type="curve" smooth="yes"/>
      <point x="163" y="13"/>
      <point x="205" y="-9"/>
    </contour>
  </outline>
</glyph>
<glyph name="bracketleft" format="2">
  <advance width="454"/>
  <unicode hex="005B"/>
  <outline>
    <contour>
      <point x="100" y="-128" type="line"/>
      <point x="417" y="-128" type="line"/>
      <point x="417" y="-67" type="line"/>
      <point x="374" y="-67" type="line" smooth="yes"/>
      <point x="329" y="-67"/>
      <point x="292" y="-58"/>
      <point x="292" y="5" type="curve" smooth="yes"/>
      <point x="292" y="627" type="line" smooth="yes"/>
      <point x="292" y="690"/>
      <point x="329" y="699"/>
      <point x="374" y="699" type="curve" smooth="yes"/>
      <point x="417" y="699" type="line"/>
      <point x="417" y="760" type="line"/>
      <point x="100" y="760" type="line"/>
    </contour>
  </outline>
</glyph>
<glyph name="bracketright" format="2">
  <advance width="454"/>
  <unicode hex="005D"/>
  <outline>
    <contour>
      <point x="37" y="-128" type="line"/>
      <point x="354" y="-128" type="line"/>
      <point x="354" y="760" type="line"/>
      <point x="37" y="760" type="line"/>
      <point x="37" y="699" type="line"/>
      <point x="80" y="699" type="line" smooth="yes"/>
      <point x="125" y="699"/>
      <point x="162" y="690"/>
      <point x="162" y="627" type="curve" smooth="yes"/>
      <point x="162" y="5" type="line" smooth="yes"/>
      <point x="162" y="-58"/>
      <point x="125" y="-67"/>
      <point x="80" y="-67" type="curve" smooth="yes"/>
      <point x="37" y="-67" type="line"/>
    </contour>
  </outline>
</glyph>
<glyph name="asciicircum" format="2">
  <advance width="559"/>
  <unicode hex="005E"/>
  <outline>
    <contour>
      <point x="42" y="259" type="line"/>
      <point x="128" y="259" type="line"/>
      <point x="278" y="592" type="line"/>
      <point x="429" y="259" type="line"/>
      <point x="515" y="259" type="line"/>
      <point x="303" y="714" type="line"/>
      <point x="254" y="714" type="line"/>
    </contour>
  </outline>
</glyph>
<glyph name="bar" format="2">
  <advance width="559"/>
  <unicode hex="007C"/>
  <outline>
    <contour>
      <point x="239" y="-240" type="line"/>
      <point x="320" y="-240" type="line"/>
      <point x="320" y="760" type="line"/>
      <point x="239" y="760" type="line"/>
    </contour>
  </outline>
</glyph>
<glyph name="braceright" format="2">
  <advance width="452"/>
  <unicode hex="007D"/>
  <outline>
    <contour>
      <point x="15" y="-123" type="line"/>
      <point x="131" y="-123" type="line"/>
      <point x="257" y="-123"/>
      <point x="322" y="-65"/>
      <point x="322" y="28" type="curve" smooth="yes"/>
      <point x="322" y="197" type="line" smooth="yes"/>
      <point x="322" y="269"/>
      <point x="373" y="279"/>
      <point x="437" y="282" type="curve"/>
      <point x="437" y="357" type="line"/>
      <point x="373" y="359"/>
      <point x="322" y="371"/>
      <point x="322" y="441" type="curve" smooth="yes"/>
      <point x="322" y="612" type="line" smooth="yes"/>
      <point x="322" y="706"/>
      <point x="257" y="760"/>
      <point x="131" y="760" type="curve" smooth="yes"/>
      <point x="15" y="760" type="line"/>
      <point x="15" y="700" type="line"/>
      <point x="61" y="700" type="line" smooth="yes"/>
      <point x="116" y="700"/>
      <point x="124" y="667"/>
      <point x="124" y="609" type="curve" smooth="yes"/>
      <point x="124" y="439" type="line" smooth="yes"/>
      <point x="124" y="383"/>
      <point x="154" y="349"/>
      <point x="233" y="327" type="curve"/>
      <point x="233" y="314" type="line"/>
      <point x="157" y="290"/>
      <point x="124" y="256"/>
      <point x="124" y="200" type="curve" smooth="yes"/>
      <point x="124" y="30" type="line" smooth="yes"/>
      <point x="124" y="-29"/>
      <point x="116" y="-62"/>
      <point x="61" y="-62" type="curve" smooth="yes"/>
      <point x="15" y="-62" type="line"/>
    </contour>
  </outline>
</glyph>
<glyph name="asciitilde" format="2">
  <advance width="559"/>
  <unicode hex="007E"/>
  <outline>
    <contour>
      <point x="40" y="257" type="curve"/>
      <point x="123" y="257" type="line"/>
      <point x="123" y="343"/>
      <point x="144" y="373"/>
      <point x="177" y="373" type="curve" smooth="yes"/>
      <point x="201" y="373"/>
      <point x="213" y="357"/>
      <point x="251" y="323" type="curve" smooth="yes"/>
      <point x="306" y="274"/>
      <point x="332" y="257"/>
      <point x="385" y="257" type="curve" smooth="yes"/>
      <point x="488" y="257"/>
      <point x="515" y="323"/>
      <point x="518" y="456" type="curve"/>
      <point x="433" y="456" type="line"/>
      <point x="433" y="371"/>
      <point x="419" y="340"/>
      <point x="387" y="340" type="curve" smooth="yes"/>
      <point x="365" y="340"/>
      <point x="347" y="355"/>
      <point x="309" y="388" type="curve" smooth="yes"/>
      <point x="246" y="443"/>
      <point x="228" y="456"/>
      <point x="184" y="456" type="curve" smooth="yes"/>
      <point x="77" y="456"/>
      <point x="40" y="379"/>
    </contour>
  </outline>
</glyph>
<glyph name="twosuperior" format="2">
  <advance width="400"/>
  <unicode hex="00B2"/>
  <outline>
    <contour>
      <point x="23" y="387" type="line"/>
      <point x="371" y="387" type="line"/>
      <point x="376" y="548" type="line"/>
      <point x="337" y="548" type="line"/>
      <point x="331" y="516" type="line" smooth="yes"/>
      <point x="328" y="499"/>
      <point x="316" y="489"/>
      <point x="291" y="489" type="curve"/>
      <point x="110" y="489" type="line"/>
      <point x="165" y="514" type="line" smooth="yes"/>
      <point x="336" y="592"/>
      <point x="370" y="637"/>
      <point x="370" y="705" type="curve" smooth="yes"/>
      <point x="370" y="771"/>
      <point x="324" y="825"/>
      <point x="198" y="825" type="curve" smooth="yes"/>
      <point x="80" y="825"/>
      <point x="26" y="783"/>
      <point x="26" y="733" type="curve" smooth="yes"/>
      <point x="26" y="694"/>
      <point x="52" y="678"/>
      <point x="131" y="678" type="curve"/>
      <point x="131" y="724"/>
      <point x="136" y="767"/>
      <point x="183" y="767" type="curve" smooth="yes"/>
      <point x="213" y="767"/>
      <point x="230" y="745"/>
      <point x="230" y="712" type="curve" smooth="yes"/>
      <point x="230" y="656"/>
      <point x="195" y="619"/>
      <point x="118" y="559" type="curve" smooth="yes"/>
      <point x="23" y="485" type="line"/>
    </contour>
  </outline>
</glyph>
<glyph name="multiply" format="2">
  <advance width="559"/>
  <unicode hex="00D7"/>
  <outline>
    <contour>
      <point x="146" y="167" type="line"/>
      <point x="279" y="302" type="line"/>
      <point x="413" y="167" type="line"/>
      <point x="469" y="223" type="line"/>
      <point x="335" y="358" type="line"/>
      <point x="469" y="493" type="line"/>
      <point x="412" y="550" type="line"/>
      <point x="279" y="416" type="line"/>
      <point x="146" y="549" type="line"/>
      <point x="88" y="493" type="line"/>
      <point x="221" y="359" type="line"/>
      <point x="88" y="224" type="line"/>
    </contour>
  </outline>
</glyph>
<glyph name="anudatta-deva" format="2">
  <unicode hex="0952"/>
  <anchor x="0" y="0" name="_bottom"/>
  <outline>
    <contour>
      <point x="-188" y="-635" type="line"/>
      <point x="188" y="-635" type="line"/>
      <point x="188" y="-536" type="line"/>
      <point x="-188" y="-536" type="line"/>
    </contour>
  </outline>
</glyph>
<glyph name="danda-deva" format="2">
  <advance width="386"/>
  <unicode hex="0964"/>
  <outline>
    <contour>
      <point x="83" y="0" type="line"/>
      <point x="303" y="0" type="line"/>
      <point x="303" y="584" type="line"/>
      <point x="83" y="584" type="line"/>
    </contour>
  </outline>
</glyph>
<glyph name="visarga-tamil" format="2">
  <advance width="971"/>
  <unicode hex="0B83"/>
  <note>
uni0B83
</note>
  <outline>
    <contour>
      <point x="726" y="-5" type="curve" smooth="yes"/>
      <point x="849" y="-5"/>
      <point x="927" y="69"/>
      <point x="927" y="188" type="curve" smooth="yes"/>
      <point x="927" y="307"/>
      <point x="848" y="380"/>
      <point x="732" y="380" type="curve" smooth="yes"/>
      <point x="607" y="380"/>
      <point x="531" y="294"/>
      <point x="531" y="181" type="curve" smooth="yes"/>
      <point x="531" y="77"/>
      <point x="601" y="-5"/>
    </contour>
    <contour>
      <point x="238" y="-5" type="curve" smooth="yes"/>
      <point x="362" y="-5"/>
      <point x="439" y="69"/>
      <point x="439" y="188" type="curve" smooth="yes"/>
      <point x="439" y="307"/>
      <point x="360" y="380"/>
      <point x="245" y="380" type="curve" smooth="yes"/>
      <point x="120" y="380"/>
      <point x="44" y="294"/>
      <point x="44" y="181" type="curve" smooth="yes"/>
      <point x="44" y="77"/>
      <point x="113" y="-5"/>
    </contour>
    <contour>
      <point x="492" y="440" type="curve" smooth="yes"/>
      <point x="615" y="440"/>
      <point x="693" y="514"/>
      <point x="693" y="633" type="curve" smooth="yes"/>
      <point x="693" y="752"/>
      <point x="614" y="825"/>
      <point x="498" y="825" type="curve" smooth="yes"/>
      <point x="373" y="825"/>
      <point x="297" y="740"/>
      <point x="297" y="626" type="curve" smooth="yes"/>
      <point x="297" y="522"/>
      <point x="367" y="440"/>
    </contour>
    <contour>
      <point x="209" y="80" type="curve" smooth="yes"/>
      <point x="150" y="80"/>
      <point x="124" y="134"/>
      <point x="124" y="188" type="curve" smooth="yes"/>
      <point x="124" y="246"/>
      <point x="153" y="295"/>
      <point x="209" y="295" type="curve" smooth="yes"/>
      <point x="261" y="295"/>
      <point x="286" y="258"/>
      <point x="286" y="188" type="curve" smooth="yes"/>
      <point x="286" y="123"/>
      <point x="255" y="80"/>
    </contour>
    <contour>
      <point x="462" y="525" type="curve" smooth="yes"/>
      <point x="404" y="525"/>
      <point x="377" y="580"/>
      <point x="377" y="633" type="curve" smooth="yes"/>
      <point x="377" y="691"/>
      <point x="406" y="740"/>
      <point x="462" y="740" type="curve" smooth="yes"/>
      <point x="514" y="740"/>
      <point x="539" y="703"/>
      <point x="539" y="633" type="curve" smooth="yes"/>
      <point x="539" y="568"/>
      <point x="508" y="525"/>
    </contour>
    <contour>
      <point x="696" y="80" type="curve" smooth="yes"/>
      <point x="638" y="80"/>
      <point x="611" y="134"/>
      <point x="611" y="188" type="curve" smooth="yes"/>
      <point x="611" y="246"/>
      <point x="640" y="295"/>
      <point x="696" y="295" type="curve" smooth="yes"/>
      <point x="748" y="295"/>
      <point x="773" y="258"/>
      <point x="773" y="188" type="curve" smooth="yes"/>
      <point x="773" y="123"/>
      <point x="742" y="80"/>
    </contour>
  </outline>
</glyph>
<glyph name="a-tamil" format="2">
  <advance width="1500"/>
  <unicode hex="0B85"/>
  <note>
uni0B85
</note>
  <anchor x="702" y="0" name="bottom"/>
  <anchor x="489" y="-191" name="nukta"/>
  <anchor x="708" y="584" name="top"/>
  <anchor x="708" y="584" name="vedic"/>
  <outline>
    <contour>
      <point x="1210" y="-266" type="line"/>
      <point x="1427" y="-266" type="line"/>
      <point x="1427" y="584" type="line"/>
      <point x="1210" y="584" type="line"/>
      <point x="1210" y="148" type="line"/>
      <point x="127" y="148" type="line" smooth="yes"/>
      <point x="63" y="148"/>
      <point x="22" y="113"/>
      <point x="22" y="64" type="curve" smooth="yes"/>
      <point x="22" y="-95"/>
      <point x="253" y="-191"/>
      <point x="489" y="-191" type="curve" smooth="yes"/>
      <point x="858" y="-191"/>
      <point x="1102" y="-41"/>
      <point x="1102" y="229" type="curve" smooth="yes"/>
      <point x="1102" y="438"/>
      <point x="951" y="589"/>
      <point x="680" y="589" type="curve" smooth="yes"/>
      <point x="475" y="589"/>
      <point x="398" y="487"/>
      <point x="398" y="381" type="curve" smooth="yes"/>
      <point x="398" y="279"/>
      <point x="479" y="207"/>
      <point x="586" y="207" type="curve" smooth="yes"/>
      <point x="693" y="207"/>
      <point x="779" y="271"/>
      <point x="779" y="373" type="curve" smooth="yes"/>
      <point x="779" y="465"/>
      <point x="722" y="514"/>
      <point x="650" y="554" type="curve"/>
      <point x="548" y="536" type="line"/>
      <point x="624" y="496"/>
      <point x="662" y="450"/>
      <point x="662" y="389" type="curve" smooth="yes"/>
      <point x="662" y="346"/>
      <point x="632" y="300"/>
      <point x="572" y="300" type="curve" smooth="yes"/>
      <point x="526" y="300"/>
      <point x="489" y="328"/>
      <point x="489" y="392" type="curve" smooth="yes"/>
      <point x="489" y="453"/>
      <point x="538" y="514"/>
      <point x="659" y="514" type="curve" smooth="yes"/>
      <point x="792" y="514"/>
      <point x="899" y="440"/>
      <point x="899" y="244" type="curve" smooth="yes"/>
      <point x="899" y="-28"/>
      <point x="697" y="-116"/>
      <point x="459" y="-116" type="curve" smooth="yes"/>
      <point x="284" y="-116"/>
      <point x="117" y="-37"/>
      <point x="117" y="44" type="curve" smooth="yes"/>
      <point x="117" y="63"/>
      <point x="128" y="71"/>
      <point x="155" y="71" type="curve" smooth="yes"/>
      <point x="1210" y="71" type="line"/>
    </contour>
  </outline>
</glyph>
<glyph name="aa-tamil" format="2">
  <advance width="1806"/>
  <unicode hex="0B86"/>
  <note>
uni0B86
</note>
  <anchor x="863" y="0" name="bottom"/>
  <anchor x="489" y="-191" name="nukta"/>
  <anchor x="870" y="584" name="top"/>
  <anchor x="869" y="584" name="vedic"/>
  <outline>
    <contour>
      <point x="1202" y="-492" type="curve" smooth="yes"/>
      <point x="1501" y="-492"/>
      <point x="1781" y="-369"/>
      <point x="1781" y="-85" type="curve" smooth="yes"/>
      <point x="1781" y="50"/>
      <point x="1700" y="116"/>
      <point x="1598" y="116" type="curve" smooth="yes"/>
      <point x="1464" y="116"/>
      <point x="1391" y="30"/>
      <point x="1376" y="-135" type="curve"/>
      <point x="1426" y="-142" type="line"/>
      <point x="1424" y="-71"/>
      <point x="1455" y="-27"/>
      <point x="1502" y="-27" type="curve" smooth="yes"/>
      <point x="1545" y="-27"/>
      <point x="1568" y="-59"/>
      <point x="1568" y="-108" type="curve" smooth="yes"/>
      <point x="1568" y="-301"/>
      <point x="1412" y="-413"/>
      <point x="1189" y="-413" type="curve" smooth="yes"/>
      <point x="1076" y="-413"/>
      <point x="977" y="-379"/>
      <point x="977" y="-311" type="curve" smooth="yes"/>
      <point x="977" y="-265"/>
      <point x="1005" y="-232"/>
      <point x="1079" y="-217" type="curve"/>
      <point x="1064" y="-146" type="line"/>
      <point x="938" y="-172"/>
      <point x="891" y="-227"/>
      <point x="891" y="-310" type="curve" smooth="yes"/>
      <point x="891" y="-423"/>
      <point x="1011" y="-492"/>
    </contour>
    <component base="a-tamil"/>
  </outline>
</glyph>
<glyph name="i-tamil" format="2">
  <advance width="1164"/>
  <unicode hex="0B87"/>
  <note>
uni0B87
</note>
  <anchor x="549" y="0" name="bottom"/>
  <anchor x="547" y="-308" name="nukta"/>
  <anchor x="566" y="875" name="top"/>
  <anchor x="555" y="584" name="vedic"/>
  <outline>
    <contour>
      <point x="257" y="-336" type="curve" smooth="yes"/>
      <point x="643" y="-336"/>
      <point x="936" y="-41"/>
      <point x="936" y="222" type="curve" smooth="yes"/>
      <point x="936" y="418"/>
      <point x="807" y="589"/>
      <point x="555" y="589" type="curve" smooth="yes"/>
      <point x="355" y="589"/>
      <point x="280" y="487"/>
      <point x="280" y="381" type="curve" smooth="yes"/>
      <point x="280" y="279"/>
      <point x="362" y="207"/>
      <point x="469" y="207" type="curve" smooth="yes"/>
      <point x="575" y="207"/>
      <point x="662" y="271"/>
      <point x="662" y="373" type="curve" smooth="yes"/>
      <point x="662" y="465"/>
      <point x="604" y="514"/>
      <point x="532" y="554" type="curve"/>
      <point x="430" y="536" type="line"/>
      <point x="506" y="496"/>
      <point x="544" y="450"/>
      <point x="544" y="389" type="curve" smooth="yes"/>
      <point x="544" y="346"/>
      <point x="515" y="300"/>
      <point x="454" y="300" type="curve" smooth="yes"/>
      <point x="409" y="300"/>
      <point x="372" y="328"/>
      <point x="372" y="392" type="curve" smooth="yes"/>
      <point x="372" y="453"/>
      <point x="418" y="514"/>
      <point x="535" y="514" type="curve" smooth="yes"/>
      <point x="683" y="514"/>
      <point x="739" y="418"/>
      <point x="739" y="226" type="curve" smooth="yes"/>
      <point x="739" y="30"/>
      <point x="623" y="-251"/>
      <point x="258" y="-251" type="curve" smooth="yes"/>
      <point x="166" y="-251"/>
      <point x="124" y="-215"/>
      <point x="124" y="-147" type="curve" smooth="yes"/>
      <point x="124" y="-32"/>
      <point x="357" y="36"/>
      <point x="548" y="36" type="curve" smooth="yes"/>
      <point x="747" y="36"/>
      <point x="1006" y="-16"/>
      <point x="1006" y="-160" type="curve" smooth="yes"/>
      <point x="1006" y="-217"/>
      <point x="960" y="-251"/>
      <point x="873" y="-251" type="curve" smooth="yes"/>
      <point x="527" y="-251"/>
      <point x="142" y="42"/>
      <point x="142" y="351" type="curve" smooth="yes"/>
      <point x="142" y="580"/>
      <point x="314" y="718"/>
      <point x="567" y="718" type="curve" smooth="yes"/>
      <point x="832" y="718"/>
      <point x="1036" y="591"/>
      <point x="1036" y="338" type="curve" smooth="yes"/>
      <point x="1036" y="102" type="line"/>
      <point x="1122" y="102" type="line"/>
      <point x="1122" y="348" type="line" smooth="yes"/>
      <point x="1122" y="717"/>
      <point x="895" y="875"/>
      <point x="566" y="875" type="curve" smooth="yes"/>
      <point x="249" y="875"/>
      <point x="45" y="659"/>
      <point x="45" y="393" type="curve" smooth="yes"/>
      <point x="45" y="-4"/>
      <point x="544" y="-336"/>
      <point x="877" y="-336" type="curve" smooth="yes"/>
      <point x="1018" y="-336"/>
      <point x="1105" y="-274"/>
      <point x="1105" y="-178" type="curve" smooth="yes"/>
      <point x="1105" y="37"/>
      <point x="806" y="105"/>
      <point x="547" y="105" type="curve" smooth="yes"/>
      <point x="304" y="105"/>
      <point x="29" y="8"/>
      <point x="29" y="-155" type="curve" smooth="yes"/>
      <point x="29" y="-271"/>
      <point x="113" y="-336"/>
    </contour>
  </outline>
</glyph>
<glyph name="ii-tamil" format="2">
  <advance width="954"/>
  <unicode hex="0B88"/>
  <note>
uni0B88
</note>
  <anchor x="482" y="0" name="bottom"/>
  <anchor x="483" y="0" name="nukta"/>
  <anchor x="486" y="584" name="top"/>
  <anchor x="485" y="584" name="vedic"/>
  <outline>
    <contour>
      <point x="73" y="0" type="line"/>
      <point x="157" y="0" type="line"/>
      <point x="157" y="509" type="line"/>
      <point x="441" y="509" type="line"/>
      <point x="441" y="0" type="line"/>
      <point x="659" y="0" type="line"/>
      <point x="659" y="509" type="line"/>
      <point x="898" y="509" type="line"/>
      <point x="898" y="584" type="line"/>
      <point x="73" y="584" type="line"/>
    </contour>
    <contour>
      <point x="300" y="192" type="curve" smooth="yes"/>
      <point x="347" y="192"/>
      <point x="387" y="232"/>
      <point x="387" y="278" type="curve" smooth="yes"/>
      <point x="387" y="325"/>
      <point x="348" y="364"/>
      <point x="300" y="364" type="curve" smooth="yes"/>
      <point x="252" y="364"/>
      <point x="213" y="325"/>
      <point x="213" y="278" type="curve" smooth="yes"/>
      <point x="213" y="232"/>
      <point x="252" y="192"/>
    </contour>
    <contour>
      <point x="796" y="192" type="curve" smooth="yes"/>
      <point x="844" y="192"/>
      <point x="884" y="232"/>
      <point x="884" y="278" type="curve" smooth="yes"/>
      <point x="884" y="325"/>
      <point x="844" y="364"/>
      <point x="797" y="364" type="curve" smooth="yes"/>
      <point x="749" y="364"/>
      <point x="709" y="325"/>
      <point x="709" y="278" type="curve" smooth="yes"/>
      <point x="709" y="232"/>
      <point x="749" y="192"/>
    </contour>
  </outline>
</glyph>
<glyph name="u-tamil" format="2">
  <advance width="1050"/>
  <unicode hex="0B89"/>
  <note>
uni0B89
</note>
  <anchor x="517" y="0" name="bottom"/>
  <anchor x="517" y="0" name="nukta"/>
  <anchor x="521" y="584" name="top"/>
  <anchor x="520" y="584" name="vedic"/>
  <outline>
    <contour>
      <point x="145" y="0" type="curve" smooth="yes"/>
      <point x="1045" y="0" type="line"/>
      <point x="1045" y="75" type="line"/>
      <point x="139" y="75" type="line" smooth="yes"/>
      <point x="123" y="75"/>
      <point x="109" y="83"/>
      <point x="109" y="102" type="curve" smooth="yes"/>
      <point x="109" y="121"/>
      <point x="123" y="130"/>
      <point x="139" y="130" type="curve" smooth="yes"/>
      <point x="435" y="130" type="line" smooth="yes"/>
      <point x="642" y="130"/>
      <point x="775" y="181"/>
      <point x="775" y="336" type="curve" smooth="yes"/>
      <point x="775" y="479"/>
      <point x="653" y="589"/>
      <point x="407" y="589" type="curve" smooth="yes"/>
      <point x="209" y="589"/>
      <point x="108" y="505"/>
      <point x="108" y="397" type="curve" smooth="yes"/>
      <point x="108" y="296"/>
      <point x="187" y="243"/>
      <point x="288" y="243" type="curve" smooth="yes"/>
      <point x="380" y="243"/>
      <point x="464" y="290"/>
      <point x="464" y="380" type="curve" smooth="yes"/>
      <point x="464" y="467"/>
      <point x="409" y="513"/>
      <point x="314" y="550" type="curve"/>
      <point x="231" y="544" type="line"/>
      <point x="315" y="502"/>
      <point x="349" y="469"/>
      <point x="349" y="411" type="curve" smooth="yes"/>
      <point x="349" y="362"/>
      <point x="316" y="337"/>
      <point x="270" y="337" type="curve" smooth="yes"/>
      <point x="232" y="337"/>
      <point x="197" y="361"/>
      <point x="197" y="408" type="curve" smooth="yes"/>
      <point x="197" y="474"/>
      <point x="257" y="515"/>
      <point x="357" y="515" type="curve" smooth="yes"/>
      <point x="486" y="515"/>
      <point x="573" y="460"/>
      <point x="573" y="349" type="curve" smooth="yes"/>
      <point x="573" y="251"/>
      <point x="515" y="200"/>
      <point x="405" y="200" type="curve" smooth="yes"/>
      <point x="145" y="200" type="line" smooth="yes"/>
      <point x="71" y="200"/>
      <point x="29" y="162"/>
      <point x="29" y="101" type="curve" smooth="yes"/>
      <point x="29" y="39"/>
      <point x="71" y="0"/>
    </contour>
  </outline>
</glyph>
<glyph name="uu-tamil" format="2">
  <advance width="2034"/>
  <unicode hex="0B8A"/>
  <note>
uni0B8A
</note>
  <anchor x="1004" y="0" name="bottom"/>
  <anchor x="1004" y="0" name="nukta"/>
  <anchor x="1006" y="584" name="top"/>
  <anchor x="1007" y="584" name="vedic"/>
  <outline>
    <contour>
      <point x="145" y="0" type="curve" smooth="yes"/>
      <point x="1966" y="0" type="line"/>
      <point x="1966" y="75" type="line"/>
      <point x="139" y="75" type="line" smooth="yes"/>
      <point x="123" y="75"/>
      <point x="109" y="83"/>
      <point x="109" y="102" type="curve" smooth="yes"/>
      <point x="109" y="121"/>
      <point x="123" y="130"/>
      <point x="139" y="130" type="curve" smooth="yes"/>
      <point x="435" y="130" type="line" smooth="yes"/>
      <point x="642" y="130"/>
      <point x="775" y="181"/>
      <point x="775" y="336" type="curve" smooth="yes"/>
      <point x="775" y="479"/>
      <point x="653" y="589"/>
      <point x="407" y="589" type="curve" smooth="yes"/>
      <point x="209" y="589"/>
      <point x="108" y="505"/>
      <point x="108" y="397" type="curve" smooth="yes"/>
      <point x="108" y="296"/>
      <point x="187" y="243"/>
      <point x="288" y="243" type="curve" smooth="yes"/>
      <point x="380" y="243"/>
      <point x="464" y="290"/>
      <point x="464" y="380" type="curve" smooth="yes"/>
      <point x="464" y="467"/>
      <point x="409" y="513"/>
      <point x="314" y="550" type="curve"/>
      <point x="231" y="544" type="line"/>
      <point x="315" y="502"/>
      <point x="349" y="469"/>
      <point x="349" y="411" type="curve" smooth="yes"/>
      <point x="349" y="362"/>
      <point x="316" y="337"/>
      <point x="270" y="337" type="curve" smooth="yes"/>
      <point x="232" y="337"/>
      <point x="197" y="361"/>
      <point x="197" y="408" type="curve" smooth="yes"/>
      <point x="197" y="474"/>
      <point x="257" y="515"/>
      <point x="357" y="515" type="curve" smooth="yes"/>
      <point x="486" y="515"/>
      <point x="573" y="460"/>
      <point x="573" y="349" type="curve" smooth="yes"/>
      <point x="573" y="251"/>
      <point x="515" y="200"/>
      <point x="405" y="200" type="curve" smooth="yes"/>
      <point x="145" y="200" type="line" smooth="yes"/>
      <point x="71" y="200"/>
      <point x="29" y="162"/>
      <point x="29" y="101" type="curve" smooth="yes"/>
      <point x="29" y="39"/>
      <point x="71" y="0"/>
    </contour>
    <contour>
      <point x="1080" y="123" type="curve" smooth="yes"/>
      <point x="1186" y="123"/>
      <point x="1276" y="171"/>
      <point x="1276" y="273" type="curve" smooth="yes"/>
      <point x="1276" y="370"/>
      <point x="1202" y="417"/>
      <point x="1120" y="417" type="curve" smooth="yes"/>
      <point x="1000" y="417"/>
      <point x="926" y="327"/>
      <point x="927" y="230" type="curve"/>
      <point x="978" y="207" type="line"/>
      <point x="979" y="279"/>
      <point x="1024" y="337"/>
      <point x="1075" y="337" type="curve" smooth="yes"/>
      <point x="1118" y="337"/>
      <point x="1142" y="311"/>
      <point x="1142" y="269" type="curve" smooth="yes"/>
      <point x="1142" y="227"/>
      <point x="1108" y="200"/>
      <point x="1060" y="200" type="curve" smooth="yes"/>
      <point x="1003" y="200"/>
      <point x="927" y="237"/>
      <point x="927" y="345" type="curve" smooth="yes"/>
      <point x="927" y="443"/>
      <point x="1002" y="515"/>
      <point x="1123" y="515" type="curve" smooth="yes"/>
      <point x="1270" y="515"/>
      <point x="1345" y="412"/>
      <point x="1345" y="321" type="curve"/>
      <point x="1428" y="321" type="line"/>
      <point x="1411" y="518"/>
      <point x="1268" y="589"/>
      <point x="1125" y="589" type="curve" smooth="yes"/>
      <point x="962" y="589"/>
      <point x="842" y="483"/>
      <point x="842" y="343" type="curve" smooth="yes"/>
      <point x="842" y="201"/>
      <point x="955" y="123"/>
    </contour>
    <contour>
      <point x="1345" y="125" type="line"/>
      <point x="1532" y="125" type="line"/>
      <point x="1532" y="518" type="line"/>
      <point x="1671" y="518" type="line"/>
      <point x="1671" y="125" type="line"/>
      <point x="1858" y="125" type="line"/>
      <point x="1858" y="518" type="line"/>
      <point x="1964" y="518" type="line"/>
      <point x="1964" y="584" type="line"/>
      <point x="1392" y="584" type="line"/>
      <point x="1392" y="374" type="line"/>
      <point x="1345" y="374" type="line"/>
    </contour>
  </outline>
</glyph>
<glyph name="ee-tamil" format="2">
  <advance width="1071"/>
  <unicode hex="0B8F"/>
  <note>
uni0B8F
</note>
  <anchor x="555" y="0" name="bottom"/>
  <anchor x="555" y="-244" name="nukta"/>
  <anchor x="557" y="584" name="top"/>
  <anchor x="558" y="584" name="vedic"/>
  <outline>
    <contour>
      <point x="479" y="-296" type="line"/>
      <point x="921" y="12" type="line"/>
      <point x="921" y="509" type="line"/>
      <point x="1059" y="509" type="line"/>
      <point x="1059" y="584" type="line"/>
      <point x="478" y="584" type="line" smooth="yes"/>
      <point x="205" y="584"/>
      <point x="49" y="479"/>
      <point x="49" y="259" type="curve" smooth="yes"/>
      <point x="49" y="116"/>
      <point x="155" y="-5"/>
      <point x="311" y="-5" type="curve" smooth="yes"/>
      <point x="461" y="-5"/>
      <point x="546" y="63"/>
      <point x="546" y="184" type="curve" smooth="yes"/>
      <point x="546" y="279"/>
      <point x="479" y="354"/>
      <point x="364" y="354" type="curve" smooth="yes"/>
      <point x="212" y="354"/>
      <point x="137" y="234"/>
      <point x="140" y="123" type="curve"/>
      <point x="194" y="92" type="line"/>
      <point x="199" y="169"/>
      <point x="234" y="230"/>
      <point x="294" y="230" type="curve" smooth="yes"/>
      <point x="325" y="230"/>
      <point x="359" y="210"/>
      <point x="359" y="166" type="curve" smooth="yes"/>
      <point x="359" y="118"/>
      <point x="326" y="88"/>
      <point x="270" y="88" type="curve" smooth="yes"/>
      <point x="208" y="88"/>
      <point x="131" y="147"/>
      <point x="131" y="258" type="curve" smooth="yes"/>
      <point x="131" y="439"/>
      <point x="250" y="509"/>
      <point x="494" y="509" type="curve" smooth="yes"/>
      <point x="693" y="509" type="line"/>
      <point x="693" y="-40" type="line"/>
      <point x="429" y="-226" type="line"/>
    </contour>
  </outline>
</glyph>
<glyph name="o-tamil" format="2">
  <advance width="1197"/>
  <unicode hex="0B92"/>
  <note>
uni0B92
</note>
  <anchor x="580" y="0" name="bottom"/>
  <anchor x="578" y="-335" name="nukta"/>
  <anchor x="573" y="584" name="top"/>
  <anchor x="573" y="584" name="vedic"/>
  <outline>
    <contour>
      <point x="438" y="-392" type="curve" smooth="yes"/>
      <point x="704" y="-392"/>
      <point x="730" y="-162"/>
      <point x="924" y="-162" type="curve" smooth="yes"/>
      <point x="1003" y="-162" type="line"/>
      <point x="1003" y="-84" type="line"/>
      <point x="894" y="-84" type="line" smooth="yes"/>
      <point x="751" y="-84"/>
      <point x="668" y="0"/>
      <point x="668" y="103" type="curve" smooth="yes"/>
      <point x="668" y="148"/>
      <point x="684" y="198"/>
      <point x="719" y="245" type="curve"/>
      <point x="725" y="241" type="line"/>
      <point x="717" y="215"/>
      <point x="713" y="189"/>
      <point x="713" y="164" type="curve" smooth="yes"/>
      <point x="713" y="74"/>
      <point x="768" y="-2"/>
      <point x="908" y="-2" type="curve" smooth="yes"/>
      <point x="1051" y="-2"/>
      <point x="1148" y="75"/>
      <point x="1148" y="217" type="curve" smooth="yes"/>
      <point x="1148" y="467"/>
      <point x="882" y="591"/>
      <point x="552" y="591" type="curve" smooth="yes"/>
      <point x="252" y="591"/>
      <point x="49" y="450"/>
      <point x="49" y="250" type="curve" smooth="yes"/>
      <point x="49" y="105"/>
      <point x="150" y="-2"/>
      <point x="314" y="-2" type="curve" smooth="yes"/>
      <point x="469" y="-2"/>
      <point x="544" y="82"/>
      <point x="544" y="188" type="curve" smooth="yes"/>
      <point x="544" y="290"/>
      <point x="474" y="357"/>
      <point x="363" y="357" type="curve" smooth="yes"/>
      <point x="216" y="357"/>
      <point x="142" y="234"/>
      <point x="136" y="126" type="curve"/>
      <point x="190" y="96" type="line"/>
      <point x="195" y="170"/>
      <point x="235" y="232"/>
      <point x="295" y="232" type="curve" smooth="yes"/>
      <point x="329" y="232"/>
      <point x="361" y="209"/>
      <point x="361" y="166" type="curve" smooth="yes"/>
      <point x="361" y="118"/>
      <point x="331" y="90"/>
      <point x="276" y="90" type="curve" smooth="yes"/>
      <point x="211" y="90"/>
      <point x="130" y="147"/>
      <point x="130" y="247" type="curve" smooth="yes"/>
      <point x="130" y="424"/>
      <point x="324" y="515"/>
      <point x="552" y="515" type="curve" smooth="yes"/>
      <point x="750" y="515"/>
      <point x="939" y="424"/>
      <point x="939" y="237" type="curve" smooth="yes"/>
      <point x="939" y="133"/>
      <point x="897" y="98"/>
      <point x="846" y="98" type="curve" smooth="yes"/>
      <point x="806" y="98"/>
      <point x="781" y="137"/>
      <point x="781" y="189" type="curve" smooth="yes"/>
      <point x="781" y="222"/>
      <point x="790" y="260"/>
      <point x="812" y="298" type="curve"/>
      <point x="725" y="356" type="line"/>
      <point x="632" y="273"/>
      <point x="591" y="183"/>
      <point x="591" y="103" type="curve" smooth="yes"/>
      <point x="591" y="11"/>
      <point x="645" y="-68"/>
      <point x="737" y="-107" type="curve"/>
      <point x="737" y="-112" type="line"/>
      <point x="559" y="-137"/>
      <point x="521" y="-306"/>
      <point x="380" y="-306" type="curve" smooth="yes"/>
      <point x="316" y="-306"/>
      <point x="275" y="-271"/>
      <point x="275" y="-214" type="curve" smooth="yes"/>
      <point x="275" y="-176"/>
      <point x="295" y="-147"/>
      <point x="343" y="-117" type="curve"/>
      <point x="303" y="-61" type="line"/>
      <point x="235" y="-105"/>
      <point x="200" y="-153"/>
      <point x="200" y="-212" type="curve" smooth="yes"/>
      <point x="200" y="-316"/>
      <point x="282" y="-392"/>
    </contour>
  </outline>
</glyph>
<glyph name="oo-tamil" format="2">
  <advance width="1197"/>
  <unicode hex="0B93"/>
  <note>
uni0B93
</note>
  <anchor x="595" y="0" name="bottom"/>
  <anchor x="593" y="-391" name="nukta"/>
  <anchor x="588" y="584" name="top"/>
  <anchor x="588" y="584" name="vedic"/>
  <outline>
    <contour>
      <point x="400" y="-436" type="curve" smooth="yes"/>
      <point x="731" y="-436"/>
      <point x="745" y="-169"/>
      <point x="939" y="-166" type="curve" smooth="yes"/>
      <point x="1003" y="-165" type="line"/>
      <point x="1003" y="-87" type="line"/>
      <point x="894" y="-87" type="line" smooth="yes"/>
      <point x="751" y="-87"/>
      <point x="668" y="-3"/>
      <point x="668" y="100" type="curve" smooth="yes"/>
      <point x="668" y="145"/>
      <point x="684" y="195"/>
      <point x="719" y="242" type="curve"/>
      <point x="725" y="238" type="line"/>
      <point x="717" y="212"/>
      <point x="713" y="186"/>
      <point x="713" y="161" type="curve" smooth="yes"/>
      <point x="713" y="71"/>
      <point x="768" y="-5"/>
      <point x="908" y="-5" type="curve" smooth="yes"/>
      <point x="1051" y="-5"/>
      <point x="1148" y="72"/>
      <point x="1148" y="214" type="curve" smooth="yes"/>
      <point x="1148" y="464"/>
      <point x="882" y="589"/>
      <point x="552" y="589" type="curve" smooth="yes"/>
      <point x="252" y="589"/>
      <point x="49" y="447"/>
      <point x="49" y="248" type="curve" smooth="yes"/>
      <point x="49" y="103"/>
      <point x="150" y="-5"/>
      <point x="314" y="-5" type="curve" smooth="yes"/>
      <point x="469" y="-5"/>
      <point x="544" y="80"/>
      <point x="544" y="185" type="curve" smooth="yes"/>
      <point x="544" y="287"/>
      <point x="474" y="354"/>
      <point x="363" y="354" type="curve" smooth="yes"/>
      <point x="216" y="354"/>
      <point x="142" y="232"/>
      <point x="136" y="124" type="curve"/>
      <point x="190" y="93" type="line"/>
      <point x="195" y="167"/>
      <point x="235" y="230"/>
      <point x="295" y="230" type="curve" smooth="yes"/>
      <point x="329" y="230"/>
      <point x="361" y="207"/>
      <point x="361" y="163" type="curve" smooth="yes"/>
      <point x="361" y="116"/>
      <point x="331" y="88"/>
      <point x="276" y="88" type="curve" smooth="yes"/>
      <point x="211" y="88"/>
      <point x="130" y="145"/>
      <point x="130" y="244" type="curve" smooth="yes"/>
      <point x="130" y="421"/>
      <point x="324" y="513"/>
      <point x="552" y="513" type="curve" smooth="yes"/>
      <point x="750" y="513"/>
      <point x="939" y="422"/>
      <point x="939" y="234" type="curve" smooth="yes"/>
      <point x="939" y="131"/>
      <point x="897" y="96"/>
      <point x="846" y="96" type="curve" smooth="yes"/>
      <point x="806" y="96"/>
      <point x="781" y="135"/>
      <point x="781" y="187" type="curve" smooth="yes"/>
      <point x="781" y="220"/>
      <point x="790" y="258"/>
      <point x="812" y="295" type="curve"/>
      <point x="725" y="354" type="line"/>
      <point x="632" y="272"/>
      <point x="591" y="182"/>
      <point x="591" y="101" type="curve" smooth="yes"/>
      <point x="591" y="8"/>
      <point x="646" y="-72"/>
      <point x="741" y="-111" type="curve"/>
      <point x="741" y="-116" type="line"/>
      <point x="603" y="-133"/>
      <point x="536" y="-350"/>
      <point x="354" y="-350" type="curve" smooth="yes"/>
      <point x="265" y="-350"/>
      <point x="219" y="-306"/>
      <point x="219" y="-245" type="curve" smooth="yes"/>
      <point x="219" y="-193"/>
      <point x="254" y="-161"/>
      <point x="297" y="-161" type="curve" smooth="yes"/>
      <point x="348" y="-161"/>
      <point x="388" y="-198"/>
      <point x="398" y="-258" type="curve"/>
      <point x="437" y="-242"/>
      <point x="480" y="-211"/>
      <point x="480" y="-153" type="curve" smooth="yes"/>
      <point x="480" y="-89"/>
      <point x="412" y="-53"/>
      <point x="342" y="-53" type="curve" smooth="yes"/>
      <point x="217" y="-53"/>
      <point x="145" y="-140"/>
      <point x="145" y="-232" type="curve" smooth="yes"/>
      <point x="145" y="-368"/>
      <point x="251" y="-436"/>
    </contour>
  </outline>
</glyph>
<glyph name="au-tamil" format="2">
  <advance width="2638"/>
  <unicode hex="0B94"/>
  <note>
uni0B94
</note>
  <anchor x="1320" y="0" name="bottom"/>
  <anchor x="1424" y="0" name="nukta"/>
  <anchor x="1313" y="584" name="top"/>
  <anchor x="1313" y="584" name="vedic"/>
  <outline>
    <contour>
      <point x="1479" y="-5" type="curve" smooth="yes"/>
      <point x="1629" y="-5"/>
      <point x="1715" y="63"/>
      <point x="1715" y="184" type="curve" smooth="yes"/>
      <point x="1715" y="279"/>
      <point x="1647" y="354"/>
      <point x="1532" y="354" type="curve" smooth="yes"/>
      <point x="1381" y="354"/>
      <point x="1306" y="234"/>
      <point x="1309" y="123" type="curve"/>
      <point x="1363" y="92" type="line"/>
      <point x="1368" y="169"/>
      <point x="1402" y="230"/>
      <point x="1462" y="230" type="curve" smooth="yes"/>
      <point x="1494" y="230"/>
      <point x="1527" y="210"/>
      <point x="1527" y="166" type="curve" smooth="yes"/>
      <point x="1527" y="118"/>
      <point x="1495" y="88"/>
      <point x="1438" y="88" type="curve" smooth="yes"/>
      <point x="1377" y="88"/>
      <point x="1299" y="147"/>
      <point x="1299" y="258" type="curve" smooth="yes"/>
      <point x="1299" y="413"/>
      <point x="1417" y="505"/>
      <point x="1572" y="505" type="curve" smooth="yes"/>
      <point x="1748" y="505"/>
      <point x="1854" y="410"/>
      <point x="1854" y="276" type="curve"/>
      <point x="1943" y="294" type="line"/>
      <point x="1927" y="505"/>
      <point x="1752" y="588"/>
      <point x="1582" y="588" type="curve" smooth="yes"/>
      <point x="1350" y="588"/>
      <point x="1217" y="455"/>
      <point x="1217" y="259" type="curve" smooth="yes"/>
      <point x="1217" y="116"/>
      <point x="1324" y="-5"/>
    </contour>
    <contour>
      <point x="1854" y="0" type="line"/>
      <point x="2079" y="0" type="line"/>
      <point x="2079" y="509" type="line"/>
      <point x="2258" y="509" type="line"/>
      <point x="2258" y="0" type="line"/>
      <point x="2483" y="0" type="line"/>
      <point x="2483" y="509" type="line"/>
      <point x="2626" y="509" type="line"/>
      <point x="2626" y="584" type="line"/>
      <point x="1911" y="584" type="line"/>
      <point x="1911" y="320" type="line"/>
      <point x="1854" y="343" type="line"/>
    </contour>
    <component base="o-tamil"/>
  </outline>
</glyph>
<glyph name="ka-tamil" format="2">
  <advance width="994"/>
  <unicode hex="0B95"/>
  <note>
uni0B95
</note>
  <anchor x="479" y="0" name="bottom"/>
  <anchor x="685" y="584" name="imatra"/>
  <anchor x="479" y="0" name="nukta"/>
  <anchor x="515" y="584" name="top"/>
  <anchor x="500" y="584" name="vedic"/>
  <outline>
    <contour>
      <point x="305" y="-4" type="curve" smooth="yes"/>
      <point x="505" y="-4"/>
      <point x="610" y="103"/>
      <point x="610" y="240" type="curve" smooth="yes"/>
      <point x="610" y="272" type="line"/>
      <point x="639" y="272" type="line" smooth="yes"/>
      <point x="705" y="272"/>
      <point x="739" y="241"/>
      <point x="739" y="169" type="curve" smooth="yes"/>
      <point x="739" y="97"/>
      <point x="694" y="72"/>
      <point x="648" y="72" type="curve" smooth="yes"/>
      <point x="631" y="72" type="line"/>
      <point x="631" y="-4" type="line"/>
      <point x="707" y="-4" type="line" smooth="yes"/>
      <point x="839" y="-4"/>
      <point x="945" y="46"/>
      <point x="945" y="173" type="curve" smooth="yes"/>
      <point x="945" y="305"/>
      <point x="820" y="348"/>
      <point x="652" y="348" type="curve" smooth="yes"/>
      <point x="610" y="348" type="line"/>
      <point x="610" y="508" type="line"/>
      <point x="767" y="508" type="line"/>
      <point x="767" y="584" type="line"/>
      <point x="168" y="584" type="line"/>
      <point x="168" y="310" type="line"/>
      <point x="253" y="310" type="line"/>
      <point x="253" y="508" type="line"/>
      <point x="391" y="508" type="line"/>
      <point x="391" y="348" type="line"/>
      <point x="256" y="348" type="line" smooth="yes"/>
      <point x="147" y="348"/>
      <point x="54" y="283"/>
      <point x="54" y="184" type="curve" smooth="yes"/>
      <point x="54" y="78"/>
      <point x="129" y="-4"/>
    </contour>
    <contour>
      <point x="250" y="83" type="curve" smooth="yes"/>
      <point x="182" y="83"/>
      <point x="133" y="117"/>
      <point x="133" y="180" type="curve" smooth="yes"/>
      <point x="133" y="235"/>
      <point x="173" y="272"/>
      <point x="255" y="272" type="curve" smooth="yes"/>
      <point x="391" y="272" type="line"/>
      <point x="391" y="229" type="line" smooth="yes"/>
      <point x="391" y="129"/>
      <point x="338" y="83"/>
    </contour>
  </outline>
</glyph>
<glyph name="ca-tamil" format="2">
  <advance width="817"/>
  <unicode hex="0B9A"/>
  <note>
uni0B9A
</note>
  <anchor x="416" y="0" name="bottom"/>
  <anchor x="620" y="584" name="imatra"/>
  <anchor x="420" y="0" name="nukta"/>
  <anchor x="485" y="584" name="top"/>
  <anchor x="458" y="584" name="vedic"/>
  <outline>
    <contour>
      <point x="304" y="-4" type="curve" smooth="yes"/>
      <point x="513" y="-4"/>
      <point x="610" y="111"/>
      <point x="610" y="248" type="curve" smooth="yes"/>
      <point x="610" y="272" type="line"/>
      <point x="764" y="272" type="line"/>
      <point x="764" y="348" type="line"/>
      <point x="610" y="348" type="line"/>
      <point x="610" y="508" type="line"/>
      <point x="764" y="508" type="line"/>
      <point x="764" y="584" type="line"/>
      <point x="168" y="584" type="line"/>
      <point x="168" y="298" type="line"/>
      <point x="253" y="298" type="line"/>
      <point x="253" y="508" type="line"/>
      <point x="391" y="508" type="line"/>
      <point x="391" y="348" type="line"/>
      <point x="259" y="348" type="line" smooth="yes"/>
      <point x="146" y="348"/>
      <point x="54" y="287"/>
      <point x="54" y="184" type="curve" smooth="yes"/>
      <point x="54" y="78"/>
      <point x="127" y="-4"/>
    </contour>
    <contour>
      <point x="250" y="83" type="curve" smooth="yes"/>
      <point x="182" y="83"/>
      <point x="133" y="117"/>
      <point x="133" y="180" type="curve" smooth="yes"/>
      <point x="133" y="235"/>
      <point x="176" y="272"/>
      <point x="258" y="272" type="curve" smooth="yes"/>
      <point x="391" y="272" type="line"/>
      <point x="391" y="229" type="line" smooth="yes"/>
      <point x="391" y="129"/>
      <point x="338" y="83"/>
    </contour>
  </outline>
</glyph>
<glyph name="ja-tamil" format="2">
  <advance width="1130"/>
  <unicode hex="0B9C"/>
  <note>
uni0B9C
</note>
  <anchor x="575" y="0" name="bottom"/>
  <anchor x="561" y="-335" name="nukta"/>
  <anchor x="575" y="584" name="top"/>
  <anchor x="568" y="584" name="vedic"/>
  <outline>
    <contour>
      <point x="300" y="-335" type="curve" smooth="yes"/>
      <point x="551" y="-335"/>
      <point x="588" y="-34"/>
      <point x="774" y="-34" type="curve" smooth="yes"/>
      <point x="848" y="-34"/>
      <point x="884" y="-78"/>
      <point x="884" y="-139" type="curve" smooth="yes"/>
      <point x="884" y="-209"/>
      <point x="829" y="-247"/>
      <point x="763" y="-247" type="curve" smooth="yes"/>
      <point x="726" y="-247"/>
      <point x="697" y="-236"/>
      <point x="663" y="-216" type="curve"/>
      <point x="627" y="-280" type="line"/>
      <point x="688" y="-320"/>
      <point x="745" y="-335"/>
      <point x="824" y="-335" type="curve" smooth="yes"/>
      <point x="971" y="-335"/>
      <point x="1081" y="-273"/>
      <point x="1081" y="-134" type="curve" smooth="yes"/>
      <point x="1081" y="-18"/>
      <point x="995" y="56"/>
      <point x="859" y="56" type="curve" smooth="yes"/>
      <point x="553" y="56"/>
      <point x="525" y="-238"/>
      <point x="355" y="-238" type="curve" smooth="yes"/>
      <point x="297" y="-238"/>
      <point x="248" y="-197"/>
      <point x="248" y="-125" type="curve" smooth="yes"/>
      <point x="248" y="-15"/>
      <point x="298" y="52"/>
      <point x="602" y="78" type="curve" smooth="yes"/>
      <point x="908" y="104"/>
      <point x="1081" y="167"/>
      <point x="1081" y="360" type="curve" smooth="yes"/>
      <point x="1081" y="501"/>
      <point x="988" y="589"/>
      <point x="816" y="589" type="curve" smooth="yes"/>
      <point x="709" y="589"/>
      <point x="613" y="552"/>
      <point x="582" y="458" type="curve"/>
      <point x="545" y="548"/>
      <point x="457" y="589"/>
      <point x="333" y="589" type="curve" smooth="yes"/>
      <point x="165" y="589"/>
      <point x="54" y="484"/>
      <point x="54" y="343" type="curve" smooth="yes"/>
      <point x="54" y="228"/>
      <point x="140" y="149"/>
      <point x="257" y="149" type="curve" smooth="yes"/>
      <point x="354" y="149"/>
      <point x="432" y="194"/>
      <point x="432" y="285" type="curve" smooth="yes"/>
      <point x="432" y="363"/>
      <point x="375" y="409"/>
      <point x="297" y="409" type="curve" smooth="yes"/>
      <point x="208" y="409"/>
      <point x="136" y="354"/>
      <point x="129" y="226" type="curve"/>
      <point x="178" y="210" type="line"/>
      <point x="188" y="310"/>
      <point x="221" y="328"/>
      <point x="254" y="328" type="curve" smooth="yes"/>
      <point x="277" y="328"/>
      <point x="298" y="312"/>
      <point x="298" y="281" type="curve" smooth="yes"/>
      <point x="298" y="245"/>
      <point x="269" y="229"/>
      <point x="235" y="229" type="curve" smooth="yes"/>
      <point x="185" y="229"/>
      <point x="138" y="272"/>
      <point x="138" y="343" type="curve" smooth="yes"/>
      <point x="138" y="442"/>
      <point x="224" y="510"/>
      <point x="330" y="510" type="curve" smooth="yes"/>
      <point x="434" y="510"/>
      <point x="494" y="461"/>
      <point x="494" y="362" type="curve" smooth="yes"/>
      <point x="494" y="203" type="line"/>
      <point x="665" y="203" type="line"/>
      <point x="665" y="374" type="line" smooth="yes"/>
      <point x="665" y="458"/>
      <point x="705" y="507"/>
      <point x="774" y="507" type="curve" smooth="yes"/>
      <point x="842" y="507"/>
      <point x="881" y="464"/>
      <point x="881" y="368" type="curve" smooth="yes"/>
      <point x="881" y="220"/>
      <point x="821" y="152"/>
      <point x="480" y="124" type="curve" smooth="yes"/>
      <point x="258" y="106"/>
      <point x="49" y="58"/>
      <point x="49" y="-117" type="curve" smooth="yes"/>
      <point x="49" y="-251"/>
      <point x="146" y="-335"/>
    </contour>
  </outline>
</glyph>
<glyph name="nnna-tamil" format="2">
  <advance width="1553"/>
  <unicode hex="0BA9"/>
  <note>
uni0BA9
</note>
  <anchor x="746" y="0" name="bottom"/>
  <anchor x="1368" y="584" name="imatra"/>
  <anchor x="749" y="0" name="nukta"/>
  <anchor x="806" y="584" name="top"/>
  <anchor x="794" y="584" name="vedic"/>
  <outline>
    <contour>
      <point x="311" y="-5" type="curve" smooth="yes"/>
      <point x="461" y="-5"/>
      <point x="546" y="68"/>
      <point x="546" y="189" type="curve" smooth="yes"/>
      <point x="546" y="284"/>
      <point x="479" y="354"/>
      <point x="364" y="354" type="curve" smooth="yes"/>
      <point x="212" y="354"/>
      <point x="137" y="234"/>
      <point x="140" y="123" type="curve"/>
      <point x="194" y="92" type="line"/>
      <point x="199" y="169"/>
      <point x="234" y="230"/>
      <point x="294" y="230" type="curve" smooth="yes"/>
      <point x="325" y="230"/>
      <point x="359" y="210"/>
      <point x="359" y="166" type="curve" smooth="yes"/>
      <point x="359" y="118"/>
      <point x="326" y="88"/>
      <point x="270" y="88" type="curve" smooth="yes"/>
      <point x="208" y="88"/>
      <point x="131" y="147"/>
      <point x="131" y="258" type="curve" smooth="yes"/>
      <point x="131" y="413"/>
      <point x="294" y="510"/>
      <point x="479" y="510" type="curve" smooth="yes"/>
      <point x="676" y="510"/>
      <point x="854" y="402"/>
      <point x="854" y="213" type="curve" smooth="yes"/>
      <point x="854" y="144"/>
      <point x="824" y="94"/>
      <point x="770" y="94" type="curve" smooth="yes"/>
      <point x="722" y="94"/>
      <point x="690" y="142"/>
      <point x="690" y="221" type="curve" smooth="yes"/>
      <point x="690" y="400"/>
      <point x="901" y="509"/>
      <point x="1118" y="509" type="curve" smooth="yes"/>
      <point x="1541" y="509" type="line"/>
      <point x="1541" y="584" type="line"/>
      <point x="1115" y="584" type="line" smooth="yes"/>
      <point x="835" y="584"/>
      <point x="608" y="430"/>
      <point x="608" y="226" type="curve" smooth="yes"/>
      <point x="608" y="99"/>
      <point x="666" y="-4"/>
      <point x="813" y="-4" type="curve" smooth="yes"/>
      <point x="957" y="-4"/>
      <point x="1043" y="93"/>
      <point x="1043" y="231" type="curve" smooth="yes"/>
      <point x="1043" y="477"/>
      <point x="792" y="590"/>
      <point x="504" y="590" type="curve" smooth="yes"/>
      <point x="251" y="590"/>
      <point x="49" y="465"/>
      <point x="49" y="259" type="curve" smooth="yes"/>
      <point x="49" y="116"/>
      <point x="155" y="-5"/>
    </contour>
    <contour>
      <point x="1175" y="0" type="line"/>
      <point x="1402" y="0" type="line"/>
      <point x="1402" y="549" type="line"/>
      <point x="1175" y="549" type="line"/>
    </contour>
  </outline>
</glyph>
<glyph name="ma-tamil" format="2">
  <advance width="1005"/>
  <unicode hex="0BAE"/>
  <note>
uni0BAE
</note>
  <anchor x="487" y="0" name="bottom"/>
  <anchor x="942" y="584" name="imatra"/>
  <anchor x="488" y="0" name="nukta"/>
  <anchor x="496" y="584" name="top"/>
  <anchor x="512" y="584" name="vedic"/>
  <outline>
    <contour>
      <point x="73" y="0" type="line"/>
      <point x="768" y="0" type="line" smooth="yes"/>
      <point x="885" y="0"/>
      <point x="952" y="82"/>
      <point x="952" y="233" type="curve" smooth="yes"/>
      <point x="952" y="458"/>
      <point x="847" y="589"/>
      <point x="680" y="589" type="curve" smooth="yes"/>
      <point x="522" y="589"/>
      <point x="460" y="510"/>
      <point x="460" y="374" type="curve" smooth="yes"/>
      <point x="460" y="75" type="line"/>
      <point x="292" y="75" type="line"/>
      <point x="292" y="584" type="line"/>
      <point x="73" y="584" type="line"/>
    </contour>
    <contour>
      <point x="680" y="75" type="line"/>
      <point x="680" y="385" type="line" smooth="yes"/>
      <point x="680" y="465"/>
      <point x="687" y="499"/>
      <point x="734" y="499" type="curve" smooth="yes"/>
      <point x="797" y="499"/>
      <point x="873" y="417"/>
      <point x="873" y="236" type="curve" smooth="yes"/>
      <point x="873" y="125"/>
      <point x="837" y="75"/>
      <point x="763" y="75" type="curve" smooth="yes"/>
    </contour>
  </outline>
</glyph>
<glyph name="ya-tamil" format="2">
  <advance width="1151"/>
  <unicode hex="0BAF"/>
  <note>
uni0BAF
</note>
  <anchor x="586" y="0" name="bottom"/>
  <anchor x="1068" y="584" name="imatra"/>
  <anchor x="582" y="0" name="nukta"/>
  <anchor x="536" y="584" name="top"/>
  <anchor x="573" y="584" name="vedic"/>
  <outline>
    <contour>
      <point x="265" y="-13" type="curve" smooth="yes"/>
      <point x="349" y="-13"/>
      <point x="395" y="14"/>
      <point x="437" y="62" type="curve"/>
      <point x="437" y="0" type="line"/>
      <point x="1078" y="0" type="line"/>
      <point x="1078" y="584" type="line"/>
      <point x="859" y="584" type="line"/>
      <point x="859" y="75" type="line"/>
      <point x="624" y="75" type="line"/>
      <point x="624" y="584" type="line"/>
      <point x="413" y="584" type="line"/>
      <point x="413" y="146" type="line" smooth="yes"/>
      <point x="413" y="108"/>
      <point x="382" y="87"/>
      <point x="349" y="87" type="curve" smooth="yes"/>
      <point x="310" y="87"/>
      <point x="287" y="102"/>
      <point x="287" y="151" type="curve" smooth="yes"/>
      <point x="287" y="584" type="line"/>
      <point x="68" y="584" type="line"/>
      <point x="68" y="177" type="line" smooth="yes"/>
      <point x="68" y="57"/>
      <point x="150" y="-13"/>
    </contour>
  </outline>
</glyph>
<glyph name="la-tamil" format="2">
  <advance width="1218"/>
  <unicode hex="0BB2"/>
  <note>
uni0BB2
</note>
  <anchor x="604" y="0" name="bottom"/>
  <anchor x="601" y="0" name="nukta"/>
  <anchor x="582" y="584" name="top"/>
  <anchor x="606" y="584" name="vedic"/>
  <outline>
    <contour>
      <point x="311" y="-5" type="curve" smooth="yes"/>
      <point x="461" y="-5"/>
      <point x="546" y="68"/>
      <point x="546" y="189" type="curve" smooth="yes"/>
      <point x="546" y="284"/>
      <point x="479" y="354"/>
      <point x="364" y="354" type="curve" smooth="yes"/>
      <point x="212" y="354"/>
      <point x="137" y="234"/>
      <point x="140" y="123" type="curve"/>
      <point x="194" y="92" type="line"/>
      <point x="199" y="169"/>
      <point x="234" y="230"/>
      <point x="294" y="230" type="curve" smooth="yes"/>
      <point x="325" y="230"/>
      <point x="359" y="210"/>
      <point x="359" y="166" type="curve" smooth="yes"/>
      <point x="359" y="118"/>
      <point x="326" y="88"/>
      <point x="270" y="88" type="curve" smooth="yes"/>
      <point x="208" y="88"/>
      <point x="131" y="147"/>
      <point x="131" y="258" type="curve" smooth="yes"/>
      <point x="131" y="413"/>
      <point x="234" y="502"/>
      <point x="394" y="502" type="curve" smooth="yes"/>
      <point x="576" y="502"/>
      <point x="642" y="389"/>
      <point x="642" y="264" type="curve" smooth="yes"/>
      <point x="642" y="216" type="line" smooth="yes"/>
      <point x="642" y="81"/>
      <point x="723" y="-5"/>
      <point x="884" y="-5" type="curve" smooth="yes"/>
      <point x="1062" y="-5"/>
      <point x="1164" y="124"/>
      <point x="1164" y="314" type="curve" smooth="yes"/>
      <point x="1164" y="406"/>
      <point x="1128" y="495"/>
      <point x="1054" y="587" type="curve"/>
      <point x="986" y="540" type="line"/>
      <point x="1052" y="457"/>
      <point x="1083" y="396"/>
      <point x="1083" y="302" type="curve" smooth="yes"/>
      <point x="1083" y="169"/>
      <point x="1017" y="88"/>
      <point x="935" y="88" type="curve" smooth="yes"/>
      <point x="879" y="88"/>
      <point x="866" y="129"/>
      <point x="866" y="205" type="curve" smooth="yes"/>
      <point x="866" y="277" type="line" smooth="yes"/>
      <point x="866" y="470"/>
      <point x="710" y="589"/>
      <point x="456" y="589" type="curve" smooth="yes"/>
      <point x="210" y="589"/>
      <point x="49" y="465"/>
      <point x="49" y="259" type="curve" smooth="yes"/>
      <point x="49" y="116"/>
      <point x="155" y="-5"/>
    </contour>
  </outline>
</glyph>
<glyph name="llla-tamil" format="2">
  <advance width="1005"/>
  <unicode hex="0BB4"/>
  <note>
uni0BB4
</note>
  <anchor x="538" y="0" name="bottom"/>
  <anchor x="537" y="-395" name="nukta"/>
  <anchor x="487" y="584" name="top"/>
  <anchor x="512" y="584" name="vedic"/>
  <anchor x="942" y="584" name="imatra"/>
  <outline>
    <contour>
      <point x="345" y="-441" type="curve" smooth="yes"/>
      <point x="630" y="-441"/>
      <point x="663" y="-208"/>
      <point x="875" y="-208" type="curve" smooth="yes"/>
      <point x="880" y="-208" type="line"/>
      <point x="880" y="-136" type="line"/>
      <point x="850" y="-136" type="line" smooth="yes"/>
      <point x="760" y="-136"/>
      <point x="680" y="-94"/>
      <point x="680" y="20" type="curve" smooth="yes"/>
      <point x="680" y="122" type="line"/>
      <point x="461" y="122" type="line"/>
      <point x="461" y="26" type="line" smooth="yes"/>
      <point x="461" y="-67"/>
      <point x="576" y="-142"/>
      <point x="684" y="-160" type="curve"/>
      <point x="684" y="-166" type="line"/>
      <point x="492" y="-194"/>
      <point x="435" y="-349"/>
      <point x="286" y="-349" type="curve" smooth="yes"/>
      <point x="230" y="-349"/>
      <point x="174" y="-315"/>
      <point x="174" y="-250" type="curve" smooth="yes"/>
      <point x="174" y="-197"/>
      <point x="204" y="-155"/>
      <point x="266" y="-155" type="curve" smooth="yes"/>
      <point x="309" y="-155"/>
      <point x="338" y="-173"/>
      <point x="370" y="-208" type="curve"/>
      <point x="422" y="-153" type="line"/>
      <point x="376" y="-103"/>
      <point x="323" y="-81"/>
      <point x="264" y="-81" type="curve" smooth="yes"/>
      <point x="158" y="-81"/>
      <point x="94" y="-157"/>
      <point x="94" y="-250" type="curve" smooth="yes"/>
      <point x="94" y="-368"/>
      <point x="197" y="-441"/>
    </contour>
    <component base="ma-tamil"/>
  </outline>
</glyph>
<glyph name="sa-tamil" format="2">
  <advance width="1594"/>
  <unicode hex="0BB8"/>
  <note>
uni0BB8
</note>
  <anchor x="811" y="0" name="bottom"/>
  <anchor x="811" y="0" name="nukta"/>
  <anchor x="804" y="584" name="top"/>
  <anchor x="797" y="584" name="vedic"/>
  <outline>
    <contour>
      <point x="647" y="0" type="line"/>
      <point x="873" y="0" type="line"/>
      <point x="873" y="424" type="line" smooth="yes"/>
      <point x="873" y="479"/>
      <point x="900" y="509"/>
      <point x="947" y="509" type="curve" smooth="yes"/>
      <point x="994" y="509"/>
      <point x="1018" y="470"/>
      <point x="1018" y="428" type="curve" smooth="yes"/>
      <point x="1018" y="216" type="line" smooth="yes"/>
      <point x="1018" y="81"/>
      <point x="1099" y="-6"/>
      <point x="1260" y="-6" type="curve" smooth="yes"/>
      <point x="1438" y="-6"/>
      <point x="1540" y="125"/>
      <point x="1540" y="314" type="curve" smooth="yes"/>
      <point x="1540" y="406"/>
      <point x="1504" y="495"/>
      <point x="1430" y="587" type="curve"/>
      <point x="1362" y="540" type="line"/>
      <point x="1428" y="457"/>
      <point x="1459" y="396"/>
      <point x="1459" y="302" type="curve" smooth="yes"/>
      <point x="1459" y="169"/>
      <point x="1393" y="87"/>
      <point x="1311" y="87" type="curve" smooth="yes"/>
      <point x="1255" y="87"/>
      <point x="1242" y="128"/>
      <point x="1242" y="204" type="curve" smooth="yes"/>
      <point x="1242" y="378" type="line" smooth="yes"/>
      <point x="1242" y="531"/>
      <point x="1110" y="587"/>
      <point x="964" y="587" type="curve" smooth="yes"/>
      <point x="831" y="587"/>
      <point x="703" y="525"/>
      <point x="703" y="426" type="curve" smooth="yes"/>
      <point x="703" y="349" type="line"/>
      <point x="647" y="349" type="line"/>
    </contour>
    <contour>
      <point x="315" y="-5" type="curve" smooth="yes"/>
      <point x="466" y="-5"/>
      <point x="551" y="63"/>
      <point x="551" y="184" type="curve" smooth="yes"/>
      <point x="551" y="279"/>
      <point x="483" y="354"/>
      <point x="369" y="354" type="curve" smooth="yes"/>
      <point x="217" y="354"/>
      <point x="145" y="238"/>
      <point x="145" y="123" type="curve"/>
      <point x="199" y="92" type="line"/>
      <point x="204" y="169"/>
      <point x="239" y="230"/>
      <point x="299" y="230" type="curve" smooth="yes"/>
      <point x="330" y="230"/>
      <point x="364" y="210"/>
      <point x="364" y="166" type="curve" smooth="yes"/>
      <point x="364" y="118"/>
      <point x="331" y="88"/>
      <point x="275" y="88" type="curve" smooth="yes"/>
      <point x="213" y="88"/>
      <point x="136" y="147"/>
      <point x="136" y="258" type="curve" smooth="yes"/>
      <point x="136" y="413"/>
      <point x="248" y="505"/>
      <point x="396" y="505" type="curve" smooth="yes"/>
      <point x="565" y="505"/>
      <point x="647" y="428"/>
      <point x="647" y="294" type="curve"/>
      <point x="750" y="293" type="line"/>
      <point x="734" y="503"/>
      <point x="577" y="588"/>
      <point x="406" y="588" type="curve" smooth="yes"/>
      <point x="183" y="588"/>
      <point x="54" y="455"/>
      <point x="54" y="259" type="curve" smooth="yes"/>
      <point x="54" y="116"/>
      <point x="160" y="-5"/>
    </contour>
  </outline>
</glyph>
<glyph name="aaMatra-tamil" format="2">
  <advance width="704"/>
  <unicode hex="0BBE"/>
  <note>
uni0BBE
</note>
  <outline>
    <contour>
      <point x="73" y="0" type="line"/>
      <point x="157" y="0" type="line"/>
      <point x="157" y="509" type="line"/>
      <point x="342" y="509" type="line"/>
      <point x="342" y="0" type="line"/>
      <point x="563" y="0" type="line"/>
      <point x="563" y="509" type="line"/>
      <point x="692" y="509" type="line"/>
      <point x="692" y="584" type="line"/>
      <point x="73" y="584" type="line"/>
    </contour>
  </outline>
</glyph>
<glyph name="iMatra-tamil" format="2">
  <advance width="244"/>
  <unicode hex="0BBF"/>
  <note>
uni0BBF
</note>
  <outline>
    <contour>
      <point x="76" y="0" type="line"/>
      <point x="164" y="0" type="line"/>
      <point x="164" y="571" type="line" smooth="yes"/>
      <point x="164" y="823"/>
      <point x="-9" y="910"/>
      <point x="-191" y="910" type="curve" smooth="yes"/>
      <point x="-357" y="910"/>
      <point x="-469" y="817"/>
      <point x="-469" y="692" type="curve" smooth="yes"/>
      <point x="-469" y="583"/>
      <point x="-396" y="513"/>
      <point x="-268" y="513" type="curve" smooth="yes"/>
      <point x="-266" y="513" type="line"/>
      <point x="-266" y="583" type="line"/>
      <point x="-268" y="583" type="line" smooth="yes"/>
      <point x="-315" y="583"/>
      <point x="-356" y="607"/>
      <point x="-356" y="657" type="curve" smooth="yes"/>
      <point x="-356" y="705"/>
      <point x="-301" y="756"/>
      <point x="-186" y="756" type="curve" smooth="yes"/>
      <point x="-48" y="756"/>
      <point x="76" y="691"/>
      <point x="76" y="514" type="curve" smooth="yes"/>
    </contour>
  </outline>
</glyph>
<glyph name="iiMatra-tamil" format="2">
  <unicode hex="0BC0"/>
  <note>
uni0BC0
</note>
  <anchor x="0" y="584" name="_imatra"/>
  <outline>
    <contour>
      <point x="-42" y="509" type="curve" smooth="yes"/>
      <point x="0" y="509" type="line"/>
      <point x="0" y="584" type="line"/>
      <point x="-33" y="584" type="line" smooth="yes"/>
      <point x="-109" y="584"/>
      <point x="-180" y="625"/>
      <point x="-180" y="720" type="curve" smooth="yes"/>
      <point x="-180" y="805"/>
      <point x="-107" y="862"/>
      <point x="-7" y="862" type="curve" smooth="yes"/>
      <point x="49" y="862"/>
      <point x="92" y="834"/>
      <point x="92" y="783" type="curve" smooth="yes"/>
      <point x="92" y="744"/>
      <point x="67" y="716"/>
      <point x="23" y="716" type="curve" smooth="yes"/>
      <point x="-20" y="716"/>
      <point x="-44" y="750"/>
      <point x="-44" y="798" type="curve" smooth="yes"/>
      <point x="-44" y="825"/>
      <point x="-36" y="856"/>
      <point x="-19" y="888" type="curve"/>
      <point x="-77" y="893" type="line"/>
      <point x="-101" y="854"/>
      <point x="-114" y="813"/>
      <point x="-114" y="774" type="curve" smooth="yes"/>
      <point x="-114" y="688"/>
      <point x="-54" y="616"/>
      <point x="66" y="616" type="curve" smooth="yes"/>
      <point x="166" y="616"/>
      <point x="250" y="667"/>
      <point x="250" y="767" type="curve" smooth="yes"/>
      <point x="250" y="878"/>
      <point x="151" y="945"/>
      <point x="11" y="945" type="curve" smooth="yes"/>
      <point x="-158" y="945"/>
      <point x="-266" y="836"/>
      <point x="-266" y="724" type="curve" smooth="yes"/>
      <point x="-266" y="586"/>
      <point x="-184" y="509"/>
    </contour>
  </outline>
</glyph>
<glyph name="uuMatra-tamil" format="2">
  <advance width="1001"/>
  <unicode hex="0BC2"/>
  <note>
uni0BC2
</note>
  <outline>
    <contour>
      <point x="435" y="8" type="curve" smooth="yes"/>
      <point x="688" y="8"/>
      <point x="930" y="129"/>
      <point x="930" y="405" type="curve" smooth="yes"/>
      <point x="930" y="674"/>
      <point x="723" y="799"/>
      <point x="474" y="799" type="curve" smooth="yes"/>
      <point x="233" y="799"/>
      <point x="102" y="667"/>
      <point x="102" y="524" type="curve" smooth="yes"/>
      <point x="102" y="444" type="line" smooth="yes"/>
      <point x="102" y="315"/>
      <point x="170" y="233"/>
      <point x="317" y="233" type="curve" smooth="yes"/>
      <point x="463" y="233"/>
      <point x="560" y="311"/>
      <point x="560" y="449" type="curve" smooth="yes"/>
      <point x="560" y="584" type="line"/>
      <point x="-375" y="584" type="line"/>
      <point x="-320" y="509" type="line"/>
      <point x="337" y="509" type="line"/>
      <point x="337" y="425" type="line" smooth="yes"/>
      <point x="337" y="356"/>
      <point x="310" y="323"/>
      <point x="263" y="323" type="curve" smooth="yes"/>
      <point x="214" y="323"/>
      <point x="187" y="366"/>
      <point x="187" y="441" type="curve" smooth="yes"/>
      <point x="187" y="524" type="line" smooth="yes"/>
      <point x="187" y="614"/>
      <point x="270" y="709"/>
      <point x="431" y="709" type="curve" smooth="yes"/>
      <point x="603" y="709"/>
      <point x="699" y="607"/>
      <point x="699" y="415" type="curve" smooth="yes"/>
      <point x="699" y="210"/>
      <point x="587" y="99"/>
      <point x="405" y="99" type="curve" smooth="yes"/>
      <point x="264" y="99"/>
      <point x="156" y="137"/>
      <point x="63" y="250" type="curve"/>
      <point x="0" y="193" type="line"/>
      <point x="107" y="66"/>
      <point x="229" y="8"/>
    </contour>
  </outline>
</glyph>
<glyph name="eMatra-tamil" format="2">
  <advance width="919"/>
  <unicode hex="0BC6"/>
  <note>
uni0BC6
</note>
  <outline>
    <contour>
      <point x="365" y="-5" type="curve" smooth="yes"/>
      <point x="513" y="-5"/>
      <point x="601" y="63"/>
      <point x="601" y="184" type="curve" smooth="yes"/>
      <point x="601" y="279"/>
      <point x="533" y="354"/>
      <point x="418" y="354" type="curve" smooth="yes"/>
      <point x="267" y="354"/>
      <point x="192" y="234"/>
      <point x="195" y="123" type="curve"/>
      <point x="249" y="92" type="line"/>
      <point x="254" y="169"/>
      <point x="289" y="230"/>
      <point x="349" y="230" type="curve" smooth="yes"/>
      <point x="380" y="230"/>
      <point x="414" y="210"/>
      <point x="414" y="166" type="curve" smooth="yes"/>
      <point x="414" y="118"/>
      <point x="381" y="88"/>
      <point x="325" y="88" type="curve" smooth="yes"/>
      <point x="229" y="88"/>
      <point x="142" y="197"/>
      <point x="142" y="371" type="curve" smooth="yes"/>
      <point x="142" y="584"/>
      <point x="295" y="707"/>
      <point x="470" y="707" type="curve" smooth="yes"/>
      <point x="609" y="707"/>
      <point x="752" y="649"/>
      <point x="752" y="384" type="curve" smooth="yes"/>
      <point x="752" y="0" type="line"/>
      <point x="839" y="0" type="line"/>
      <point x="839" y="446" type="line" smooth="yes"/>
      <point x="839" y="757"/>
      <point x="687" y="875"/>
      <point x="476" y="875" type="curve" smooth="yes"/>
      <point x="195" y="875"/>
      <point x="54" y="642"/>
      <point x="54" y="372" type="curve" smooth="yes"/>
      <point x="54" y="166"/>
      <point x="170" y="-5"/>
    </contour>
  </outline>
</glyph>
<glyph name="aiMatra-tamil" format="2">
  <advance width="1493"/>
  <unicode hex="0BC8"/>
  <note>
uni0BC8
</note>
  <outline>
    <contour>
      <point x="1174" y="-21" type="line"/>
      <point x="1326" y="22"/>
      <point x="1444" y="105"/>
      <point x="1444" y="280" type="curve" smooth="yes"/>
      <point x="1444" y="484"/>
      <point x="1250" y="589"/>
      <point x="1042" y="589" type="curve" smooth="yes"/>
      <point x="808" y="589"/>
      <point x="608" y="417"/>
      <point x="608" y="226" type="curve" smooth="yes"/>
      <point x="608" y="99"/>
      <point x="666" y="-4"/>
      <point x="813" y="-4" type="curve" smooth="yes"/>
      <point x="957" y="-4"/>
      <point x="1043" y="93"/>
      <point x="1043" y="231" type="curve" smooth="yes"/>
      <point x="1043" y="477"/>
      <point x="792" y="590"/>
      <point x="504" y="590" type="curve" smooth="yes"/>
      <point x="251" y="590"/>
      <point x="49" y="465"/>
      <point x="49" y="259" type="curve" smooth="yes"/>
      <point x="49" y="116"/>
      <point x="155" y="-5"/>
      <point x="311" y="-5" type="curve" smooth="yes"/>
      <point x="461" y="-5"/>
      <point x="546" y="68"/>
      <point x="546" y="189" type="curve" smooth="yes"/>
      <point x="546" y="284"/>
      <point x="479" y="354"/>
      <point x="364" y="354" type="curve" smooth="yes"/>
      <point x="212" y="354"/>
      <point x="137" y="234"/>
      <point x="140" y="123" type="curve"/>
      <point x="194" y="92" type="line"/>
      <point x="199" y="169"/>
      <point x="234" y="230"/>
      <point x="294" y="230" type="curve" smooth="yes"/>
      <point x="325" y="230"/>
      <point x="359" y="210"/>
      <point x="359" y="166" type="curve" smooth="yes"/>
      <point x="359" y="118"/>
      <point x="326" y="88"/>
      <point x="270" y="88" type="curve" smooth="yes"/>
      <point x="208" y="88"/>
      <point x="131" y="147"/>
      <point x="131" y="258" type="curve" smooth="yes"/>
      <point x="131" y="413"/>
      <point x="294" y="510"/>
      <point x="479" y="510" type="curve" smooth="yes"/>
      <point x="676" y="510"/>
      <point x="854" y="402"/>
      <point x="854" y="213" type="curve" smooth="yes"/>
      <point x="854" y="144"/>
      <point x="824" y="94"/>
      <point x="770" y="94" type="curve" smooth="yes"/>
      <point x="722" y="94"/>
      <point x="690" y="142"/>
      <point x="690" y="221" type="curve" smooth="yes"/>
      <point x="690" y="387"/>
      <point x="857" y="509"/>
      <point x="995" y="509" type="curve" smooth="yes"/>
      <point x="1161" y="509"/>
      <point x="1256" y="422"/>
      <point x="1256" y="287" type="curve" smooth="yes"/>
      <point x="1256" y="159"/>
      <point x="1206" y="97"/>
      <point x="1137" y="35" type="curve"/>
    </contour>
  </outline>
</glyph>
<glyph name="halant-tamil" format="2">
  <unicode hex="0BCD"/>
  <note>
uni0BCD
</note>
  <anchor x="0" y="584" name="_top"/>
  <anchor x="0" y="818" name="top"/>
  <outline>
    <contour>
      <point x="0" y="658" type="curve" smooth="yes"/>
      <point x="56" y="658"/>
      <point x="104" y="703"/>
      <point x="104" y="758" type="curve" smooth="yes"/>
      <point x="104" y="812"/>
      <point x="57" y="858"/>
      <point x="1" y="858" type="curve" smooth="yes"/>
      <point x="-56" y="858"/>
      <point x="-103" y="812"/>
      <point x="-103" y="758" type="curve" smooth="yes"/>
      <point x="-103" y="703"/>
      <point x="-57" y="658"/>
    </contour>
  </outline>
</glyph>
<glyph name="om-tamil" format="2">
  <advance width="1197"/>
  <unicode hex="0BD0"/>
  <note>
uni0BD0
</note>
  <outline>
    <contour>
      <point x="396" y="-414" type="curve" smooth="yes"/>
      <point x="741" y="-414"/>
      <point x="734" y="-186"/>
      <point x="917" y="-186" type="curve" smooth="yes"/>
      <point x="985" y="-186" type="line"/>
      <point x="985" y="-112" type="line"/>
      <point x="868" y="-112" type="line" smooth="yes"/>
      <point x="741" y="-112"/>
      <point x="665" y="-22"/>
      <point x="665" y="87" type="curve" smooth="yes"/>
      <point x="665" y="138"/>
      <point x="682" y="193"/>
      <point x="719" y="245" type="curve"/>
      <point x="725" y="241" type="line"/>
      <point x="717" y="215"/>
      <point x="713" y="189"/>
      <point x="713" y="164" type="curve" smooth="yes"/>
      <point x="713" y="74"/>
      <point x="768" y="-2"/>
      <point x="908" y="-2" type="curve" smooth="yes"/>
      <point x="1051" y="-2"/>
      <point x="1148" y="75"/>
      <point x="1148" y="217" type="curve" smooth="yes"/>
      <point x="1148" y="467"/>
      <point x="882" y="591"/>
      <point x="552" y="591" type="curve" smooth="yes"/>
      <point x="252" y="591"/>
      <point x="49" y="450"/>
      <point x="49" y="257" type="curve" smooth="yes"/>
      <point x="49" y="112"/>
      <point x="150" y="4"/>
      <point x="314" y="4" type="curve" smooth="yes"/>
      <point x="469" y="4"/>
      <point x="544" y="89"/>
      <point x="544" y="188" type="curve" smooth="yes"/>
      <point x="544" y="296"/>
      <point x="474" y="364"/>
      <point x="363" y="364" type="curve" smooth="yes"/>
      <point x="216" y="364"/>
      <point x="142" y="241"/>
      <point x="136" y="133" type="curve"/>
      <point x="190" y="103" type="line"/>
      <point x="195" y="177"/>
      <point x="235" y="239"/>
      <point x="295" y="239" type="curve" smooth="yes"/>
      <point x="329" y="239"/>
      <point x="361" y="216"/>
      <point x="361" y="172" type="curve" smooth="yes"/>
      <point x="361" y="125"/>
      <point x="331" y="97"/>
      <point x="276" y="97" type="curve" smooth="yes"/>
      <point x="211" y="97"/>
      <point x="130" y="154"/>
      <point x="130" y="253" type="curve" smooth="yes"/>
      <point x="130" y="424"/>
      <point x="324" y="515"/>
      <point x="552" y="515" type="curve" smooth="yes"/>
      <point x="750" y="515"/>
      <point x="939" y="424"/>
      <point x="939" y="237" type="curve" smooth="yes"/>
      <point x="939" y="133"/>
      <point x="897" y="98"/>
      <point x="846" y="98" type="curve" smooth="yes"/>
      <point x="806" y="98"/>
      <point x="781" y="137"/>
      <point x="781" y="189" type="curve" smooth="yes"/>
      <point x="781" y="222"/>
      <point x="790" y="260"/>
      <point x="812" y="298" type="curve"/>
      <point x="725" y="356" type="line"/>
      <point x="629" y="273"/>
      <point x="588" y="174"/>
      <point x="588" y="84" type="curve" smooth="yes"/>
      <point x="588" y="-17"/>
      <point x="641" y="-105"/>
      <point x="727" y="-145" type="curve"/>
      <point x="727" y="-150" type="line"/>
      <point x="557" y="-169"/>
      <point x="592" y="-330"/>
      <point x="359" y="-330" type="curve" smooth="yes"/>
      <point x="232" y="-330"/>
      <point x="161" y="-267"/>
      <point x="161" y="-185" type="curve" smooth="yes"/>
      <point x="161" y="-172"/>
      <point x="163" y="-158"/>
      <point x="167" y="-144" type="curve"/>
      <point x="90" y="-126" type="line"/>
      <point x="86" y="-142"/>
      <point x="84" y="-159"/>
      <point x="84" y="-176" type="curve" smooth="yes"/>
      <point x="84" y="-294"/>
      <point x="180" y="-414"/>
    </contour>
    <contour>
      <point x="228" y="-265" type="line"/>
      <point x="287" y="-265" type="line"/>
      <point x="287" y="-108" type="line"/>
      <point x="228" y="-108" type="line"/>
    </contour>
    <contour>
      <point x="249" y="-265" type="line"/>
      <point x="486" y="-265" type="line"/>
      <point x="486" y="-214" type="line"/>
      <point x="249" y="-214" type="line"/>
    </contour>
    <contour>
      <point x="343" y="-265" type="line"/>
      <point x="399" y="-265" type="line"/>
      <point x="399" y="-181" type="line" smooth="yes"/>
      <point x="399" y="-166"/>
      <point x="408" y="-153"/>
      <point x="425" y="-153" type="curve" smooth="yes"/>
      <point x="444" y="-153"/>
      <point x="453" y="-166"/>
      <point x="453" y="-181" type="curve" smooth="yes"/>
      <point x="453" y="-265" type="line"/>
      <point x="512" y="-265" type="line"/>
      <point x="512" y="-189" type="line" smooth="yes"/>
      <point x="512" y="-126"/>
      <point x="469" y="-105"/>
      <point x="425" y="-105" type="curve" smooth="yes"/>
      <point x="383" y="-105"/>
      <point x="343" y="-126"/>
      <point x="343" y="-189" type="curve" smooth="yes"/>
    </contour>
    <contour>
      <point x="371" y="-93" type="curve" smooth="yes"/>
      <point x="392" y="-93"/>
      <point x="408" y="-77"/>
      <point x="408" y="-58" type="curve" smooth="yes"/>
      <point x="408" y="-39"/>
      <point x="392" y="-22"/>
      <point x="371" y="-22" type="curve" smooth="yes"/>
      <point x="351" y="-22"/>
      <point x="334" y="-39"/>
      <point x="334" y="-58" type="curve" smooth="yes"/>
      <point x="334" y="-77"/>
      <point x="351" y="-93"/>
    </contour>
  </outline>
</glyph>
<glyph name="aulengthmark-tamil" format="2">
  <advance width="1470"/>
  <unicode hex="0BD7"/>
  <note>
uni0BD7
</note>
  <outline>
    <contour>
      <point x="311" y="-5" type="curve" smooth="yes"/>
      <point x="461" y="-5"/>
      <point x="546" y="63"/>
      <point x="546" y="184" type="curve" smooth="yes"/>
      <point x="546" y="279"/>
      <point x="479" y="354"/>
      <point x="364" y="354" type="curve" smooth="yes"/>
      <point x="212" y="354"/>
      <point x="137" y="234"/>
      <point x="140" y="123" type="curve"/>
      <point x="194" y="92" type="line"/>
      <point x="199" y="169"/>
      <point x="234" y="230"/>
      <point x="294" y="230" type="curve" smooth="yes"/>
      <point x="325" y="230"/>
      <point x="359" y="210"/>
      <point x="359" y="166" type="curve" smooth="yes"/>
      <point x="359" y="118"/>
      <point x="326" y="88"/>
      <point x="270" y="88" type="curve" smooth="yes"/>
      <point x="208" y="88"/>
      <point x="131" y="147"/>
      <point x="131" y="258" type="curve" smooth="yes"/>
      <point x="131" y="413"/>
      <point x="249" y="505"/>
      <point x="403" y="505" type="curve" smooth="yes"/>
      <point x="580" y="505"/>
      <point x="685" y="410"/>
      <point x="685" y="276" type="curve"/>
      <point x="774" y="294" type="line"/>
      <point x="758" y="505"/>
      <point x="584" y="588"/>
      <point x="413" y="588" type="curve" smooth="yes"/>
      <point x="182" y="588"/>
      <point x="49" y="455"/>
      <point x="49" y="259" type="curve" smooth="yes"/>
      <point x="49" y="116"/>
      <point x="155" y="-5"/>
    </contour>
    <contour>
      <point x="685" y="0" type="line"/>
      <point x="910" y="0" type="line"/>
      <point x="910" y="509" type="line"/>
      <point x="1090" y="509" type="line"/>
      <point x="1090" y="0" type="line"/>
      <point x="1315" y="0" type="line"/>
      <point x="1315" y="509" type="line"/>
      <point x="1458" y="509" type="line"/>
      <point x="1458" y="584" type="line"/>
      <point x="742" y="584" type="line"/>
      <point x="742" y="320" type="line"/>
      <point x="685" y="343" type="line"/>
    </contour>
  </outline>
</glyph>
<glyph name="zero-tamil" format="2">
  <advance width="702"/>
  <unicode hex="0BE6"/>
  <note>
uni0BE6
</note>
  <outline>
    <contour>
      <point x="338" y="-5" type="curve" smooth="yes"/>
      <point x="532" y="-5"/>
      <point x="653" y="116"/>
      <point x="653" y="292" type="curve" smooth="yes"/>
      <point x="653" y="473"/>
      <point x="533" y="590"/>
      <point x="348" y="590" type="curve" smooth="yes"/>
      <point x="158" y="590"/>
      <point x="49" y="449"/>
      <point x="49" y="282" type="curve" smooth="yes"/>
      <point x="49" y="125"/>
      <point x="148" y="-5"/>
    </contour>
    <contour>
      <point x="304" y="90" type="curve" smooth="yes"/>
      <point x="191" y="90"/>
      <point x="130" y="177"/>
      <point x="130" y="292" type="curve" smooth="yes"/>
      <point x="130" y="413"/>
      <point x="196" y="494"/>
      <point x="304" y="494" type="curve" smooth="yes"/>
      <point x="404" y="494"/>
      <point x="463" y="424"/>
      <point x="463" y="292" type="curve" smooth="yes"/>
      <point x="463" y="166"/>
      <point x="399" y="90"/>
    </contour>
  </outline>
</glyph>
<glyph name="two-tamil" format="2">
  <advance width="1106"/>
  <unicode hex="0BE8"/>
  <note>
uni0BE8
</note>
  <outline>
    <contour>
      <point x="174" y="0" type="curve" smooth="yes"/>
      <point x="1089" y="0" type="line"/>
      <point x="1089" y="75" type="line"/>
      <point x="168" y="75" type="line" smooth="yes"/>
      <point x="152" y="75"/>
      <point x="139" y="83"/>
      <point x="139" y="102" type="curve" smooth="yes"/>
      <point x="139" y="121"/>
      <point x="152" y="130"/>
      <point x="168" y="130" type="curve" smooth="yes"/>
      <point x="439" y="130" type="line" smooth="yes"/>
      <point x="678" y="130"/>
      <point x="795" y="215"/>
      <point x="795" y="357" type="curve" smooth="yes"/>
      <point x="795" y="509"/>
      <point x="667" y="589"/>
      <point x="457" y="589" type="curve" smooth="yes"/>
      <point x="250" y="589"/>
      <point x="146" y="488"/>
      <point x="146" y="363" type="curve" smooth="yes"/>
      <point x="146" y="239"/>
      <point x="203" y="154"/>
      <point x="401" y="154" type="curve"/>
      <point x="402" y="200" type="line"/>
      <point x="261" y="200"/>
      <point x="221" y="266"/>
      <point x="221" y="362" type="curve" smooth="yes"/>
      <point x="221" y="458"/>
      <point x="306" y="515"/>
      <point x="407" y="515" type="curve" smooth="yes"/>
      <point x="503" y="515"/>
      <point x="590" y="468"/>
      <point x="590" y="362" type="curve" smooth="yes"/>
      <point x="590" y="264"/>
      <point x="521" y="200"/>
      <point x="402" y="200" type="curve" smooth="yes"/>
      <point x="174" y="200" type="line" smooth="yes"/>
      <point x="100" y="200"/>
      <point x="59" y="162"/>
      <point x="59" y="101" type="curve" smooth="yes"/>
      <point x="59" y="39"/>
      <point x="100" y="0"/>
    </contour>
  </outline>
</glyph>
<glyph name="four-tamil" format="2">
  <advance width="979"/>
  <unicode hex="0BEA"/>
  <note>
uni0BEA
</note>
  <outline>
    <contour>
      <point x="304" y="-4" type="curve" smooth="yes"/>
      <point x="502" y="-4"/>
      <point x="610" y="102"/>
      <point x="610" y="239" type="curve" smooth="yes"/>
      <point x="610" y="272" type="line"/>
      <point x="948" y="272" type="line"/>
      <point x="948" y="584" type="line"/>
      <point x="862" y="584" type="line"/>
      <point x="862" y="348" type="line"/>
      <point x="610" y="348" type="line"/>
      <point x="610" y="508" type="line"/>
      <point x="769" y="508" type="line"/>
      <point x="769" y="584" type="line"/>
      <point x="168" y="584" type="line"/>
      <point x="168" y="298" type="line"/>
      <point x="253" y="298" type="line"/>
      <point x="253" y="508" type="line"/>
      <point x="391" y="508" type="line"/>
      <point x="391" y="348" type="line"/>
      <point x="259" y="348" type="line" smooth="yes"/>
      <point x="146" y="348"/>
      <point x="54" y="287"/>
      <point x="54" y="184" type="curve" smooth="yes"/>
      <point x="54" y="78"/>
      <point x="127" y="-4"/>
    </contour>
    <contour>
      <point x="250" y="83" type="curve" smooth="yes"/>
      <point x="182" y="83"/>
      <point x="133" y="117"/>
      <point x="133" y="180" type="curve" smooth="yes"/>
      <point x="133" y="235"/>
      <point x="176" y="272"/>
      <point x="258" y="272" type="curve" smooth="yes"/>
      <point x="391" y="272" type="line"/>
      <point x="391" y="225" type="line" smooth="yes"/>
      <point x="391" y="125"/>
      <point x="336" y="83"/>
    </contour>
  </outline>
</glyph>
<glyph name="five-tamil" format="2">
  <advance width="1327"/>
  <unicode hex="0BEB"/>
  <note>
uni0BEB
</note>
  <outline>
    <contour>
      <point x="651" y="-336" type="curve" smooth="yes"/>
      <point x="920" y="-336"/>
      <point x="1192" y="-195"/>
      <point x="1192" y="83" type="curve" smooth="yes"/>
      <point x="1192" y="282"/>
      <point x="1091" y="363"/>
      <point x="971" y="363" type="curve" smooth="yes"/>
      <point x="848" y="363"/>
      <point x="768" y="270"/>
      <point x="768" y="155" type="curve" smooth="yes"/>
      <point x="768" y="144" type="line"/>
      <point x="806" y="144" type="line"/>
      <point x="806" y="156" type="line" smooth="yes"/>
      <point x="806" y="206"/>
      <point x="840" y="236"/>
      <point x="889" y="236" type="curve" smooth="yes"/>
      <point x="942" y="236"/>
      <point x="992" y="199"/>
      <point x="992" y="90" type="curve" smooth="yes"/>
      <point x="992" y="-114"/>
      <point x="860" y="-251"/>
      <point x="628" y="-251" type="curve" smooth="yes"/>
      <point x="327" y="-251"/>
      <point x="151" y="-23"/>
      <point x="151" y="247" type="curve" smooth="yes"/>
      <point x="151" y="537"/>
      <point x="356" y="718"/>
      <point x="651" y="718" type="curve" smooth="yes"/>
      <point x="875" y="718"/>
      <point x="1114" y="675"/>
      <point x="1176" y="392" type="curve"/>
      <point x="1264" y="392" type="line"/>
      <point x="1215" y="714"/>
      <point x="987" y="875"/>
      <point x="661" y="875" type="curve" smooth="yes"/>
      <point x="248" y="875"/>
      <point x="59" y="575"/>
      <point x="59" y="248" type="curve" smooth="yes"/>
      <point x="59" y="-72"/>
      <point x="259" y="-336"/>
    </contour>
    <contour>
      <point x="357" y="0" type="line"/>
      <point x="441" y="0" type="line"/>
      <point x="441" y="509" type="line"/>
      <point x="586" y="509" type="line"/>
      <point x="586" y="0" type="line"/>
      <point x="806" y="0" type="line"/>
      <point x="806" y="509" type="line"/>
      <point x="969" y="509" type="line"/>
      <point x="969" y="584" type="line"/>
      <point x="357" y="584" type="line"/>
    </contour>
  </outline>
</glyph>
<glyph name="six-tamil" format="2">
  <advance width="1354"/>
  <unicode hex="0BEC"/>
  <note>
uni0BEC
</note>
  <outline>
    <contour>
      <point x="304" y="-4" type="curve" smooth="yes"/>
      <point x="502" y="-4"/>
      <point x="610" y="103"/>
      <point x="610" y="240" type="curve" smooth="yes"/>
      <point x="610" y="272" type="line"/>
      <point x="649" y="272" type="line" smooth="yes"/>
      <point x="688" y="272"/>
      <point x="708" y="250"/>
      <point x="708" y="210" type="curve" smooth="yes"/>
      <point x="708" y="0" type="line"/>
      <point x="920" y="0" type="line"/>
      <point x="920" y="210" type="line" smooth="yes"/>
      <point x="920" y="250"/>
      <point x="939" y="272"/>
      <point x="978" y="272" type="curve" smooth="yes"/>
      <point x="1325" y="272" type="line"/>
      <point x="1325" y="348" type="line"/>
      <point x="931" y="348" type="line" smooth="yes"/>
      <point x="873" y="348"/>
      <point x="827" y="319"/>
      <point x="814" y="263" type="curve"/>
      <point x="801" y="319"/>
      <point x="755" y="348"/>
      <point x="697" y="348" type="curve" smooth="yes"/>
      <point x="610" y="348" type="line"/>
      <point x="610" y="508" type="line"/>
      <point x="780" y="508" type="line"/>
      <point x="780" y="584" type="line"/>
      <point x="168" y="584" type="line"/>
      <point x="168" y="307" type="line"/>
      <point x="253" y="307" type="line"/>
      <point x="253" y="508" type="line"/>
      <point x="391" y="508" type="line"/>
      <point x="391" y="348" type="line"/>
      <point x="259" y="348" type="line" smooth="yes"/>
      <point x="146" y="348"/>
      <point x="54" y="287"/>
      <point x="54" y="184" type="curve" smooth="yes"/>
      <point x="54" y="78"/>
      <point x="127" y="-4"/>
    </contour>
    <contour>
      <point x="250" y="83" type="curve" smooth="yes"/>
      <point x="182" y="83"/>
      <point x="133" y="117"/>
      <point x="133" y="180" type="curve" smooth="yes"/>
      <point x="133" y="235"/>
      <point x="176" y="272"/>
      <point x="258" y="272" type="curve" smooth="yes"/>
      <point x="391" y="272" type="line"/>
      <point x="391" y="229" type="line" smooth="yes"/>
      <point x="391" y="129"/>
      <point x="338" y="83"/>
    </contour>
    <contour>
      <point x="1037" y="0" type="line"/>
      <point x="1250" y="0" type="line"/>
      <point x="1250" y="297" type="line"/>
      <point x="1037" y="297" type="line"/>
    </contour>
  </outline>
</glyph>
<glyph name="ten-tamil" format="2">
  <advance width="1012"/>
  <unicode hex="0BF0"/>
  <note>
uni0BF0
</note>
  <outline>
    <contour>
      <point x="647" y="-5" type="curve" smooth="yes"/>
      <point x="827" y="-5"/>
      <point x="968" y="138"/>
      <point x="968" y="356" type="curve" smooth="yes"/>
      <point x="968" y="639"/>
      <point x="804" y="812"/>
      <point x="415" y="846" type="curve"/>
      <point x="405" y="764" type="line"/>
      <point x="751" y="732"/>
      <point x="880" y="588"/>
      <point x="880" y="365" type="curve" smooth="yes"/>
      <point x="880" y="176"/>
      <point x="783" y="87"/>
      <point x="700" y="87" type="curve" smooth="yes"/>
      <point x="664" y="87"/>
      <point x="643" y="113"/>
      <point x="643" y="154" type="curve" smooth="yes"/>
      <point x="643" y="584" type="line"/>
      <point x="431" y="584" type="line"/>
      <point x="431" y="192" type="line" smooth="yes"/>
      <point x="431" y="69"/>
      <point x="513" y="-5"/>
    </contour>
    <contour>
      <point x="280" y="-13" type="curve" smooth="yes"/>
      <point x="364" y="-13"/>
      <point x="478" y="24"/>
      <point x="478" y="142" type="curve" smooth="yes"/>
      <point x="478" y="208" type="line"/>
      <point x="431" y="208" type="line"/>
      <point x="431" y="146" type="line" smooth="yes"/>
      <point x="431" y="108"/>
      <point x="397" y="87"/>
      <point x="364" y="87" type="curve" smooth="yes"/>
      <point x="325" y="87"/>
      <point x="299" y="102"/>
      <point x="299" y="151" type="curve" smooth="yes"/>
      <point x="299" y="584" type="line"/>
      <point x="81" y="584" type="line"/>
      <point x="81" y="177" type="line" smooth="yes"/>
      <point x="81" y="57"/>
      <point x="166" y="-13"/>
    </contour>
  </outline>
</glyph>
<glyph name="onehundred-tamil" format="2">
  <advance width="982"/>
  <unicode hex="0BF1"/>
  <note>
uni0BF1
</note>
  <outline>
    <contour>
      <point x="310" y="0" type="line"/>
      <point x="394" y="0" type="line"/>
      <point x="394" y="509" type="line"/>
      <point x="579" y="509" type="line"/>
      <point x="579" y="0" type="line"/>
      <point x="800" y="0" type="line"/>
      <point x="800" y="509" type="line"/>
      <point x="929" y="509" type="line"/>
      <point x="929" y="584" type="line"/>
      <point x="310" y="584" type="line"/>
    </contour>
    <contour>
      <point x="68" y="0" type="line"/>
      <point x="152" y="0" type="line"/>
      <point x="152" y="444" type="line" smooth="yes"/>
      <point x="152" y="498"/>
      <point x="194" y="522"/>
      <point x="230" y="522" type="curve" smooth="yes"/>
      <point x="268" y="522"/>
      <point x="310" y="500"/>
      <point x="310" y="454" type="curve"/>
      <point x="339" y="454" type="line"/>
      <point x="338" y="539"/>
      <point x="293" y="594"/>
      <point x="212" y="594" type="curve" smooth="yes"/>
      <point x="109" y="594"/>
      <point x="68" y="511"/>
      <point x="68" y="417" type="curve" smooth="yes"/>
    </contour>
  </outline>
</glyph>
<glyph name="onethousand-tamil" format="2">
  <advance width="1384"/>
  <unicode hex="0BF2"/>
  <note>
uni0BF2
</note>
  <outline>
    <contour>
      <point x="320" y="-4" type="curve" smooth="yes"/>
      <point x="517" y="-4"/>
      <point x="624" y="103"/>
      <point x="624" y="240" type="curve" smooth="yes"/>
      <point x="624" y="508" type="line"/>
      <point x="783" y="508" type="line"/>
      <point x="783" y="584" type="line"/>
      <point x="183" y="584" type="line"/>
      <point x="183" y="310" type="line"/>
      <point x="268" y="310" type="line"/>
      <point x="268" y="508" type="line"/>
      <point x="405" y="508" type="line"/>
      <point x="405" y="229" type="line" smooth="yes"/>
      <point x="405" y="132"/>
      <point x="355" y="83"/>
      <point x="266" y="83" type="curve" smooth="yes"/>
      <point x="198" y="83"/>
      <point x="148" y="117"/>
      <point x="148" y="180" type="curve" smooth="yes"/>
      <point x="148" y="235"/>
      <point x="185" y="272"/>
      <point x="275" y="272" type="curve" smooth="yes"/>
      <point x="1213" y="272" type="line"/>
      <point x="1213" y="348" type="line"/>
      <point x="276" y="348" type="line" smooth="yes"/>
      <point x="163" y="348"/>
      <point x="68" y="287"/>
      <point x="68" y="184" type="curve" smooth="yes"/>
      <point x="68" y="78"/>
      <point x="144" y="-4"/>
    </contour>
    <contour>
      <point x="599" y="-349" type="curve"/>
      <point x="599" y="-250"/>
      <point x="632" y="-172"/>
      <point x="771" y="-172" type="curve" smooth="yes"/>
      <point x="929" y="-172" type="line" smooth="yes"/>
      <point x="1211" y="-172"/>
      <point x="1311" y="-86"/>
      <point x="1311" y="33" type="curve" smooth="yes"/>
      <point x="1311" y="163"/>
      <point x="1193" y="212"/>
      <point x="1030" y="212" type="curve" smooth="yes"/>
      <point x="805" y="212" type="line" smooth="yes"/>
      <point x="732" y="212"/>
      <point x="669" y="164"/>
      <point x="669" y="98" type="curve" smooth="yes"/>
      <point x="669" y="26"/>
      <point x="723" y="-23"/>
      <point x="844" y="-23" type="curve" smooth="yes"/>
      <point x="974" y="-23"/>
      <point x="1055" y="25"/>
      <point x="1055" y="155" type="curve" smooth="yes"/>
      <point x="1055" y="297" type="line"/>
      <point x="876" y="297" type="line"/>
      <point x="876" y="147" type="line" smooth="yes"/>
      <point x="876" y="69"/>
      <point x="848" y="46"/>
      <point x="804" y="46" type="curve" smooth="yes"/>
      <point x="771" y="46"/>
      <point x="745" y="67"/>
      <point x="745" y="98" type="curve" smooth="yes"/>
      <point x="745" y="124"/>
      <point x="766" y="148"/>
      <point x="807" y="148" type="curve" smooth="yes"/>
      <point x="1035" y="148" type="line" smooth="yes"/>
      <point x="1089" y="148"/>
      <point x="1130" y="116"/>
      <point x="1130" y="37" type="curve" smooth="yes"/>
      <point x="1130" y="-73"/>
      <point x="1057" y="-109"/>
      <point x="944" y="-109" type="curve" smooth="yes"/>
      <point x="697" y="-109" type="line" smooth="yes"/>
      <point x="559" y="-109"/>
      <point x="432" y="-135"/>
      <point x="432" y="-245" type="curve" smooth="yes"/>
      <point x="432" y="-324"/>
      <point x="500" y="-349"/>
    </contour>
  </outline>
</glyph>
<glyph name="day-tamil" format="2">
  <advance width="952"/>
  <unicode hex="0BF3"/>
  <note>
uni0BF3
</note>
  <outline>
    <contour>
      <point x="266" y="-5" type="curve" smooth="yes"/>
      <point x="377" y="-5"/>
      <point x="455" y="63"/>
      <point x="455" y="184" type="curve" smooth="yes"/>
      <point x="455" y="289"/>
      <point x="387" y="355"/>
      <point x="291" y="355" type="curve" smooth="yes"/>
      <point x="204" y="355"/>
      <point x="144" y="300"/>
      <point x="115" y="209" type="curve"/>
      <point x="132" y="157" type="line"/>
      <point x="148" y="205"/>
      <point x="176" y="234"/>
      <point x="215" y="234" type="curve" smooth="yes"/>
      <point x="249" y="234"/>
      <point x="275" y="208"/>
      <point x="275" y="162" type="curve" smooth="yes"/>
      <point x="275" y="112"/>
      <point x="251" y="89"/>
      <point x="220" y="89" type="curve" smooth="yes"/>
      <point x="184" y="89"/>
      <point x="132" y="128"/>
      <point x="132" y="244" type="curve" smooth="yes"/>
      <point x="132" y="371"/>
      <point x="221" y="505"/>
      <point x="370" y="505" type="curve" smooth="yes"/>
      <point x="488" y="505"/>
      <point x="570" y="418"/>
      <point x="570" y="260" type="curve" smooth="yes"/>
      <point x="570" y="171"/>
      <point x="545" y="114"/>
      <point x="502" y="52" type="curve"/>
      <point x="527" y="0" type="line"/>
      <point x="940" y="0" type="line"/>
      <point x="940" y="75" type="line"/>
      <point x="675" y="75" type="line"/>
      <point x="736" y="124"/>
      <point x="780" y="187"/>
      <point x="780" y="296" type="curve" smooth="yes"/>
      <point x="780" y="492"/>
      <point x="606" y="589"/>
      <point x="418" y="589" type="curve" smooth="yes"/>
      <point x="142" y="589"/>
      <point x="49" y="399"/>
      <point x="49" y="241" type="curve" smooth="yes"/>
      <point x="49" y="107"/>
      <point x="121" y="-5"/>
    </contour>
  </outline>
</glyph>
<glyph name="month-tamil" format="2">
  <advance width="1328"/>
  <unicode hex="0BF4"/>
  <note>
uni0BF4
</note>
  <anchor x="487" y="0" name="bottom"/>
  <anchor x="942" y="584" name="imatra"/>
  <anchor x="488" y="0" name="nukta"/>
  <anchor x="496" y="584" name="top"/>
  <anchor x="512" y="584" name="vedic"/>
  <outline>
    <contour>
      <point x="823" y="492" type="curve"/>
      <point x="856" y="514" type="line"/>
      <point x="804" y="559"/>
      <point x="768" y="604"/>
      <point x="768" y="669" type="curve" smooth="yes"/>
      <point x="768" y="770"/>
      <point x="832" y="828"/>
      <point x="925" y="828" type="curve" smooth="yes"/>
      <point x="1000" y="828"/>
      <point x="1050" y="780"/>
      <point x="1050" y="726" type="curve" smooth="yes"/>
      <point x="1050" y="688"/>
      <point x="1028" y="664"/>
      <point x="991" y="664" type="curve" smooth="yes"/>
      <point x="944" y="664"/>
      <point x="914" y="711"/>
      <point x="914" y="776" type="curve" smooth="yes"/>
      <point x="914" y="875"/>
      <point x="979" y="936"/>
      <point x="1082" y="936" type="curve" smooth="yes"/>
      <point x="1173" y="936"/>
      <point x="1227" y="882"/>
      <point x="1227" y="791" type="curve" smooth="yes"/>
      <point x="1227" y="599" type="line"/>
      <point x="1366" y="599" type="line"/>
      <point x="1366" y="819" type="line" smooth="yes"/>
      <point x="1366" y="891"/>
      <point x="1404" y="938"/>
      <point x="1478" y="917" type="curve"/>
      <point x="1494" y="990" type="line"/>
      <point x="1387" y="1017"/>
      <point x="1309" y="948"/>
      <point x="1299" y="867" type="curve"/>
      <point x="1294" y="867" type="line"/>
      <point x="1271" y="954"/>
      <point x="1189" y="1002"/>
      <point x="1086" y="1002" type="curve" smooth="yes"/>
      <point x="943" y="1002"/>
      <point x="841" y="908"/>
      <point x="841" y="773" type="curve" smooth="yes"/>
      <point x="841" y="667"/>
      <point x="900" y="590"/>
      <point x="1011" y="590" type="curve" smooth="yes"/>
      <point x="1104" y="590"/>
      <point x="1160" y="645"/>
      <point x="1160" y="725" type="curve" smooth="yes"/>
      <point x="1160" y="820"/>
      <point x="1081" y="896"/>
      <point x="926" y="896" type="curve" smooth="yes"/>
      <point x="785" y="896"/>
      <point x="690" y="801"/>
      <point x="690" y="684" type="curve" smooth="yes"/>
      <point x="690" y="591"/>
      <point x="742" y="545"/>
    </contour>
    <component base="ma-tamil"/>
  </outline>
</glyph>
<glyph name="year-tamil" format="2">
  <advance width="2594"/>
  <unicode hex="0BF5"/>
  <note>
uni0BF5
</note>
  <anchor x="912" y="0" name="bottom"/>
  <anchor x="1537" y="584" name="imatra"/>
  <anchor x="896" y="0" name="nukta"/>
  <anchor x="926" y="584" name="top"/>
  <anchor x="995" y="584" name="vedic"/>
  <outline>
    <contour>
      <point x="1043" y="-336" type="curve" smooth="yes"/>
      <point x="1530" y="-336"/>
      <point x="1920" y="-209"/>
      <point x="1920" y="111" type="curve" smooth="yes"/>
      <point x="1920" y="275"/>
      <point x="1838" y="363"/>
      <point x="1718" y="363" type="curve" smooth="yes"/>
      <point x="1593" y="363"/>
      <point x="1519" y="267"/>
      <point x="1519" y="146" type="curve" smooth="yes"/>
      <point x="1519" y="134" type="line"/>
      <point x="1557" y="134" type="line"/>
      <point x="1557" y="146" type="line" smooth="yes"/>
      <point x="1557" y="196"/>
      <point x="1577" y="236"/>
      <point x="1634" y="236" type="curve" smooth="yes"/>
      <point x="1688" y="236"/>
      <point x="1721" y="202"/>
      <point x="1721" y="101" type="curve" smooth="yes"/>
      <point x="1721" y="-144"/>
      <point x="1442" y="-251"/>
      <point x="1043" y="-251" type="curve" smooth="yes"/>
      <point x="502" y="-251"/>
      <point x="143" y="-64"/>
      <point x="143" y="262" type="curve" smooth="yes"/>
      <point x="143" y="586"/>
      <point x="484" y="787"/>
      <point x="1123" y="787" type="curve" smooth="yes"/>
      <point x="1596" y="787"/>
      <point x="2018" y="632"/>
      <point x="2018" y="251" type="curve" smooth="yes"/>
      <point x="2018" y="216" type="line" smooth="yes"/>
      <point x="2018" y="81"/>
      <point x="2099" y="-5"/>
      <point x="2260" y="-5" type="curve" smooth="yes"/>
      <point x="2438" y="-5"/>
      <point x="2540" y="124"/>
      <point x="2540" y="314" type="curve" smooth="yes"/>
      <point x="2540" y="406"/>
      <point x="2504" y="495"/>
      <point x="2430" y="587" type="curve"/>
      <point x="2362" y="540" type="line"/>
      <point x="2428" y="457"/>
      <point x="2459" y="396"/>
      <point x="2459" y="302" type="curve" smooth="yes"/>
      <point x="2459" y="169"/>
      <point x="2393" y="88"/>
      <point x="2311" y="88" type="curve" smooth="yes"/>
      <point x="2255" y="88"/>
      <point x="2242" y="129"/>
      <point x="2242" y="205" type="curve" smooth="yes"/>
      <point x="2242" y="271" type="line" smooth="yes"/>
      <point x="2242" y="690"/>
      <point x="1706" y="871"/>
      <point x="1123" y="871" type="curve" smooth="yes"/>
      <point x="411" y="871"/>
      <point x="54" y="623"/>
      <point x="54" y="262" type="curve" smooth="yes"/>
      <point x="54" y="-101"/>
      <point x="428" y="-336"/>
    </contour>
    <component base="lla-tamil" xOffset="242"/>
  </outline>
</glyph>
<glyph name="credit-tamil" format="2">
  <advance width="1793"/>
  <unicode hex="0BF7"/>
  <note>
uni0BF7
</note>
  <anchor x="555" y="0" name="bottom"/>
  <anchor x="555" y="0" name="nukta"/>
  <anchor x="561" y="584" name="top"/>
  <anchor x="558" y="584" name="vedic"/>
  <outline>
    <contour>
      <point x="1187" y="-4" type="curve" smooth="yes"/>
      <point x="1297" y="-4"/>
      <point x="1374" y="59"/>
      <point x="1374" y="163" type="curve" smooth="yes"/>
      <point x="1374" y="287"/>
      <point x="1257" y="348"/>
      <point x="1102" y="348" type="curve" smooth="yes"/>
      <point x="994" y="348"/>
      <point x="920" y="313"/>
      <point x="841" y="250" type="curve"/>
      <point x="841" y="170" type="line"/>
      <point x="939" y="244"/>
      <point x="1002" y="272"/>
      <point x="1073" y="272" type="curve" smooth="yes"/>
      <point x="1150" y="272"/>
      <point x="1205" y="229"/>
      <point x="1205" y="158" type="curve" smooth="yes"/>
      <point x="1205" y="108"/>
      <point x="1180" y="84"/>
      <point x="1147" y="84" type="curve" smooth="yes"/>
      <point x="1111" y="84"/>
      <point x="1077" y="115"/>
      <point x="1077" y="186" type="curve" smooth="yes"/>
      <point x="1077" y="291"/>
      <point x="1186" y="366"/>
      <point x="1305" y="366" type="curve" smooth="yes"/>
      <point x="1400" y="366"/>
      <point x="1511" y="320"/>
      <point x="1511" y="207" type="curve" smooth="yes"/>
      <point x="1511" y="129"/>
      <point x="1470" y="87"/>
      <point x="1409" y="48" type="curve"/>
      <point x="1433" y="0" type="line"/>
      <point x="1779" y="0" type="line"/>
      <point x="1779" y="75" type="line"/>
      <point x="1513" y="75" type="line"/>
      <point x="1505" y="34" type="line"/>
      <point x="1582" y="62"/>
      <point x="1668" y="112"/>
      <point x="1668" y="221" type="curve" smooth="yes"/>
      <point x="1668" y="376"/>
      <point x="1509" y="445"/>
      <point x="1347" y="445" type="curve" smooth="yes"/>
      <point x="1129" y="445"/>
      <point x="999" y="326"/>
      <point x="999" y="183" type="curve" smooth="yes"/>
      <point x="999" y="71"/>
      <point x="1058" y="-4"/>
    </contour>
    <component base="e-tamil"/>
  </outline>
</glyph>
<glyph name="rupee-tamil" format="2">
  <advance width="1206"/>
  <unicode hex="0BF9"/>
  <note>
uni0BF9
</note>
  <outline>
    <contour>
      <point x="624" y="-336" type="curve" smooth="yes"/>
      <point x="901" y="-336"/>
      <point x="1157" y="-204"/>
      <point x="1157" y="96" type="curve" smooth="yes"/>
      <point x="1157" y="272"/>
      <point x="1076" y="364"/>
      <point x="947" y="364" type="curve" smooth="yes"/>
      <point x="833" y="364"/>
      <point x="760" y="269"/>
      <point x="760" y="165" type="curve" smooth="yes"/>
      <point x="760" y="136" type="line"/>
      <point x="792" y="136" type="line"/>
      <point x="792" y="159" type="line" smooth="yes"/>
      <point x="792" y="201"/>
      <point x="821" y="236"/>
      <point x="866" y="236" type="curve" smooth="yes"/>
      <point x="922" y="236"/>
      <point x="958" y="197"/>
      <point x="958" y="81" type="curve" smooth="yes"/>
      <point x="958" y="-148"/>
      <point x="800" y="-251"/>
      <point x="604" y="-251" type="curve" smooth="yes"/>
      <point x="357" y="-251"/>
      <point x="146" y="-59"/>
      <point x="146" y="303" type="curve" smooth="yes"/>
      <point x="146" y="677"/>
      <point x="289" y="859"/>
      <point x="461" y="859" type="curve" smooth="yes"/>
      <point x="522" y="859"/>
      <point x="558" y="819"/>
      <point x="558" y="771" type="curve" smooth="yes"/>
      <point x="558" y="723"/>
      <point x="527" y="697"/>
      <point x="492" y="697" type="curve" smooth="yes"/>
      <point x="446" y="697"/>
      <point x="416" y="732"/>
      <point x="416" y="798" type="curve" smooth="yes"/>
      <point x="416" y="879"/>
      <point x="479" y="952"/>
      <point x="603" y="952" type="curve" smooth="yes"/>
      <point x="695" y="952"/>
      <point x="766" y="898"/>
      <point x="766" y="811" type="curve" smooth="yes"/>
      <point x="766" y="758"/>
      <point x="744" y="716"/>
      <point x="716" y="682" type="curve"/>
      <point x="733" y="630" type="line"/>
      <point x="963" y="630" type="line"/>
      <point x="963" y="705" type="line"/>
      <point x="783" y="705" type="line"/>
      <point x="759" y="656" type="line"/>
      <point x="836" y="695"/>
      <point x="876" y="757"/>
      <point x="876" y="824" type="curve" smooth="yes"/>
      <point x="876" y="949"/>
      <point x="758" y="1019"/>
      <point x="616" y="1019" type="curve" smooth="yes"/>
      <point x="458" y="1019"/>
      <point x="344" y="925"/>
      <point x="344" y="795" type="curve" smooth="yes"/>
      <point x="344" y="689"/>
      <point x="405" y="623"/>
      <point x="513" y="623" type="curve" smooth="yes"/>
      <point x="601" y="623"/>
      <point x="668" y="679"/>
      <point x="668" y="767" type="curve" smooth="yes"/>
      <point x="668" y="869"/>
      <point x="582" y="927"/>
      <point x="473" y="927" type="curve" smooth="yes"/>
      <point x="230" y="927"/>
      <point x="54" y="704"/>
      <point x="54" y="303" type="curve" smooth="yes"/>
      <point x="54" y="-100"/>
      <point x="296" y="-336"/>
    </contour>
    <contour>
      <point x="343" y="0" type="line"/>
      <point x="428" y="0" type="line"/>
      <point x="428" y="509" type="line"/>
      <point x="572" y="509" type="line"/>
      <point x="572" y="0" type="line"/>
      <point x="792" y="0" type="line"/>
      <point x="792" y="509" type="line"/>
      <point x="963" y="509" type="line"/>
      <point x="963" y="584" type="line"/>
      <point x="343" y="584" type="line"/>
    </contour>
  </outline>
</glyph>
<glyph name="number-tamil" format="2">
  <advance width="1134"/>
  <unicode hex="0BFA"/>
  <note>
uni0BFA
</note>
  <anchor x="434" y="0" name="bottom"/>
  <anchor x="594" y="584" name="imatra"/>
  <anchor x="437" y="-266" name="nukta"/>
  <anchor x="437" y="584" name="top"/>
  <anchor x="471" y="584" name="vedic"/>
  <outline>
    <contour>
      <point x="851" y="509" type="line"/>
      <point x="1134" y="509" type="line"/>
      <point x="1134" y="584" type="line"/>
      <point x="900" y="584" type="line"/>
      <point x="908" y="553" type="line"/>
      <point x="1020" y="604"/>
      <point x="1109" y="691"/>
      <point x="1109" y="810" type="curve" smooth="yes"/>
      <point x="1109" y="969"/>
      <point x="965" y="1040"/>
      <point x="828" y="1040" type="curve" smooth="yes"/>
      <point x="685" y="1040"/>
      <point x="574" y="940"/>
      <point x="574" y="810" type="curve" smooth="yes"/>
      <point x="574" y="704"/>
      <point x="633" y="627"/>
      <point x="744" y="627" type="curve" smooth="yes"/>
      <point x="836" y="627"/>
      <point x="893" y="682"/>
      <point x="893" y="762" type="curve" smooth="yes"/>
      <point x="893" y="857"/>
      <point x="813" y="934"/>
      <point x="661" y="934" type="curve" smooth="yes"/>
      <point x="520" y="934"/>
      <point x="422" y="841"/>
      <point x="422" y="729" type="curve" smooth="yes"/>
      <point x="422" y="621"/>
      <point x="501" y="538"/>
      <point x="614" y="538" type="curve"/>
      <point x="634" y="584" type="line"/>
      <point x="541" y="584"/>
      <point x="500" y="659"/>
      <point x="500" y="725" type="curve" smooth="yes"/>
      <point x="500" y="817"/>
      <point x="564" y="865"/>
      <point x="658" y="865" type="curve" smooth="yes"/>
      <point x="732" y="865"/>
      <point x="782" y="817"/>
      <point x="782" y="763" type="curve" smooth="yes"/>
      <point x="782" y="725"/>
      <point x="760" y="701"/>
      <point x="724" y="701" type="curve" smooth="yes"/>
      <point x="676" y="701"/>
      <point x="646" y="749"/>
      <point x="646" y="813" type="curve" smooth="yes"/>
      <point x="646" y="907"/>
      <point x="719" y="973"/>
      <point x="821" y="973" type="curve" smooth="yes"/>
      <point x="915" y="973"/>
      <point x="997" y="914"/>
      <point x="997" y="797" type="curve" smooth="yes"/>
      <point x="997" y="688"/>
      <point x="929" y="619"/>
      <point x="832" y="566" type="curve"/>
    </contour>
    <component base="na-tamil"/>
  </outline>
</glyph>
<glyph name="emdash" format="2">
  <advance width="1000"/>
  <unicode hex="2014"/>
  <outline>
    <contour>
      <point x="-5" y="229" type="line"/>
      <point x="1005" y="229" type="line"/>
      <point x="1005" y="308" type="line"/>
      <point x="-5" y="308" type="line"/>
    </contour>
  </outline>
</glyph>
<glyph name="quoteleft" format="2">
  <advance width="302"/>
  <unicode hex="2018"/>
  <outline>
    <contour>
      <point x="159" y="390" type="curve" smooth="yes"/>
      <point x="203" y="390"/>
      <point x="236" y="417"/>
      <point x="236" y="467" type="curve" smooth="yes"/>
      <point x="236" y="561"/>
      <point x="163" y="548"/>
      <point x="163" y="585" type="curve"/>
      <point x="163" y="624"/>
      <point x="193" y="633"/>
      <point x="246" y="654" type="curve"/>
      <point x="246" y="713" type="line"/>
      <point x="108" y="678"/>
      <point x="56" y="602"/>
      <point x="56" y="517" type="curve" smooth="yes"/>
      <point x="56" y="440"/>
      <point x="92" y="390"/>
    </contour>
  </outline>
</glyph>
<glyph name="quotedblleft" format="2">
  <advance width="518"/>
  <unicode hex="201C"/>
  <outline>
    <contour>
      <point x="375" y="390" type="curve" smooth="yes"/>
      <point x="419" y="390"/>
      <point x="452" y="417"/>
      <point x="452" y="467" type="curve" smooth="yes"/>
      <point x="452" y="561"/>
      <point x="379" y="548"/>
      <point x="379" y="585" type="curve"/>
      <point x="379" y="624"/>
      <point x="409" y="633"/>
      <point x="462" y="654" type="curve"/>
      <point x="462" y="713" type="line"/>
      <point x="324" y="678"/>
      <point x="272" y="602"/>
      <point x="272" y="517" type="curve" smooth="yes"/>
      <point x="272" y="440"/>
      <point x="308" y="390"/>
    </contour>
    <contour>
      <point x="159" y="390" type="curve" smooth="yes"/>
      <point x="203" y="390"/>
      <point x="236" y="417"/>
      <point x="236" y="467" type="curve" smooth="yes"/>
      <point x="236" y="561"/>
      <point x="163" y="548"/>
      <point x="163" y="585" type="curve"/>
      <point x="163" y="624"/>
      <point x="193" y="633"/>
      <point x="246" y="654" type="curve"/>
      <point x="246" y="713" type="line"/>
      <point x="108" y="678"/>
      <point x="56" y="602"/>
      <point x="56" y="517" type="curve" smooth="yes"/>
      <point x="56" y="440"/>
      <point x="92" y="390"/>
    </contour>
  </outline>
</glyph>
<glyph name="quotedblright" format="2">
  <advance width="518"/>
  <unicode hex="201D"/>
  <outline>
    <contour>
      <point x="272" y="391" type="line"/>
      <point x="410" y="426"/>
      <point x="462" y="502"/>
      <point x="462" y="587" type="curve" smooth="yes"/>
      <point x="462" y="664"/>
      <point x="426" y="714"/>
      <point x="359" y="714" type="curve" smooth="yes"/>
      <point x="315" y="714"/>
      <point x="282" y="688"/>
      <point x="282" y="638" type="curve" smooth="yes"/>
      <point x="282" y="544"/>
      <point x="355" y="556"/>
      <point x="355" y="520" type="curve"/>
      <point x="355" y="481"/>
      <point x="325" y="471"/>
      <point x="272" y="450" type="curve"/>
    </contour>
    <contour>
      <point x="56" y="391" type="line"/>
      <point x="194" y="426"/>
      <point x="246" y="502"/>
      <point x="246" y="587" type="curve" smooth="yes"/>
      <point x="246" y="664"/>
      <point x="210" y="714"/>
      <point x="143" y="714" type="curve" smooth="yes"/>
      <point x="99" y="714"/>
      <point x="66" y="688"/>
      <point x="66" y="638" type="curve" smooth="yes"/>
      <point x="66" y="544"/>
      <point x="139" y="556"/>
      <point x="139" y="520" type="curve"/>
      <point x="139" y="481"/>
      <point x="109" y="471"/>
      <point x="56" y="450" type="curve"/>
    </contour>
  </outline>
</glyph>
<glyph name="ellipsis" format="2">
  <advance width="952"/>
  <unicode hex="2026"/>
  <outline>
    <contour>
      <point x="793" y="-9" type="curve" smooth="yes"/>
      <point x="844" y="-9"/>
      <point x="889" y="13"/>
      <point x="889" y="80" type="curve" smooth="yes"/>
      <point x="889" y="148"/>
      <point x="844" y="169"/>
      <point x="793" y="169" type="curve" smooth="yes"/>
      <point x="739" y="169"/>
      <point x="697" y="148"/>
      <point x="697" y="80" type="curve" smooth="yes"/>
      <point x="697" y="13"/>
      <point x="739" y="-9"/>
    </contour>
    <contour>
      <point x="159" y="-9" type="curve" smooth="yes"/>
      <point x="210" y="-9"/>
      <point x="255" y="13"/>
      <point x="255" y="80" type="curve" smooth="yes"/>
      <point x="255" y="148"/>
      <point x="210" y="169"/>
      <point x="159" y="169" type="curve" smooth="yes"/>
      <point x="105" y="169"/>
      <point x="63" y="148"/>
      <point x="63" y="80" type="curve" smooth="yes"/>
      <point x="63" y="13"/>
      <point x="105" y="-9"/>
    </contour>
    <contour>
      <point x="476" y="-9" type="curve" smooth="yes"/>
      <point x="527" y="-9"/>
      <point x="572" y="13"/>
      <point x="572" y="80" type="curve" smooth="yes"/>
      <point x="572" y="148"/>
      <point x="527" y="169"/>
      <point x="476" y="169" type="curve" smooth="yes"/>
      <point x="422" y="169"/>
      <point x="380" y="148"/>
      <point x="380" y="80" type="curve" smooth="yes"/>
      <point x="380" y="13"/>
      <point x="422" y="-9"/>
    </contour>
  </outline>
</glyph>
<glyph name="foursuperior" format="2">
  <advance width="400"/>
  <unicode hex="2074"/>
  <outline>
    <contour>
      <point x="110" y="387" type="line"/>
      <point x="382" y="387" type="line"/>
      <point x="382" y="442" type="line"/>
      <point x="356" y="442" type="line"/>
      <point x="334" y="442"/>
      <point x="314" y="446"/>
      <point x="314" y="476" type="curve"/>
      <point x="314" y="504" type="line"/>
      <point x="385" y="504" type="line"/>
      <point x="385" y="569" type="line"/>
      <point x="314" y="569" type="line"/>
      <point x="314" y="819" type="line"/>
      <point x="191" y="819" type="line"/>
      <point x="4" y="556" type="line"/>
      <point x="4" y="504" type="line"/>
      <point x="189" y="504" type="line"/>
      <point x="189" y="476" type="line"/>
      <point x="189" y="446"/>
      <point x="170" y="442"/>
      <point x="148" y="442" type="curve"/>
      <point x="110" y="442" type="line"/>
    </contour>
    <contour>
      <point x="75" y="569" type="line"/>
      <point x="170" y="702" type="line" smooth="yes"/>
      <point x="177" y="712"/>
      <point x="185" y="727"/>
      <point x="192" y="745" type="curve"/>
      <point x="189" y="720"/>
      <point x="189" y="700"/>
      <point x="189" y="679" type="curve" smooth="yes"/>
      <point x="189" y="569" type="line"/>
    </contour>
  </outline>
</glyph>
<glyph name="rupeeIndian" format="2">
  <advance width="558"/>
  <unicode hex="20B9"/>
  <outline>
    <contour>
      <point x="437" y="0" type="curve" smooth="yes"/>
      <point x="544" y="0" type="line"/>
      <point x="544" y="66" type="line"/>
      <point x="530" y="66" type="line" smooth="yes"/>
      <point x="500" y="66"/>
      <point x="458" y="99"/>
      <point x="403" y="156" type="curve" smooth="yes"/>
      <point x="240" y="327" type="line"/>
      <point x="309" y="331"/>
      <point x="394" y="374"/>
      <point x="419" y="455" type="curve"/>
      <point x="506" y="455" type="line"/>
      <point x="506" y="529" type="line"/>
      <point x="427" y="529" type="line"/>
      <point x="423" y="570"/>
      <point x="411" y="615"/>
      <point x="382" y="641" type="curve"/>
      <point x="506" y="641" type="line"/>
      <point x="506" y="714" type="line"/>
      <point x="23" y="714" type="line"/>
      <point x="23" y="641" type="line"/>
      <point x="26" y="641" type="line" smooth="yes"/>
      <point x="117" y="641"/>
      <point x="178" y="608"/>
      <point x="187" y="529" type="curve"/>
      <point x="28" y="529" type="line"/>
      <point x="28" y="455" type="line"/>
      <point x="184" y="455" type="line"/>
      <point x="170" y="389"/>
      <point x="142" y="355"/>
      <point x="55" y="355" type="curve" smooth="yes"/>
      <point x="23" y="355" type="line"/>
      <point x="23" y="284" type="line"/>
      <point x="195" y="106" type="line" smooth="yes"/>
      <point x="252" y="48"/>
      <point x="307" y="0"/>
    </contour>
  </outline>
</glyph>
<glyph name="minus" format="2">
  <advance width="559"/>
  <unicode hex="2212"/>
  <outline>
    <contour>
      <point x="65" y="318" type="line"/>
      <point x="494" y="318" type="line"/>
      <point x="494" y="397" type="line"/>
      <point x="65" y="397" type="line"/>
    </contour>
  </outline>
</glyph>
<glyph name="candrabinduhalant-deva" format="2">
  <advance width="542"/>
  <unicode hex="A8F3"/>
  <note>
uniA8F3
</note>
  <outline>
    <contour>
      <point x="274" y="287" type="curve" smooth="yes"/>
      <point x="414" y="287"/>
      <point x="491" y="380"/>
      <point x="510" y="530" type="curve"/>
      <point x="386" y="554" type="line"/>
      <point x="377" y="455"/>
      <point x="334" y="400"/>
      <point x="254" y="400" type="curve" smooth="yes"/>
      <point x="191" y="400"/>
      <point x="141" y="437"/>
      <point x="116" y="549" type="curve"/>
      <point x="37" y="524" type="line"/>
      <point x="70" y="375"/>
      <point x="137" y="287"/>
    </contour>
    <contour>
      <point x="255" y="469" type="curve" smooth="yes"/>
      <point x="292" y="469"/>
      <point x="325" y="486"/>
      <point x="325" y="537" type="curve" smooth="yes"/>
      <point x="325" y="588"/>
      <point x="292" y="604"/>
      <point x="255" y="604" type="curve" smooth="yes"/>
      <point x="215" y="604"/>
      <point x="185" y="588"/>
      <point x="185" y="537" type="curve" smooth="yes"/>
      <point x="185" y="486"/>
      <point x="215" y="469"/>
    </contour>
    <contour>
      <point x="429" y="-25" type="curve"/>
      <point x="500" y="18" type="line"/>
      <point x="380" y="195"/>
      <point x="342" y="241"/>
      <point x="215" y="241" type="curve" smooth="yes"/>
      <point x="181" y="241"/>
      <point x="152" y="231"/>
      <point x="131" y="225" type="curve"/>
      <point x="181" y="99" type="line"/>
      <point x="207" y="108"/>
      <point x="227" y="115"/>
      <point x="256" y="115" type="curve" smooth="yes"/>
      <point x="326" y="115"/>
      <point x="354" y="82"/>
    </contour>
  </outline>
</glyph>
<glyph name="u11301" format="2">
  <unicode hex="11301"/>
  <anchor x="0" y="584" name="_vedic"/>
  <outline>
    <contour>
      <point x="13" y="968" type="curve" smooth="yes"/>
      <point x="150" y="968"/>
      <point x="212" y="1022"/>
      <point x="212" y="1098" type="curve" smooth="yes"/>
      <point x="212" y="1130"/>
      <point x="198" y="1176"/>
      <point x="149" y="1176" type="curve" smooth="yes"/>
      <point x="143" y="1176"/>
      <point x="127" y="1174"/>
      <point x="121" y="1171" type="curve"/>
      <point x="128" y="1157"/>
      <point x="131" y="1133"/>
      <point x="131" y="1117" type="curve" smooth="yes"/>
      <point x="131" y="1061"/>
      <point x="88" y="1041"/>
      <point x="24" y="1041" type="curve" smooth="yes"/>
      <point x="-51" y="1041"/>
      <point x="-93" y="1061"/>
      <point x="-93" y="1121" type="curve" smooth="yes"/>
      <point x="-93" y="1138"/>
      <point x="-89" y="1158"/>
      <point x="-84" y="1172" type="curve"/>
      <point x="-92" y="1175"/>
      <point x="-108" y="1178"/>
      <point x="-123" y="1178" type="curve" smooth="yes"/>
      <point x="-180" y="1178"/>
      <point x="-212" y="1138"/>
      <point x="-212" y="1091" type="curve" smooth="yes"/>
      <point x="-212" y="1032"/>
      <point x="-164" y="968"/>
    </contour>
    <contour>
      <point x="18" y="1069" type="curve" smooth="yes"/>
      <point x="68" y="1069"/>
      <point x="85" y="1091"/>
      <point x="85" y="1122" type="curve" smooth="yes"/>
      <point x="85" y="1154"/>
      <point x="69" y="1178"/>
      <point x="18" y="1178" type="curve" smooth="yes"/>
      <point x="-31" y="1178"/>
      <point x="-48" y="1154"/>
      <point x="-48" y="1125" type="curve" smooth="yes"/>
      <point x="-48" y="1091"/>
      <point x="-29" y="1069"/>
    </contour>
  </outline>
</glyph>
<glyph name="visarga-grantha" format="2">
  <advance width="315"/>
  <unicode hex="11303"/>
  <outline>
    <contour>
      <point x="162" y="-4" type="curve" smooth="yes"/>
      <point x="244" y="-4"/>
      <point x="310" y="49"/>
      <point x="310" y="138" type="curve" smooth="yes"/>
      <point x="310" y="226"/>
      <point x="244" y="279"/>
      <point x="162" y="279" type="curve" smooth="yes"/>
      <point x="81" y="279"/>
      <point x="15" y="226"/>
      <point x="15" y="138" type="curve" smooth="yes"/>
      <point x="15" y="49"/>
      <point x="81" y="-4"/>
    </contour>
    <contour>
      <point x="162" y="85" type="curve" smooth="yes"/>
      <point x="130" y="85"/>
      <point x="111" y="107"/>
      <point x="111" y="137" type="curve" smooth="yes"/>
      <point x="111" y="168"/>
      <point x="130" y="189"/>
      <point x="162" y="189" type="curve" smooth="yes"/>
      <point x="195" y="189"/>
      <point x="213" y="168"/>
      <point x="213" y="137" type="curve" smooth="yes"/>
      <point x="213" y="107"/>
      <point x="195" y="85"/>
    </contour>
    <contour>
      <point x="162" y="305" type="curve" smooth="yes"/>
      <point x="244" y="305"/>
      <point x="310" y="358"/>
      <point x="310" y="447" type="curve" smooth="yes"/>
      <point x="310" y="535"/>
      <point x="244" y="588"/>
      <point x="162" y="588" type="curve" smooth="yes"/>
      <point x="81" y="588"/>
      <point x="15" y="535"/>
      <point x="15" y="447" type="curve" smooth="yes"/>
      <point x="15" y="358"/>
      <point x="81" y="305"/>
    </contour>
    <contour>
      <point x="162" y="395" type="curve" smooth="yes"/>
      <point x="131" y="395"/>
      <point x="111" y="416"/>
      <point x="111" y="447" type="curve" smooth="yes"/>
      <point x="111" y="477"/>
      <point x="131" y="499"/>
      <point x="162" y="499" type="curve" smooth="yes"/>
      <point x="194" y="499"/>
      <point x="213" y="477"/>
      <point x="213" y="447" type="curve" smooth="yes"/>
      <point x="213" y="416"/>
      <point x="194" y="395"/>
    </contour>
  </outline>
</glyph>
<glyph name="u1133B" format="2">
  <unicode hex="1133B"/>
  <anchor x="0" y="0" name="_nukta"/>
  <outline>
    <contour>
      <point x="0" y="-264" type="curve" smooth="yes"/>
      <point x="56" y="-264"/>
      <point x="104" y="-219"/>
      <point x="104" y="-164" type="curve" smooth="yes"/>
      <point x="104" y="-110"/>
      <point x="57" y="-64"/>
      <point x="1" y="-64" type="curve" smooth="yes"/>
      <point x="-56" y="-64"/>
      <point x="-103" y="-110"/>
      <point x="-103" y="-164" type="curve" smooth="yes"/>
      <point x="-103" y="-219"/>
      <point x="-57" y="-264"/>
    </contour>
  </outline>
</glyph>
<glyph name="nukta-grantha" format="2">
  <unicode hex="1133C"/>
  <anchor x="0" y="0" name="_nukta"/>
  <outline>
    <contour>
      <point x="-159" y="-264" type="curve" smooth="yes"/>
      <point x="-103" y="-264"/>
      <point x="-55" y="-219"/>
      <point x="-55" y="-164" type="curve" smooth="yes"/>
      <point x="-55" y="-110"/>
      <point x="-102" y="-64"/>
      <point x="-158" y="-64" type="curve" smooth="yes"/>
      <point x="-215" y="-64"/>
      <point x="-262" y="-110"/>
      <point x="-262" y="-164" type="curve" smooth="yes"/>
      <point x="-262" y="-219"/>
      <point x="-216" y="-264"/>
    </contour>
    <contour>
      <point x="159" y="-264" type="curve" smooth="yes"/>
      <point x="215" y="-264"/>
      <point x="263" y="-219"/>
      <point x="263" y="-164" type="curve" smooth="yes"/>
      <point x="263" y="-110"/>
      <point x="216" y="-64"/>
      <point x="160" y="-64" type="curve" smooth="yes"/>
      <point x="103" y="-64"/>
      <point x="56" y="-110"/>
      <point x="56" y="-164" type="curve" smooth="yes"/>
      <point x="56" y="-219"/>
      <point x="102" y="-264"/>
    </contour>
  </outline>
</glyph>
<glyph name="anusvara-tamil.alt" format="2">
  <note>
uni0B82
</note>
  <anchor x="0" y="454" name="_top"/>
  <outline>
    <contour>
      <point x="0" y="628" type="curve" smooth="yes"/>
      <point x="85" y="628"/>
      <point x="154" y="695"/>
      <point x="154" y="783" type="curve" smooth="yes"/>
      <point x="154" y="872"/>
      <point x="85" y="938"/>
      <point x="0" y="938" type="curve" smooth="yes"/>
      <point x="-85" y="938"/>
      <point x="-154" y="872"/>
      <point x="-154" y="783" type="curve" smooth="yes"/>
      <point x="-154" y="695"/>
      <point x="-85" y="628"/>
    </contour>
    <contour>
      <point x="0" y="717" type="curve" smooth="yes"/>
      <point x="-34" y="717"/>
      <point x="-64" y="746"/>
      <point x="-64" y="783" type="curve" smooth="yes"/>
      <point x="-64" y="819"/>
      <point x="-34" y="848"/>
      <point x="0" y="848" type="curve" smooth="yes"/>
      <point x="34" y="848"/>
      <point x="64" y="819"/>
      <point x="64" y="783" type="curve" smooth="yes"/>
      <point x="64" y="746"/>
      <point x="34" y="717"/>
    </contour>
  </outline>
</glyph>
<glyph name="cu-tamil" format="2">
  <advance width="1032"/>
  <note>
g106
</note>
  <anchor x="531" y="0" name="bottom"/>
  <anchor x="531" y="0" name="nukta"/>
  <anchor x="523" y="584" name="top"/>
  <anchor x="559" y="584" name="vedic"/>
  <outline>
    <contour>
      <point x="304" y="-4" type="curve" smooth="yes"/>
      <point x="504" y="-4"/>
      <point x="610" y="102"/>
      <point x="610" y="239" type="curve" smooth="yes"/>
      <point x="610" y="272" type="line"/>
      <point x="731" y="272" type="line"/>
      <point x="731" y="0" type="line"/>
      <point x="912" y="0" type="line"/>
      <point x="912" y="272" type="line"/>
      <point x="1020" y="272" type="line"/>
      <point x="1020" y="348" type="line"/>
      <point x="610" y="348" type="line"/>
      <point x="610" y="508" type="line"/>
      <point x="769" y="508" type="line"/>
      <point x="769" y="584" type="line"/>
      <point x="168" y="584" type="line"/>
      <point x="168" y="298" type="line"/>
      <point x="253" y="298" type="line"/>
      <point x="253" y="508" type="line"/>
      <point x="391" y="508" type="line"/>
      <point x="391" y="348" type="line"/>
      <point x="259" y="348" type="line" smooth="yes"/>
      <point x="146" y="348"/>
      <point x="54" y="283"/>
      <point x="54" y="184" type="curve" smooth="yes"/>
      <point x="54" y="78"/>
      <point x="127" y="-4"/>
    </contour>
    <contour>
      <point x="250" y="83" type="curve" smooth="yes"/>
      <point x="182" y="83"/>
      <point x="133" y="117"/>
      <point x="133" y="180" type="curve" smooth="yes"/>
      <point x="133" y="235"/>
      <point x="176" y="272"/>
      <point x="258" y="272" type="curve" smooth="yes"/>
      <point x="391" y="272" type="line"/>
      <point x="391" y="223" type="line" smooth="yes"/>
      <point x="391" y="126"/>
      <point x="337" y="83"/>
    </contour>
  </outline>
</glyph>
<glyph name="cuu-tamil" format="2">
  <advance width="1457"/>
  <note>
g107
</note>
  <anchor x="771" y="0" name="bottom"/>
  <anchor x="736" y="-335" name="nukta"/>
  <anchor x="772" y="584" name="top"/>
  <anchor x="798" y="584" name="vedic"/>
  <outline>
    <contour>
      <point x="736" y="-335" type="curve" smooth="yes"/>
      <point x="1081" y="-335"/>
      <point x="1408" y="-228"/>
      <point x="1408" y="31" type="curve" smooth="yes"/>
      <point x="1408" y="149"/>
      <point x="1349" y="208"/>
      <point x="1267" y="208" type="curve" smooth="yes"/>
      <point x="1182" y="208"/>
      <point x="1122" y="144"/>
      <point x="1122" y="43" type="curve" smooth="yes"/>
      <point x="1122" y="30" type="line"/>
      <point x="1152" y="30" type="line"/>
      <point x="1152" y="43" type="line" smooth="yes"/>
      <point x="1152" y="89"/>
      <point x="1175" y="113"/>
      <point x="1206" y="113" type="curve" smooth="yes"/>
      <point x="1239" y="113"/>
      <point x="1256" y="81"/>
      <point x="1256" y="29" type="curve" smooth="yes"/>
      <point x="1256" y="-160"/>
      <point x="1003" y="-252"/>
      <point x="731" y="-252" type="curve" smooth="yes"/>
      <point x="396" y="-252"/>
      <point x="142" y="-117"/>
      <point x="142" y="163" type="curve" smooth="yes"/>
      <point x="142" y="270"/>
      <point x="177" y="374"/>
      <point x="283" y="484" type="curve"/>
      <point x="220" y="539" type="line"/>
      <point x="98" y="410"/>
      <point x="51" y="281"/>
      <point x="51" y="156" type="curve" smooth="yes"/>
      <point x="51" y="-148"/>
      <point x="359" y="-335"/>
    </contour>
    <contour>
      <point x="544" y="-4" type="curve" smooth="yes"/>
      <point x="744" y="-4"/>
      <point x="850" y="101"/>
      <point x="850" y="236" type="curve" smooth="yes"/>
      <point x="850" y="272" type="line"/>
      <point x="971" y="272" type="line"/>
      <point x="971" y="0" type="line"/>
      <point x="1152" y="0" type="line"/>
      <point x="1152" y="272" type="line"/>
      <point x="1260" y="272" type="line"/>
      <point x="1260" y="348" type="line"/>
      <point x="850" y="348" type="line"/>
      <point x="850" y="508" type="line"/>
      <point x="1009" y="508" type="line"/>
      <point x="1009" y="584" type="line"/>
      <point x="408" y="584" type="line"/>
      <point x="408" y="298" type="line"/>
      <point x="494" y="298" type="line"/>
      <point x="494" y="508" type="line"/>
      <point x="631" y="508" type="line"/>
      <point x="631" y="348" type="line"/>
      <point x="500" y="348" type="line" smooth="yes"/>
      <point x="386" y="348"/>
      <point x="294" y="283"/>
      <point x="294" y="184" type="curve" smooth="yes"/>
      <point x="294" y="78"/>
      <point x="367" y="-4"/>
    </contour>
    <contour>
      <point x="490" y="83" type="curve" smooth="yes"/>
      <point x="422" y="83"/>
      <point x="373" y="117"/>
      <point x="373" y="180" type="curve" smooth="yes"/>
      <point x="373" y="235"/>
      <point x="417" y="272"/>
      <point x="499" y="272" type="curve" smooth="yes"/>
      <point x="631" y="272" type="line"/>
      <point x="631" y="223" type="line" smooth="yes"/>
      <point x="631" y="126"/>
      <point x="578" y="83"/>
    </contour>
  </outline>
</glyph>
<glyph name="hii-tamil" format="2">
  <advance width="1948"/>
  <note>
uni0BB9
</note>
  <anchor x="1000" y="0" name="bottom"/>
  <anchor x="1000" y="-165" name="nukta"/>
  <anchor x="1838" y="945" name="top"/>
  <anchor x="1000" y="584" name="vedic"/>
  <outline>
    <contour>
      <point x="291" y="-342" type="curve"/>
      <point x="291" y="-243"/>
      <point x="324" y="-165"/>
      <point x="463" y="-165" type="curve" smooth="yes"/>
      <point x="1282" y="-165" type="line" smooth="yes"/>
      <point x="1764" y="-165"/>
      <point x="1914" y="-13"/>
      <point x="1914" y="262" type="curve" smooth="yes"/>
      <point x="1914" y="460"/>
      <point x="1802" y="592"/>
      <point x="1593" y="592" type="curve" smooth="yes"/>
      <point x="1480" y="592"/>
      <point x="1392" y="537"/>
      <point x="1364" y="440" type="curve"/>
      <point x="1343" y="542"/>
      <point x="1273" y="591"/>
      <point x="1179" y="591" type="curve" smooth="yes"/>
      <point x="1064" y="591"/>
      <point x="994" y="518"/>
      <point x="994" y="387" type="curve" smooth="yes"/>
      <point x="994" y="75" type="line"/>
      <point x="767" y="75" type="line"/>
      <point x="844" y="136"/>
      <point x="885" y="197"/>
      <point x="885" y="297" type="curve" smooth="yes"/>
      <point x="885" y="494"/>
      <point x="688" y="589"/>
      <point x="466" y="589" type="curve" smooth="yes"/>
      <point x="214" y="589"/>
      <point x="49" y="465"/>
      <point x="49" y="259" type="curve" smooth="yes"/>
      <point x="49" y="116"/>
      <point x="155" y="-5"/>
      <point x="311" y="-5" type="curve" smooth="yes"/>
      <point x="461" y="-5"/>
      <point x="546" y="68"/>
      <point x="546" y="189" type="curve" smooth="yes"/>
      <point x="546" y="284"/>
      <point x="479" y="354"/>
      <point x="364" y="354" type="curve" smooth="yes"/>
      <point x="212" y="354"/>
      <point x="137" y="234"/>
      <point x="140" y="123" type="curve"/>
      <point x="194" y="92" type="line"/>
      <point x="199" y="169"/>
      <point x="234" y="230"/>
      <point x="294" y="230" type="curve" smooth="yes"/>
      <point x="325" y="230"/>
      <point x="359" y="210"/>
      <point x="359" y="166" type="curve" smooth="yes"/>
      <point x="359" y="118"/>
      <point x="326" y="88"/>
      <point x="270" y="88" type="curve" smooth="yes"/>
      <point x="208" y="88"/>
      <point x="131" y="147"/>
      <point x="131" y="258" type="curve" smooth="yes"/>
      <point x="131" y="410"/>
      <point x="247" y="504"/>
      <point x="398" y="504" type="curve" smooth="yes"/>
      <point x="548" y="504"/>
      <point x="675" y="420"/>
      <point x="675" y="265" type="curve" smooth="yes"/>
      <point x="675" y="176"/>
      <point x="650" y="113"/>
      <point x="610" y="50" type="curve"/>
      <point x="636" y="0" type="line"/>
      <point x="1081" y="0" type="line"/>
      <point x="1081" y="380" type="line" smooth="yes"/>
      <point x="1081" y="466"/>
      <point x="1106" y="508"/>
      <point x="1163" y="508" type="curve" smooth="yes"/>
      <point x="1225" y="508"/>
      <point x="1248" y="465"/>
      <point x="1248" y="385" type="curve" smooth="yes"/>
      <point x="1248" y="1" type="line"/>
      <point x="1471" y="1" type="line"/>
      <point x="1471" y="362" type="line" smooth="yes"/>
      <point x="1471" y="456"/>
      <point x="1503" y="509"/>
      <point x="1564" y="509" type="curve" smooth="yes"/>
      <point x="1643" y="509"/>
      <point x="1688" y="432"/>
      <point x="1688" y="278" type="curve" smooth="yes"/>
      <point x="1688" y="49"/>
      <point x="1628" y="-103"/>
      <point x="1233" y="-103" type="curve" smooth="yes"/>
      <point x="389" y="-103" type="line" smooth="yes"/>
      <point x="250" y="-103"/>
      <point x="124" y="-128"/>
      <point x="124" y="-238" type="curve" smooth="yes"/>
      <point x="124" y="-317"/>
      <point x="192" y="-342"/>
    </contour>
    <component base="iiMatra-tamil.alt01" xOffset="1955"/>
  </outline>
</glyph>
<glyph name="iMatra-tamil.alt01" format="2">
  <advance width="268"/>
  <note>
uni0BBF
</note>
  <outline>
    <contour>
      <point x="101" y="0" type="line"/>
      <point x="188" y="0" type="line"/>
      <point x="188" y="555" type="line" smooth="yes"/>
      <point x="188" y="806"/>
      <point x="47" y="910"/>
      <point x="-133" y="910" type="curve" smooth="yes"/>
      <point x="-278" y="910"/>
      <point x="-380" y="826"/>
      <point x="-380" y="700" type="curve" smooth="yes"/>
      <point x="-380" y="611"/>
      <point x="-319" y="562"/>
      <point x="-225" y="501" type="curve"/>
      <point x="-189" y="550" type="line"/>
      <point x="-240" y="584"/>
      <point x="-268" y="600"/>
      <point x="-268" y="655" type="curve" smooth="yes"/>
      <point x="-268" y="712"/>
      <point x="-218" y="756"/>
      <point x="-132" y="756" type="curve" smooth="yes"/>
      <point x="-7" y="756"/>
      <point x="101" y="676"/>
      <point x="101" y="508" type="curve" smooth="yes"/>
    </contour>
  </outline>
</glyph>
<glyph name="iMatra-tamil.alt02" format="2">
  <advance width="268"/>
  <note>
uni0BBF
</note>
  <outline>
    <contour>
      <point x="101" y="0" type="line"/>
      <point x="188" y="0" type="line"/>
      <point x="188" y="538" type="line" smooth="yes"/>
      <point x="188" y="814"/>
      <point x="2" y="910"/>
      <point x="-228" y="910" type="curve" smooth="yes"/>
      <point x="-503" y="910"/>
      <point x="-570" y="776"/>
      <point x="-570" y="667" type="curve" smooth="yes"/>
      <point x="-570" y="605"/>
      <point x="-532" y="557"/>
      <point x="-471" y="489" type="curve"/>
      <point x="-413" y="526" type="line"/>
      <point x="-438" y="557"/>
      <point x="-458" y="582"/>
      <point x="-458" y="627" type="curve" smooth="yes"/>
      <point x="-458" y="693"/>
      <point x="-409" y="756"/>
      <point x="-228" y="756" type="curve" smooth="yes"/>
      <point x="-104" y="756"/>
      <point x="101" y="679"/>
      <point x="101" y="481" type="curve" smooth="yes"/>
    </contour>
  </outline>
</glyph>
<glyph name="iiMatra-tamil.alt01" format="2">
  <note>
uni0BC0
</note>
  <anchor x="-116" y="945" name="top"/>
  <outline>
    <contour>
      <point x="-229" y="505" type="curve"/>
      <point x="-198" y="557" type="line"/>
      <point x="-267" y="592"/>
      <point x="-307" y="638"/>
      <point x="-307" y="717" type="curve" smooth="yes"/>
      <point x="-307" y="802"/>
      <point x="-234" y="862"/>
      <point x="-134" y="862" type="curve" smooth="yes"/>
      <point x="-78" y="862"/>
      <point x="-35" y="834"/>
      <point x="-35" y="783" type="curve" smooth="yes"/>
      <point x="-35" y="744"/>
      <point x="-60" y="716"/>
      <point x="-104" y="716" type="curve" smooth="yes"/>
      <point x="-172" y="716"/>
      <point x="-192" y="802"/>
      <point x="-146" y="888" type="curve"/>
      <point x="-204" y="893" type="line"/>
      <point x="-282" y="769"/>
      <point x="-236" y="616"/>
      <point x="-61" y="616" type="curve" smooth="yes"/>
      <point x="39" y="616"/>
      <point x="123" y="667"/>
      <point x="123" y="767" type="curve" smooth="yes"/>
      <point x="123" y="878"/>
      <point x="24" y="945"/>
      <point x="-116" y="945" type="curve" smooth="yes"/>
      <point x="-283" y="945"/>
      <point x="-393" y="836"/>
      <point x="-393" y="724" type="curve" smooth="yes"/>
      <point x="-393" y="610"/>
      <point x="-318" y="551"/>
    </contour>
  </outline>
</glyph>
<glyph name="iiMatra-tamil.alt02" format="2">
  <note>
uni0BC0
</note>
  <outline>
    <contour>
      <point x="-493" y="504" type="curve"/>
      <point x="-462" y="555" type="line"/>
      <point x="-529" y="593"/>
      <point x="-576" y="638"/>
      <point x="-576" y="717" type="curve" smooth="yes"/>
      <point x="-576" y="802"/>
      <point x="-503" y="862"/>
      <point x="-402" y="862" type="curve" smooth="yes"/>
      <point x="-346" y="862"/>
      <point x="-303" y="834"/>
      <point x="-303" y="783" type="curve" smooth="yes"/>
      <point x="-303" y="744"/>
      <point x="-329" y="716"/>
      <point x="-372" y="716" type="curve" smooth="yes"/>
      <point x="-415" y="716"/>
      <point x="-439" y="750"/>
      <point x="-439" y="798" type="curve" smooth="yes"/>
      <point x="-439" y="825"/>
      <point x="-431" y="856"/>
      <point x="-414" y="888" type="curve"/>
      <point x="-472" y="893" type="line"/>
      <point x="-496" y="854"/>
      <point x="-509" y="812"/>
      <point x="-509" y="773" type="curve" smooth="yes"/>
      <point x="-509" y="688"/>
      <point x="-450" y="616"/>
      <point x="-329" y="616" type="curve" smooth="yes"/>
      <point x="-229" y="616"/>
      <point x="-146" y="667"/>
      <point x="-146" y="767" type="curve" smooth="yes"/>
      <point x="-146" y="878"/>
      <point x="-244" y="945"/>
      <point x="-385" y="945" type="curve" smooth="yes"/>
      <point x="-552" y="945"/>
      <point x="-661" y="836"/>
      <point x="-661" y="724" type="curve" smooth="yes"/>
      <point x="-661" y="610"/>
      <point x="-581" y="552"/>
    </contour>
  </outline>
</glyph>
<glyph name="kii-tamil" format="2">
  <advance width="994"/>
  <note>
uni0B95
</note>
  <anchor x="479" y="0" name="bottom"/>
  <anchor x="479" y="0" name="nukta"/>
  <anchor x="696" y="945" name="top"/>
  <anchor x="500" y="584" name="vedic"/>
  <outline>
    <contour>
      <point x="305" y="-4" type="curve" smooth="yes"/>
      <point x="505" y="-4"/>
      <point x="610" y="103"/>
      <point x="610" y="240" type="curve" smooth="yes"/>
      <point x="610" y="272" type="line"/>
      <point x="639" y="272" type="line" smooth="yes"/>
      <point x="705" y="272"/>
      <point x="739" y="241"/>
      <point x="739" y="169" type="curve" smooth="yes"/>
      <point x="739" y="97"/>
      <point x="694" y="72"/>
      <point x="648" y="72" type="curve" smooth="yes"/>
      <point x="631" y="72" type="line"/>
      <point x="631" y="-4" type="line"/>
      <point x="707" y="-4" type="line" smooth="yes"/>
      <point x="839" y="-4"/>
      <point x="945" y="46"/>
      <point x="945" y="173" type="curve" smooth="yes"/>
      <point x="945" y="305"/>
      <point x="820" y="348"/>
      <point x="652" y="348" type="curve" smooth="yes"/>
      <point x="610" y="348" type="line"/>
      <point x="610" y="508" type="line"/>
      <point x="767" y="508" type="line"/>
      <point x="767" y="584" type="line"/>
      <point x="168" y="584" type="line"/>
      <point x="168" y="310" type="line"/>
      <point x="253" y="310" type="line"/>
      <point x="253" y="508" type="line"/>
      <point x="391" y="508" type="line"/>
      <point x="391" y="348" type="line"/>
      <point x="256" y="348" type="line" smooth="yes"/>
      <point x="147" y="348"/>
      <point x="54" y="283"/>
      <point x="54" y="184" type="curve" smooth="yes"/>
      <point x="54" y="78"/>
      <point x="129" y="-4"/>
    </contour>
    <contour>
      <point x="250" y="83" type="curve" smooth="yes"/>
      <point x="182" y="83"/>
      <point x="133" y="117"/>
      <point x="133" y="180" type="curve" smooth="yes"/>
      <point x="133" y="235"/>
      <point x="173" y="272"/>
      <point x="255" y="272" type="curve" smooth="yes"/>
      <point x="391" y="272" type="line"/>
      <point x="391" y="229" type="line" smooth="yes"/>
      <point x="391" y="129"/>
      <point x="338" y="83"/>
    </contour>
    <component base="iiMatra-tamil" xOffset="685"/>
  </outline>
</glyph>
<glyph name="kssii-tamil" format="2">
  <advance width="2151"/>
  <note>
g76
</note>
  <anchor x="1106" y="0" name="bottom"/>
  <anchor x="895" y="0" name="nukta"/>
  <anchor x="1776" y="945" name="top"/>
  <anchor x="1105" y="584" name="vedic"/>
  <outline>
    <contour>
      <point x="880" y="-4" type="curve" smooth="yes"/>
      <point x="992" y="-4"/>
      <point x="1074" y="59"/>
      <point x="1074" y="163" type="curve" smooth="yes"/>
      <point x="1074" y="287"/>
      <point x="963" y="348"/>
      <point x="808" y="348" type="curve" smooth="yes"/>
      <point x="610" y="348" type="line"/>
      <point x="610" y="508" type="line"/>
      <point x="769" y="508" type="line"/>
      <point x="769" y="584" type="line"/>
      <point x="168" y="584" type="line"/>
      <point x="168" y="307" type="line"/>
      <point x="253" y="307" type="line"/>
      <point x="253" y="508" type="line"/>
      <point x="391" y="508" type="line"/>
      <point x="391" y="348" type="line"/>
      <point x="259" y="348" type="line" smooth="yes"/>
      <point x="146" y="348"/>
      <point x="54" y="282"/>
      <point x="54" y="179" type="curve" smooth="yes"/>
      <point x="54" y="73"/>
      <point x="127" y="-4"/>
      <point x="304" y="-4" type="curve" smooth="yes"/>
      <point x="506" y="-4"/>
      <point x="610" y="103"/>
      <point x="610" y="240" type="curve" smooth="yes"/>
      <point x="610" y="272" type="line"/>
      <point x="779" y="272" type="line" smooth="yes"/>
      <point x="856" y="272"/>
      <point x="906" y="229"/>
      <point x="906" y="158" type="curve" smooth="yes"/>
      <point x="906" y="108"/>
      <point x="873" y="84"/>
      <point x="841" y="84" type="curve" smooth="yes"/>
      <point x="803" y="84"/>
      <point x="763" y="116"/>
      <point x="763" y="187" type="curve" smooth="yes"/>
      <point x="763" y="292"/>
      <point x="864" y="368"/>
      <point x="986" y="368" type="curve" smooth="yes"/>
      <point x="1087" y="368"/>
      <point x="1187" y="315"/>
      <point x="1187" y="202" type="curve" smooth="yes"/>
      <point x="1187" y="128"/>
      <point x="1156" y="87"/>
      <point x="1119" y="48" type="curve"/>
      <point x="1143" y="0" type="line"/>
      <point x="2108" y="0" type="line"/>
      <point x="2108" y="347" type="line"/>
      <point x="1889" y="304" type="line"/>
      <point x="1889" y="75" type="line"/>
      <point x="1199" y="75" type="line"/>
      <point x="1199" y="34" type="line"/>
      <point x="1255" y="62"/>
      <point x="1345" y="114"/>
      <point x="1345" y="222" type="curve" smooth="yes"/>
      <point x="1345" y="373"/>
      <point x="1184" y="447"/>
      <point x="1025" y="447" type="curve" smooth="yes"/>
      <point x="810" y="447"/>
      <point x="685" y="327"/>
      <point x="685" y="184" type="curve" smooth="yes"/>
      <point x="685" y="72"/>
      <point x="753" y="-4"/>
    </contour>
    <contour>
      <point x="250" y="83" type="curve" smooth="yes"/>
      <point x="191" y="83"/>
      <point x="133" y="112"/>
      <point x="133" y="175" type="curve" smooth="yes"/>
      <point x="133" y="230"/>
      <point x="176" y="272"/>
      <point x="258" y="272" type="curve" smooth="yes"/>
      <point x="391" y="272" type="line"/>
      <point x="391" y="224" type="line" smooth="yes"/>
      <point x="391" y="128"/>
      <point x="338" y="83"/>
    </contour>
    <contour>
      <point x="1563" y="-335" type="line"/>
      <point x="1774" y="-335" type="line"/>
      <point x="1774" y="371" type="line" smooth="yes"/>
      <point x="1774" y="508"/>
      <point x="1711" y="589"/>
      <point x="1574" y="589" type="curve" smooth="yes"/>
      <point x="1425" y="589"/>
      <point x="1379" y="488"/>
      <point x="1379" y="403" type="curve" smooth="yes"/>
      <point x="1379" y="252"/>
      <point x="1522" y="192"/>
      <point x="1664" y="192" type="curve" smooth="yes"/>
      <point x="1817" y="192"/>
      <point x="1966" y="262"/>
      <point x="2108" y="342" type="curve"/>
      <point x="2108" y="352" type="line"/>
      <point x="2050" y="416" type="line"/>
      <point x="1921" y="332"/>
      <point x="1766" y="268"/>
      <point x="1657" y="268" type="curve" smooth="yes"/>
      <point x="1567" y="268"/>
      <point x="1459" y="298"/>
      <point x="1459" y="408" type="curve" smooth="yes"/>
      <point x="1459" y="450"/>
      <point x="1480" y="473"/>
      <point x="1510" y="473" type="curve" smooth="yes"/>
      <point x="1546" y="473"/>
      <point x="1563" y="440"/>
      <point x="1563" y="388" type="curve" smooth="yes"/>
    </contour>
    <component base="iiMatra-tamil.alt02" xOffset="2161"/>
  </outline>
</glyph>
<glyph name="ku-tamil" format="2">
  <advance width="1299"/>
  <note>
g101
</note>
  <anchor x="659" y="0" name="bottom"/>
  <anchor x="659" y="-335" name="nukta"/>
  <anchor x="743" y="584" name="top"/>
  <anchor x="739" y="584" name="vedic"/>
  <outline>
    <contour>
      <point x="659" y="-335" type="curve" smooth="yes"/>
      <point x="979" y="-335"/>
      <point x="1250" y="-208"/>
      <point x="1250" y="39" type="curve" smooth="yes"/>
      <point x="1250" y="270"/>
      <point x="1076" y="348"/>
      <point x="800" y="348" type="curve" smooth="yes"/>
      <point x="499" y="348" type="line" smooth="yes"/>
      <point x="390" y="348"/>
      <point x="296" y="283"/>
      <point x="296" y="184" type="curve" smooth="yes"/>
      <point x="296" y="85"/>
      <point x="363" y="-4"/>
      <point x="539" y="-4" type="curve" smooth="yes"/>
      <point x="746" y="-4"/>
      <point x="853" y="101"/>
      <point x="853" y="240" type="curve" smooth="yes"/>
      <point x="853" y="508" type="line"/>
      <point x="1010" y="508" type="line"/>
      <point x="1010" y="584" type="line"/>
      <point x="411" y="584" type="line"/>
      <point x="411" y="310" type="line"/>
      <point x="496" y="310" type="line"/>
      <point x="496" y="508" type="line"/>
      <point x="634" y="508" type="line"/>
      <point x="634" y="229" type="line" smooth="yes"/>
      <point x="634" y="129"/>
      <point x="581" y="83"/>
      <point x="492" y="83" type="curve" smooth="yes"/>
      <point x="424" y="83"/>
      <point x="375" y="117"/>
      <point x="375" y="180" type="curve" smooth="yes"/>
      <point x="375" y="235"/>
      <point x="416" y="272"/>
      <point x="498" y="272" type="curve" smooth="yes"/>
      <point x="786" y="272" type="line" smooth="yes"/>
      <point x="964" y="272"/>
      <point x="1045" y="196"/>
      <point x="1045" y="38" type="curve" smooth="yes"/>
      <point x="1045" y="-151"/>
      <point x="873" y="-250"/>
      <point x="654" y="-250" type="curve" smooth="yes"/>
      <point x="377" y="-250"/>
      <point x="142" y="-114"/>
      <point x="142" y="166" type="curve" smooth="yes"/>
      <point x="142" y="275"/>
      <point x="180" y="379"/>
      <point x="286" y="487" type="curve"/>
      <point x="224" y="542" type="line"/>
      <point x="102" y="416"/>
      <point x="51" y="286"/>
      <point x="51" y="159" type="curve" smooth="yes"/>
      <point x="51" y="-146"/>
      <point x="340" y="-335"/>
    </contour>
  </outline>
</glyph>
<glyph name="kuu-tamil" format="2">
  <advance width="1479"/>
  <note>
g102
</note>
  <anchor x="729" y="0" name="bottom"/>
  <anchor x="729" y="0" name="nukta"/>
  <anchor x="501" y="584" name="top"/>
  <anchor x="759" y="584" name="vedic"/>
  <outline>
    <contour>
      <point x="880" y="-4" type="curve" smooth="yes"/>
      <point x="992" y="-4"/>
      <point x="1074" y="59"/>
      <point x="1074" y="163" type="curve" smooth="yes"/>
      <point x="1074" y="287"/>
      <point x="963" y="348"/>
      <point x="808" y="348" type="curve" smooth="yes"/>
      <point x="610" y="348" type="line"/>
      <point x="610" y="508" type="line"/>
      <point x="769" y="508" type="line"/>
      <point x="769" y="584" type="line"/>
      <point x="168" y="584" type="line"/>
      <point x="168" y="307" type="line"/>
      <point x="253" y="307" type="line"/>
      <point x="253" y="508" type="line"/>
      <point x="391" y="508" type="line"/>
      <point x="391" y="348" type="line"/>
      <point x="259" y="348" type="line" smooth="yes"/>
      <point x="146" y="348"/>
      <point x="54" y="282"/>
      <point x="54" y="179" type="curve" smooth="yes"/>
      <point x="54" y="73"/>
      <point x="127" y="-4"/>
      <point x="304" y="-4" type="curve" smooth="yes"/>
      <point x="506" y="-4"/>
      <point x="610" y="103"/>
      <point x="610" y="240" type="curve" smooth="yes"/>
      <point x="610" y="272" type="line"/>
      <point x="779" y="272" type="line" smooth="yes"/>
      <point x="856" y="272"/>
      <point x="906" y="229"/>
      <point x="906" y="158" type="curve" smooth="yes"/>
      <point x="906" y="108"/>
      <point x="873" y="84"/>
      <point x="841" y="84" type="curve" smooth="yes"/>
      <point x="803" y="84"/>
      <point x="763" y="116"/>
      <point x="763" y="187" type="curve" smooth="yes"/>
      <point x="763" y="292"/>
      <point x="864" y="368"/>
      <point x="986" y="368" type="curve" smooth="yes"/>
      <point x="1087" y="368"/>
      <point x="1187" y="315"/>
      <point x="1187" y="202" type="curve" smooth="yes"/>
      <point x="1187" y="128"/>
      <point x="1156" y="87"/>
      <point x="1119" y="48" type="curve"/>
      <point x="1143" y="0" type="line"/>
      <point x="1465" y="0" type="line"/>
      <point x="1465" y="75" type="line"/>
      <point x="1199" y="75" type="line"/>
      <point x="1199" y="34" type="line"/>
      <point x="1255" y="62"/>
      <point x="1345" y="114"/>
      <point x="1345" y="222" type="curve" smooth="yes"/>
      <point x="1345" y="373"/>
      <point x="1184" y="447"/>
      <point x="1025" y="447" type="curve" smooth="yes"/>
      <point x="810" y="447"/>
      <point x="685" y="327"/>
      <point x="685" y="184" type="curve" smooth="yes"/>
      <point x="685" y="72"/>
      <point x="753" y="-4"/>
    </contour>
    <contour>
      <point x="250" y="83" type="curve" smooth="yes"/>
      <point x="191" y="83"/>
      <point x="133" y="112"/>
      <point x="133" y="175" type="curve" smooth="yes"/>
      <point x="133" y="230"/>
      <point x="176" y="272"/>
      <point x="258" y="272" type="curve" smooth="yes"/>
      <point x="391" y="272" type="line"/>
      <point x="391" y="228" type="line" smooth="yes"/>
      <point x="391" y="128"/>
      <point x="338" y="83"/>
    </contour>
  </outline>
</glyph>
<glyph name="li-tamil" format="2">
  <advance width="1491"/>
  <note>
g134
</note>
  <anchor x="753" y="0" name="bottom"/>
  <anchor x="753" y="0" name="nukta"/>
  <anchor x="1145" y="919" name="top"/>
  <anchor x="752" y="584" name="vedic"/>
  <outline>
    <contour>
      <point x="311" y="-5" type="curve" smooth="yes"/>
      <point x="461" y="-5"/>
      <point x="546" y="68"/>
      <point x="546" y="189" type="curve" smooth="yes"/>
      <point x="546" y="284"/>
      <point x="479" y="354"/>
      <point x="364" y="354" type="curve" smooth="yes"/>
      <point x="212" y="354"/>
      <point x="137" y="234"/>
      <point x="140" y="123" type="curve"/>
      <point x="194" y="92" type="line"/>
      <point x="199" y="169"/>
      <point x="234" y="230"/>
      <point x="294" y="230" type="curve" smooth="yes"/>
      <point x="325" y="230"/>
      <point x="359" y="210"/>
      <point x="359" y="166" type="curve" smooth="yes"/>
      <point x="359" y="118"/>
      <point x="326" y="88"/>
      <point x="270" y="88" type="curve" smooth="yes"/>
      <point x="208" y="88"/>
      <point x="131" y="147"/>
      <point x="131" y="258" type="curve" smooth="yes"/>
      <point x="131" y="413"/>
      <point x="234" y="502"/>
      <point x="394" y="502" type="curve" smooth="yes"/>
      <point x="576" y="502"/>
      <point x="642" y="390"/>
      <point x="642" y="261" type="curve" smooth="yes"/>
      <point x="642" y="216" type="line" smooth="yes"/>
      <point x="642" y="81"/>
      <point x="729" y="-5"/>
      <point x="891" y="-5" type="curve" smooth="yes"/>
      <point x="1044" y="-5"/>
      <point x="1170" y="85"/>
      <point x="1170" y="269" type="curve" smooth="yes"/>
      <point x="1170" y="463"/>
      <point x="1024" y="500"/>
      <point x="1024" y="646" type="curve" smooth="yes"/>
      <point x="1024" y="704"/>
      <point x="1068" y="766"/>
      <point x="1157" y="766" type="curve" smooth="yes"/>
      <point x="1256" y="766"/>
      <point x="1324" y="700"/>
      <point x="1324" y="572" type="curve" smooth="yes"/>
      <point x="1324" y="0" type="line"/>
      <point x="1411" y="0" type="line"/>
      <point x="1411" y="614" type="line" smooth="yes"/>
      <point x="1411" y="812"/>
      <point x="1310" y="919"/>
      <point x="1145" y="919" type="curve" smooth="yes"/>
      <point x="992" y="919"/>
      <point x="917" y="804"/>
      <point x="917" y="688" type="curve" smooth="yes"/>
      <point x="917" y="486"/>
      <point x="1092" y="430"/>
      <point x="1092" y="257" type="curve" smooth="yes"/>
      <point x="1092" y="153"/>
      <point x="1021" y="88"/>
      <point x="945" y="88" type="curve" smooth="yes"/>
      <point x="889" y="88"/>
      <point x="866" y="129"/>
      <point x="866" y="205" type="curve" smooth="yes"/>
      <point x="866" y="277" type="line" smooth="yes"/>
      <point x="866" y="470"/>
      <point x="710" y="589"/>
      <point x="456" y="589" type="curve" smooth="yes"/>
      <point x="210" y="589"/>
      <point x="49" y="465"/>
      <point x="49" y="259" type="curve" smooth="yes"/>
      <point x="49" y="116"/>
      <point x="155" y="-5"/>
    </contour>
  </outline>
</glyph>
<glyph name="lii-tamil" format="2">
  <advance width="1245"/>
  <note>
g135
</note>
  <anchor x="627" y="0" name="bottom"/>
  <anchor x="629" y="0" name="nukta"/>
  <anchor x="1062" y="904" name="top"/>
  <anchor x="739" y="584" name="vedic"/>
  <outline>
    <contour>
      <point x="311" y="-5" type="curve" smooth="yes"/>
      <point x="461" y="-5"/>
      <point x="546" y="68"/>
      <point x="546" y="189" type="curve" smooth="yes"/>
      <point x="546" y="284"/>
      <point x="479" y="354"/>
      <point x="364" y="354" type="curve" smooth="yes"/>
      <point x="212" y="354"/>
      <point x="140" y="238"/>
      <point x="140" y="123" type="curve"/>
      <point x="194" y="92" type="line"/>
      <point x="199" y="169"/>
      <point x="234" y="230"/>
      <point x="294" y="230" type="curve" smooth="yes"/>
      <point x="325" y="230"/>
      <point x="359" y="210"/>
      <point x="359" y="166" type="curve" smooth="yes"/>
      <point x="359" y="118"/>
      <point x="326" y="88"/>
      <point x="270" y="88" type="curve" smooth="yes"/>
      <point x="208" y="88"/>
      <point x="131" y="147"/>
      <point x="131" y="258" type="curve" smooth="yes"/>
      <point x="131" y="413"/>
      <point x="234" y="502"/>
      <point x="394" y="502" type="curve" smooth="yes"/>
      <point x="576" y="502"/>
      <point x="642" y="391"/>
      <point x="642" y="262" type="curve" smooth="yes"/>
      <point x="642" y="216" type="line" smooth="yes"/>
      <point x="642" y="81"/>
      <point x="726" y="-5"/>
      <point x="887" y="-5" type="curve" smooth="yes"/>
      <point x="1023" y="-5"/>
      <point x="1154" y="78"/>
      <point x="1154" y="245" type="curve" smooth="yes"/>
      <point x="1154" y="501"/>
      <point x="885" y="513"/>
      <point x="885" y="694" type="curve" smooth="yes"/>
      <point x="885" y="768"/>
      <point x="938" y="830"/>
      <point x="1037" y="830" type="curve" smooth="yes"/>
      <point x="1097" y="830"/>
      <point x="1140" y="794"/>
      <point x="1140" y="745" type="curve" smooth="yes"/>
      <point x="1140" y="709"/>
      <point x="1119" y="683"/>
      <point x="1080" y="683" type="curve" smooth="yes"/>
      <point x="1041" y="683"/>
      <point x="1022" y="718"/>
      <point x="1022" y="763" type="curve" smooth="yes"/>
      <point x="1022" y="792"/>
      <point x="1030" y="824"/>
      <point x="1046" y="854" type="curve"/>
      <point x="981" y="859" type="line"/>
      <point x="956" y="819"/>
      <point x="943" y="776"/>
      <point x="943" y="736" type="curve" smooth="yes"/>
      <point x="943" y="652"/>
      <point x="1000" y="583"/>
      <point x="1117" y="583" type="curve" smooth="yes"/>
      <point x="1215" y="583"/>
      <point x="1289" y="638"/>
      <point x="1289" y="733" type="curve" smooth="yes"/>
      <point x="1289" y="834"/>
      <point x="1202" y="904"/>
      <point x="1062" y="904" type="curve" smooth="yes"/>
      <point x="905" y="904"/>
      <point x="804" y="812"/>
      <point x="804" y="700" type="curve" smooth="yes"/>
      <point x="804" y="462"/>
      <point x="1068" y="468"/>
      <point x="1068" y="240" type="curve" smooth="yes"/>
      <point x="1068" y="144"/>
      <point x="1000" y="88"/>
      <point x="938" y="88" type="curve" smooth="yes"/>
      <point x="882" y="88"/>
      <point x="866" y="129"/>
      <point x="866" y="205" type="curve" smooth="yes"/>
      <point x="866" y="277" type="line" smooth="yes"/>
      <point x="866" y="470"/>
      <point x="710" y="589"/>
      <point x="456" y="589" type="curve" smooth="yes"/>
      <point x="210" y="589"/>
      <point x="49" y="465"/>
      <point x="49" y="259" type="curve" smooth="yes"/>
      <point x="49" y="116"/>
      <point x="155" y="-5"/>
    </contour>
  </outline>
</glyph>
<glyph name="lllii-tamil" format="2">
  <advance width="1005"/>
  <note>
uni0BB4
</note>
  <anchor x="538" y="0" name="bottom"/>
  <anchor x="537" y="-395" name="nukta"/>
  <anchor x="889" y="945" name="top"/>
  <anchor x="512" y="584" name="vedic"/>
  <anchor x="942" y="584" name="imatra"/>
  <outline>
    <contour>
      <point x="345" y="-441" type="curve" smooth="yes"/>
      <point x="630" y="-441"/>
      <point x="663" y="-208"/>
      <point x="875" y="-208" type="curve" smooth="yes"/>
      <point x="880" y="-208" type="line"/>
      <point x="880" y="-136" type="line"/>
      <point x="850" y="-136" type="line" smooth="yes"/>
      <point x="760" y="-136"/>
      <point x="680" y="-94"/>
      <point x="680" y="20" type="curve" smooth="yes"/>
      <point x="680" y="122" type="line"/>
      <point x="461" y="122" type="line"/>
      <point x="461" y="26" type="line" smooth="yes"/>
      <point x="461" y="-67"/>
      <point x="576" y="-142"/>
      <point x="684" y="-160" type="curve"/>
      <point x="684" y="-166" type="line"/>
      <point x="492" y="-194"/>
      <point x="435" y="-349"/>
      <point x="286" y="-349" type="curve" smooth="yes"/>
      <point x="230" y="-349"/>
      <point x="174" y="-315"/>
      <point x="174" y="-250" type="curve" smooth="yes"/>
      <point x="174" y="-197"/>
      <point x="204" y="-155"/>
      <point x="266" y="-155" type="curve" smooth="yes"/>
      <point x="309" y="-155"/>
      <point x="338" y="-173"/>
      <point x="370" y="-208" type="curve"/>
      <point x="422" y="-153" type="line"/>
      <point x="376" y="-103"/>
      <point x="323" y="-81"/>
      <point x="264" y="-81" type="curve" smooth="yes"/>
      <point x="158" y="-81"/>
      <point x="94" y="-157"/>
      <point x="94" y="-250" type="curve" smooth="yes"/>
      <point x="94" y="-368"/>
      <point x="197" y="-441"/>
    </contour>
    <component base="ma-tamil"/>
    <component base="iiMatra-tamil.alt01" xOffset="1005"/>
  </outline>
</glyph>
<glyph name="lllu-tamil" format="2">
  <advance width="1314"/>
  <note>
g140
</note>
  <anchor x="634" y="0" name="bottom"/>
  <anchor x="727" y="-380" name="nukta"/>
  <anchor x="880" y="584" name="top"/>
  <anchor x="882" y="584" name="vedic"/>
  <outline>
    <contour>
      <point x="383" y="0" type="line"/>
      <point x="1077" y="0" type="line" smooth="yes"/>
      <point x="1195" y="0"/>
      <point x="1261" y="82"/>
      <point x="1261" y="233" type="curve" smooth="yes"/>
      <point x="1261" y="458"/>
      <point x="1156" y="589"/>
      <point x="990" y="589" type="curve" smooth="yes"/>
      <point x="832" y="589"/>
      <point x="771" y="510"/>
      <point x="771" y="374" type="curve" smooth="yes"/>
      <point x="771" y="-213" type="line"/>
      <point x="989" y="-213" type="line"/>
      <point x="989" y="385" type="line" smooth="yes"/>
      <point x="989" y="465"/>
      <point x="997" y="499"/>
      <point x="1043" y="499" type="curve" smooth="yes"/>
      <point x="1106" y="499"/>
      <point x="1182" y="417"/>
      <point x="1182" y="236" type="curve" smooth="yes"/>
      <point x="1182" y="125"/>
      <point x="1146" y="75"/>
      <point x="1072" y="75" type="curve" smooth="yes"/>
      <point x="601" y="75" type="line"/>
      <point x="601" y="584" type="line"/>
      <point x="383" y="584" type="line"/>
    </contour>
    <contour>
      <point x="727" y="-380" type="curve" smooth="yes"/>
      <point x="971" y="-380"/>
      <point x="1197" y="-310"/>
      <point x="1197" y="-148" type="curve" smooth="yes"/>
      <point x="1197" y="-74"/>
      <point x="1152" y="-30"/>
      <point x="1089" y="-30" type="curve" smooth="yes"/>
      <point x="1017" y="-30"/>
      <point x="963" y="-96"/>
      <point x="963" y="-167" type="curve" smooth="yes"/>
      <point x="963" y="-178" type="line"/>
      <point x="989" y="-178" type="line"/>
      <point x="989" y="-166" type="line" smooth="yes"/>
      <point x="989" y="-147"/>
      <point x="1001" y="-125"/>
      <point x="1025" y="-125" type="curve" smooth="yes"/>
      <point x="1046" y="-125"/>
      <point x="1061" y="-139"/>
      <point x="1061" y="-165" type="curve" smooth="yes"/>
      <point x="1061" y="-255"/>
      <point x="932" y="-296"/>
      <point x="699" y="-296" type="curve" smooth="yes"/>
      <point x="367" y="-296"/>
      <point x="140" y="-107"/>
      <point x="140" y="176" type="curve" smooth="yes"/>
      <point x="140" y="289"/>
      <point x="169" y="400"/>
      <point x="273" y="536" type="curve"/>
      <point x="208" y="584" type="line"/>
      <point x="87" y="423"/>
      <point x="51" y="301"/>
      <point x="51" y="168" type="curve" smooth="yes"/>
      <point x="51" y="-132"/>
      <point x="304" y="-380"/>
    </contour>
  </outline>
</glyph>
<glyph name="llluu-tamil" format="2">
  <advance width="1478"/>
  <note>
g141
</note>
  <anchor x="729" y="0" name="bottom"/>
  <anchor x="846" y="-380" name="nukta"/>
  <anchor x="1043" y="584" name="top"/>
  <anchor x="1043" y="584" name="vedic"/>
  <outline>
    <contour>
      <point x="846" y="-380" type="curve" smooth="yes"/>
      <point x="1099" y="-380"/>
      <point x="1360" y="-313"/>
      <point x="1360" y="-147" type="curve" smooth="yes"/>
      <point x="1360" y="-73"/>
      <point x="1316" y="-30"/>
      <point x="1253" y="-30" type="curve" smooth="yes"/>
      <point x="1180" y="-30"/>
      <point x="1127" y="-96"/>
      <point x="1127" y="-167" type="curve" smooth="yes"/>
      <point x="1127" y="-178" type="line"/>
      <point x="1153" y="-178" type="line"/>
      <point x="1153" y="-166" type="line" smooth="yes"/>
      <point x="1153" y="-147"/>
      <point x="1165" y="-125"/>
      <point x="1189" y="-125" type="curve" smooth="yes"/>
      <point x="1209" y="-125"/>
      <point x="1224" y="-137"/>
      <point x="1224" y="-165" type="curve" smooth="yes"/>
      <point x="1224" y="-255"/>
      <point x="1051" y="-296"/>
      <point x="813" y="-296" type="curve" smooth="yes"/>
      <point x="451" y="-296"/>
      <point x="132" y="-77"/>
      <point x="132" y="239" type="curve" smooth="yes"/>
      <point x="132" y="402"/>
      <point x="180" y="485"/>
      <point x="259" y="485" type="curve" smooth="yes"/>
      <point x="299" y="485"/>
      <point x="321" y="459"/>
      <point x="321" y="419" type="curve" smooth="yes"/>
      <point x="321" y="365"/>
      <point x="286" y="331"/>
      <point x="229" y="331" type="curve" smooth="yes"/>
      <point x="202" y="331"/>
      <point x="171" y="339"/>
      <point x="136" y="355" type="curve"/>
      <point x="105" y="292" type="line"/>
      <point x="155" y="262"/>
      <point x="210" y="248"/>
      <point x="261" y="248" type="curve" smooth="yes"/>
      <point x="369" y="248"/>
      <point x="462" y="311"/>
      <point x="462" y="429" type="curve" smooth="yes"/>
      <point x="462" y="528"/>
      <point x="394" y="589"/>
      <point x="297" y="589" type="curve" smooth="yes"/>
      <point x="145" y="589"/>
      <point x="51" y="461"/>
      <point x="51" y="225" type="curve" smooth="yes"/>
      <point x="51" y="-102"/>
      <point x="372" y="-380"/>
    </contour>
    <contour>
      <point x="546" y="0" type="line"/>
      <point x="1241" y="0" type="line" smooth="yes"/>
      <point x="1358" y="0"/>
      <point x="1425" y="82"/>
      <point x="1425" y="233" type="curve" smooth="yes"/>
      <point x="1425" y="458"/>
      <point x="1320" y="589"/>
      <point x="1153" y="589" type="curve" smooth="yes"/>
      <point x="996" y="589"/>
      <point x="934" y="510"/>
      <point x="934" y="374" type="curve" smooth="yes"/>
      <point x="934" y="-213" type="line"/>
      <point x="1153" y="-213" type="line"/>
      <point x="1153" y="385" type="line" smooth="yes"/>
      <point x="1153" y="465"/>
      <point x="1160" y="499"/>
      <point x="1207" y="499" type="curve" smooth="yes"/>
      <point x="1270" y="499"/>
      <point x="1346" y="417"/>
      <point x="1346" y="236" type="curve" smooth="yes"/>
      <point x="1346" y="125"/>
      <point x="1310" y="75"/>
      <point x="1236" y="75" type="curve" smooth="yes"/>
      <point x="765" y="75" type="line"/>
      <point x="765" y="584" type="line"/>
      <point x="546" y="584" type="line"/>
    </contour>
  </outline>
</glyph>
<glyph name="llu-tamil" format="2">
  <advance width="1975"/>
  <note>
g138
</note>
  <anchor x="1091" y="0" name="bottom"/>
  <anchor x="1021" y="-336" name="nukta"/>
  <anchor x="1070" y="584" name="top"/>
  <anchor x="1004" y="584" name="vedic"/>
  <anchor x="1517" y="584" name="imatra"/>
  <outline>
    <contour>
      <point x="1021" y="-336" type="curve" smooth="yes"/>
      <point x="1446" y="-336"/>
      <point x="1926" y="-229"/>
      <point x="1926" y="113" type="curve" smooth="yes"/>
      <point x="1926" y="275"/>
      <point x="1826" y="363"/>
      <point x="1708" y="363" type="curve" smooth="yes"/>
      <point x="1581" y="363"/>
      <point x="1496" y="267"/>
      <point x="1496" y="146" type="curve" smooth="yes"/>
      <point x="1496" y="134" type="line"/>
      <point x="1537" y="134" type="line"/>
      <point x="1537" y="146" type="line" smooth="yes"/>
      <point x="1537" y="196"/>
      <point x="1570" y="236"/>
      <point x="1627" y="236" type="curve" smooth="yes"/>
      <point x="1680" y="236"/>
      <point x="1726" y="201"/>
      <point x="1726" y="107" type="curve" smooth="yes"/>
      <point x="1726" y="-165"/>
      <point x="1349" y="-253"/>
      <point x="1006" y="-253" type="curve" smooth="yes"/>
      <point x="543" y="-253"/>
      <point x="141" y="-83"/>
      <point x="141" y="275" type="curve" smooth="yes"/>
      <point x="141" y="373"/>
      <point x="174" y="458"/>
      <point x="227" y="550" type="curve"/>
      <point x="150" y="587" type="line"/>
      <point x="91" y="486"/>
      <point x="51" y="378"/>
      <point x="51" y="270" type="curve" smooth="yes"/>
      <point x="51" y="-146"/>
      <point x="504" y="-336"/>
    </contour>
    <component base="lla-tamil" xOffset="222"/>
  </outline>
</glyph>
<glyph name="lluu-tamil" format="2">
  <advance width="2211"/>
  <note>
g139
</note>
  <anchor x="1327" y="0" name="bottom"/>
  <anchor x="1166" y="-336" name="nukta"/>
  <anchor x="1326" y="584" name="top"/>
  <anchor x="1230" y="584" name="vedic"/>
  <anchor x="1753" y="584" name="imatra"/>
  <outline>
    <contour>
      <point x="1166" y="-336" type="curve" smooth="yes"/>
      <point x="1585" y="-336"/>
      <point x="2162" y="-245"/>
      <point x="2162" y="113" type="curve" smooth="yes"/>
      <point x="2162" y="275"/>
      <point x="2062" y="363"/>
      <point x="1943" y="363" type="curve" smooth="yes"/>
      <point x="1817" y="363"/>
      <point x="1727" y="267"/>
      <point x="1727" y="146" type="curve" smooth="yes"/>
      <point x="1727" y="134" type="line"/>
      <point x="1773" y="134" type="line"/>
      <point x="1773" y="146" type="line" smooth="yes"/>
      <point x="1773" y="196"/>
      <point x="1806" y="236"/>
      <point x="1863" y="236" type="curve" smooth="yes"/>
      <point x="1916" y="236"/>
      <point x="1962" y="201"/>
      <point x="1962" y="107" type="curve" smooth="yes"/>
      <point x="1962" y="-180"/>
      <point x="1494" y="-253"/>
      <point x="1151" y="-253" type="curve" smooth="yes"/>
      <point x="664" y="-253"/>
      <point x="138" y="-65"/>
      <point x="138" y="292" type="curve" smooth="yes"/>
      <point x="138" y="424"/>
      <point x="206" y="485"/>
      <point x="263" y="485" type="curve" smooth="yes"/>
      <point x="302" y="485"/>
      <point x="329" y="459"/>
      <point x="329" y="419" type="curve" smooth="yes"/>
      <point x="329" y="365"/>
      <point x="291" y="331"/>
      <point x="233" y="331" type="curve" smooth="yes"/>
      <point x="206" y="331"/>
      <point x="174" y="339"/>
      <point x="139" y="355" type="curve"/>
      <point x="108" y="292" type="line"/>
      <point x="158" y="262"/>
      <point x="214" y="248"/>
      <point x="266" y="248" type="curve" smooth="yes"/>
      <point x="375" y="248"/>
      <point x="470" y="311"/>
      <point x="470" y="429" type="curve" smooth="yes"/>
      <point x="470" y="530"/>
      <point x="393" y="589"/>
      <point x="294" y="589" type="curve" smooth="yes"/>
      <point x="166" y="589"/>
      <point x="51" y="484"/>
      <point x="51" y="274" type="curve" smooth="yes"/>
      <point x="51" y="-117"/>
      <point x="610" y="-336"/>
    </contour>
    <component base="lla-tamil" xOffset="458"/>
  </outline>
</glyph>
<glyph name="lu-tamil" format="2">
  <advance width="1561"/>
  <note>
g136
</note>
  <anchor x="428" y="0" name="bottom"/>
  <anchor x="428" y="-395" name="nukta"/>
  <anchor x="766" y="584" name="top"/>
  <anchor x="769" y="584" name="vedic"/>
  <outline>
    <contour>
      <point x="429" y="-395" type="curve" smooth="yes"/>
      <point x="765" y="-395"/>
      <point x="992" y="-199"/>
      <point x="992" y="21" type="curve" smooth="yes"/>
      <point x="992" y="50" type="line"/>
      <point x="773" y="52" type="line"/>
      <point x="773" y="21" type="line" smooth="yes"/>
      <point x="773" y="-208"/>
      <point x="648" y="-320"/>
      <point x="429" y="-320" type="curve" smooth="yes"/>
      <point x="243" y="-320"/>
      <point x="158" y="-237"/>
      <point x="158" y="-178" type="curve" smooth="yes"/>
      <point x="158" y="-160"/>
      <point x="169" y="-149"/>
      <point x="196" y="-149" type="curve" smooth="yes"/>
      <point x="1488" y="-149" type="line"/>
      <point x="1488" y="584" type="line"/>
      <point x="1270" y="584" type="line"/>
      <point x="1270" y="-74" type="line"/>
      <point x="164" y="-74" type="line" smooth="yes"/>
      <point x="98" y="-74"/>
      <point x="64" y="-114"/>
      <point x="64" y="-159" type="curve" smooth="yes"/>
      <point x="64" y="-293"/>
      <point x="219" y="-395"/>
    </contour>
    <component base="la-tamil"/>
  </outline>
</glyph>
